<svg width="24" height="24" viewBox="0 0 24 24" fill="none" xmlns="http://www.w3.org/2000/svg">
<path d="M10.6667 1.5C9.92917 1.5 9.33333 2.17031 9.33333 3V7.77656C9.33333 8.03906 9.14583 8.25 8.9125 8.25C8.7625 8.25 8.62083 8.16094 8.54583 8.01094L6.54583 4.07812C3.45833 5.78906 1.33333 9.36563 1.33333 13.5V16.5H22.6667V13.3875C22.6292 9.3 20.5125 5.775 17.4542 4.07812L15.4542 8.01094C15.3792 8.16094 15.2375 8.25 15.0875 8.25C14.8542 8.25 14.6667 8.03906 14.6667 7.77656V3C14.6667 2.17031 14.0708 1.5 13.3333 1.5H10.6667ZM0.691667 18C0.308333 18 0 18.3469 0 18.7781C0 18.9984 0.0833333 19.2094 0.241667 19.3359C1.14583 20.0812 4.65833 22.5 12 22.5C19.3417 22.5 22.8542 20.0812 23.7583 19.3359C23.9167 19.2047 24 18.9984 24 18.7781C24 18.3469 23.6917 18 23.3083 18H0.691667Z" fill="#B1B1B1"/>
</svg>
