<svg width="89" height="89" viewBox="0 0 89 89" fill="none" xmlns="http://www.w3.org/2000/svg">
<path opacity="0.21" fill-rule="evenodd" clip-rule="evenodd" d="M0 44.5V66C0 78.7026 10.2975 89 23 89H44.5H66C78.7026 89 89 78.7026 89 66V44.5V23C89 10.2975 78.7026 0 66 0H44.5H23C10.2975 0 0 10.2975 0 23V44.5Z" fill="#8280FF"/>
<path opacity="0.587821" fill-rule="evenodd" clip-rule="evenodd" d="M30.6558 34.6113C30.6558 38.9805 34.1977 42.5224 38.5669 42.5224C42.9361 42.5224 46.478 38.9805 46.478 34.6113C46.478 30.2421 42.9361 26.7002 38.5669 26.7002C34.1977 26.7002 30.6558 30.2421 30.6558 34.6113ZM50.4333 42.522C50.4333 45.7989 53.0898 48.4553 56.3667 48.4553C59.6436 48.4553 62.3 45.7989 62.3 42.522C62.3 39.2451 59.6436 36.5886 56.3667 36.5886C53.0898 36.5886 50.4333 39.2451 50.4333 42.522Z" fill="#8280FF"/>
<path fill-rule="evenodd" clip-rule="evenodd" d="M38.5337 46.478C29.1957 46.478 21.5345 51.2771 20.7679 60.7165C20.7261 61.2306 21.7094 62.3003 22.2054 62.3003H54.8767C56.3625 62.3003 56.3856 61.1046 56.3625 60.718C55.7829 51.0135 48.003 46.478 38.5337 46.478ZM67.1575 62.3002H59.531C59.5309 57.8483 58.0599 53.74 55.5774 50.4348C62.315 50.5082 67.8165 53.9145 68.2305 61.1135C68.2472 61.4035 68.2305 62.3002 67.1575 62.3002Z" fill="#8280FF"/>
</svg>
