<svg width="26" height="20" viewBox="0 0 26 20" fill="none" xmlns="http://www.w3.org/2000/svg">
<path d="M22.9608 4.16318V3.80751C22.9608 2.1725 21.6306 0.842285 19.9956 0.842285H2.96522C1.33016 0.842336 0 2.1725 0 3.80751V4.16318H22.9608Z" fill="#B1B1B1"/>
<path d="M13.5651 13.7015C13.5651 12.1634 14.0598 10.7014 14.9731 9.49658H0V13.6328C0 15.2678 1.33016 16.598 2.96522 16.598H14.1911C13.7813 15.7004 13.5651 14.7177 13.5651 13.7015ZM11.4804 12.8027H8.92125V11.2793H11.4804V12.8027ZM3.41545 11.2793H7.39781V12.8027H3.41545V11.2793Z" fill="#B1B1B1"/>
<path d="M16.5547 7.97305C17.7165 7.16019 19.0967 6.72226 20.5443 6.72226C21.3822 6.72226 22.1973 6.86937 22.9608 7.15055V5.68652H0V7.97305H16.5547Z" fill="#B1B1B1"/>
<path d="M26 13.7013C26 10.6882 23.5574 8.24561 20.5443 8.24561C17.5312 8.24561 15.0885 10.6882 15.0885 13.7013C15.0885 16.7144 17.5311 19.157 20.5443 19.157C23.5574 19.157 26 16.7144 26 13.7013ZM21.2797 16.6159V17.2359H20.518V17.2359V17.2359H19.7562V16.6205C19.2957 16.4645 18.9189 16.1901 18.5509 15.921L19.4503 14.6914C19.9446 15.0529 20.1976 15.2267 20.5443 15.2267C20.7403 15.2267 20.899 15.1334 20.9585 14.9833C21.0305 14.8015 20.9287 14.634 20.6861 14.5352C20.6861 14.5352 19.5973 14.1721 19.0939 13.6588C18.6716 13.2283 18.5372 12.6215 18.6717 12.0442C18.807 11.4631 19.1995 11.0086 19.7562 10.7817V10.1666H21.2797V10.7562C21.6666 10.8636 21.9941 11.0224 22.1824 11.1246L21.4555 12.4635C20.9736 12.2019 20.5303 12.1234 20.3577 12.1824C20.1903 12.2396 20.1649 12.3488 20.1553 12.3899C20.1417 12.4482 20.1345 12.5375 20.2276 12.6413C20.3172 12.7412 21.2605 13.1243 21.2605 13.1243C22.2782 13.5386 22.7572 14.579 22.3747 15.5444C22.176 16.0462 21.7761 16.4262 21.2797 16.6159Z" fill="#B1B1B1"/>
</svg>
