<svg width="89" height="90" viewBox="0 0 89 90" fill="none" xmlns="http://www.w3.org/2000/svg">
<path opacity="0.21" fill-rule="evenodd" clip-rule="evenodd" d="M0 45V66.5C0 79.2026 10.2975 89.5 23 89.5H44.5H66C78.7026 89.5 89 79.2026 89 66.5V45V23.5C89 10.7975 78.7026 0.5 66 0.5H44.5H23C10.2975 0.5 0 10.7975 0 23.5V45Z" fill="#FEC53D"/>
<path fill-rule="evenodd" clip-rule="evenodd" d="M22.25 36.5701L41.3857 47.6181C41.5918 47.737 41.8078 47.823 42.0278 47.8775V69.3046L23.6148 58.4078C22.7688 57.9071 22.25 56.9972 22.25 56.0142V36.5701ZM66.7498 36.2759V56.0138C66.7498 56.9967 66.2309 57.9067 65.385 58.4073L46.972 69.3041V47.6893C47.0168 47.6669 47.0613 47.643 47.1053 47.6176L66.7498 36.2759Z" fill="#FEC53D"/>
<path opacity="0.499209" fill-rule="evenodd" clip-rule="evenodd" d="M22.8511 31.207C23.0848 30.9118 23.3798 30.6624 23.7238 30.4792L43.1925 20.1097C44.0098 19.6744 44.9902 19.6744 45.8075 20.1097L65.2762 30.4792C65.5413 30.6204 65.7774 30.801 65.9787 31.0115L44.6333 43.3353C44.493 43.4163 44.3636 43.5091 44.2456 43.6115C44.1277 43.5091 43.9983 43.4163 43.8579 43.3353L22.8511 31.207Z" fill="#FEC53D"/>
</svg>
