<svg width="23" height="23" viewBox="0 0 23 23" fill="none" xmlns="http://www.w3.org/2000/svg">
<g clip-path="url(#clip0_249_958)">
<path d="M0.651581 11.0769C0.651581 8.13914 1.74996 5.32168 3.70509 3.24436C5.66022 1.16703 8.31195 0 11.0769 0C13.8419 0 16.4936 1.16703 18.4487 3.24436C20.4039 5.32168 21.5023 8.13914 21.5023 11.0769C21.5023 14.0147 20.4039 16.8322 18.4487 18.9095C16.4936 20.9868 13.8419 22.1538 11.0769 22.1538C8.31195 22.1538 5.66022 20.9868 3.70509 18.9095C1.74996 16.8322 0.651581 14.0147 0.651581 11.0769ZM5.11754 5.09123C5.07197 5.0427 5.01387 5.00963 4.95059 4.99622C4.88732 4.98281 4.82172 4.98967 4.76212 5.01592C4.70252 5.04217 4.65159 5.08663 4.6158 5.14367C4.58001 5.20071 4.56097 5.26776 4.56108 5.33631V8.30769C4.56108 8.49877 4.70704 8.65385 4.88688 8.65385H7.68347C7.74799 8.65397 7.81109 8.63373 7.86478 8.59571C7.91846 8.55768 7.96031 8.50357 7.98502 8.44024C8.00972 8.37692 8.01617 8.30722 8.00356 8.23999C7.99094 8.17276 7.95981 8.11103 7.91413 8.06262L7.23127 7.33708C7.87763 6.58843 8.70522 6.04294 9.62361 5.7602C10.542 5.47746 11.5159 5.46835 12.4388 5.73387C13.3617 5.99939 14.1982 6.52932 14.8569 7.26576C15.5156 8.0022 15.9711 8.91682 16.1736 9.90969C16.2279 10.1791 16.3806 10.4145 16.5982 10.5642C16.8159 10.7139 17.0806 10.7656 17.3341 10.7079C17.5876 10.6503 17.8092 10.488 17.9501 10.2567C18.091 10.0255 18.1396 9.74428 18.0854 9.47492C17.8095 8.11658 17.1893 6.86426 16.2918 5.85353C15.3942 4.84279 14.2536 4.11214 12.9933 3.74067C11.7331 3.36919 10.4012 3.37103 9.14184 3.746C7.88249 4.12097 6.74366 4.85478 5.84861 5.868L5.11754 5.09123ZM17.5928 16.8175V13.8462C17.5928 13.7543 17.5584 13.6663 17.4973 13.6014C17.4362 13.5365 17.3534 13.5 17.267 13.5H14.4704C14.4058 13.4999 14.3427 13.5201 14.2891 13.5581C14.2354 13.5962 14.1935 13.6503 14.1688 13.7136C14.1441 13.7769 14.1377 13.8466 14.1503 13.9139C14.1629 13.9811 14.194 14.0428 14.2397 14.0912L14.9226 14.8168C14.2764 15.5659 13.4488 16.1118 12.5303 16.3949C11.6118 16.6779 10.6378 16.6871 9.71464 16.4216C8.79152 16.156 7.95491 15.6258 7.29628 14.8891C6.63765 14.1523 6.18238 13.2373 5.98023 12.2442C5.92597 11.9748 5.77322 11.7394 5.55559 11.5897C5.33796 11.44 5.07328 11.3883 4.81976 11.4459C4.56625 11.5036 4.34467 11.6659 4.20378 11.8971C4.06289 12.1283 4.01422 12.4096 4.06849 12.6789C4.34431 14.0373 4.96455 15.2896 5.86209 16.3003C6.75962 17.3111 7.90025 18.0417 9.16051 18.4132C10.4208 18.7847 11.7527 18.7828 13.012 18.4078C14.2713 18.0329 15.4102 17.2991 16.3052 16.2858L17.0363 17.0626C17.0819 17.1112 17.14 17.1442 17.2032 17.1576C17.2665 17.171 17.3321 17.1642 17.3917 17.1379C17.4513 17.1117 17.5022 17.0672 17.538 17.0102C17.5738 16.9531 17.5929 16.8861 17.5928 16.8175ZM13.0317 11.0769C13.0315 10.5259 12.8253 9.99753 12.4585 9.60803C12.0917 9.21853 11.5942 8.99982 11.0756 9C10.557 9.00018 10.0597 9.21925 9.69313 9.60901C9.32654 9.99877 9.12069 10.5273 9.12087 11.0783C9.12104 11.6293 9.32722 12.1577 9.69405 12.5472C9.87569 12.7401 10.0913 12.893 10.3286 12.9973C10.5658 13.1017 10.8201 13.1553 11.0769 13.1552C11.3337 13.1551 11.588 13.1013 11.8252 12.9968C12.0624 12.8923 12.2779 12.7392 12.4594 12.5462C12.6409 12.3532 12.7849 12.1241 12.8831 11.872C12.9813 11.6199 13.0318 11.3498 13.0317 11.0769Z" fill="#B1B1B1"/>
</g>
<defs>
<clipPath id="clip0_249_958">
<rect width="22.1538" height="22.1538" fill="white"/>
</clipPath>
</defs>
</svg>
