<svg width="89" height="89" viewBox="0 0 89 89" fill="none" xmlns="http://www.w3.org/2000/svg">
<path opacity="0.21" fill-rule="evenodd" clip-rule="evenodd" d="M0 44.5V66C0 78.7026 10.2975 89 23 89H44.5H66C78.7026 89 89 78.7026 89 66V44.5V23C89 10.2975 78.7026 0 66 0H44.5H23C10.2975 0 0 10.2975 0 23V44.5Z" fill="#4AD991"/>
<path d="M28.3482 60.6519H62.9593C64.2337 60.6519 65.2667 61.685 65.2667 62.9593C65.2667 64.2337 64.2337 65.2667 62.9593 65.2667H26.0408C24.7665 65.2667 23.7334 64.2337 23.7334 62.9593V26.0408C23.7334 24.7665 24.7665 23.7334 26.0408 23.7334C27.3152 23.7334 28.3482 24.7665 28.3482 26.0408V60.6519Z" fill="#4AD991"/>
<path opacity="0.5" d="M36.9536 50.6929C36.0821 51.6225 34.6219 51.6696 33.6922 50.7981C32.7625 49.9265 32.7154 48.4663 33.587 47.5366L42.2397 38.307C43.0827 37.4079 44.4834 37.3299 45.4209 38.1299L52.2502 43.9576L61.1482 32.6868C61.9378 31.6866 63.3888 31.5159 64.389 32.3055C65.3892 33.0952 65.5599 34.5461 64.7702 35.5464L54.3869 48.6986C53.5759 49.7259 52.0737 49.8736 51.0781 49.024L44.1004 43.0697L36.9536 50.6929Z" fill="#4AD991"/>
</svg>
