<svg width="24" height="24" viewBox="0 0 24 24" fill="none" xmlns="http://www.w3.org/2000/svg">
<path d="M21.238 17L19.506 20C19.3442 20.28 19.117 20.5167 18.8437 20.6896C18.5705 20.8626 18.2593 20.9667 17.937 20.993L17.773 21H6.226C5.976 20.9993 5.73733 20.955 5.51 20.867L5.345 20.795L7.535 17H21.238ZM8.57699 3.339L10.845 7.268L3.995 19.134L2.184 16C2.00846 15.696 1.91605 15.3511 1.91605 15C1.91605 14.6489 2.00846 14.304 2.184 14L7.958 4C8.114 3.73 8.32699 3.506 8.57699 3.339ZM14.309 3C14.6324 2.99984 14.951 3.07809 15.2375 3.22804C15.524 3.378 15.7698 3.59519 15.954 3.861L16.04 4L21.814 14C21.963 14.258 22.05 14.54 22.074 14.828L22.082 15H17.618L10.69 3H14.309ZM12 9.268L15.31 15H8.68999L12 9.268Z" fill="#B1B1B1"/>
</svg>
