<svg width="431" height="399" viewBox="0 0 431 399" fill="none" xmlns="http://www.w3.org/2000/svg">
<path d="M215.303 399C334.211 399 430.605 377.64 430.605 351.291C430.605 324.943 334.211 303.583 215.303 303.583C96.3943 303.583 0 324.943 0 351.291C0 377.64 96.3943 399 215.303 399Z" fill="white"/>
<path opacity="0.16" d="M215.303 399C334.211 399 430.605 377.64 430.605 351.291C430.605 324.943 334.211 303.583 215.303 303.583C96.3943 303.583 0 324.943 0 351.291C0 377.64 96.3943 399 215.303 399Z" fill="#15803D"/>
<path d="M15.4296 126.626C15.7402 126.012 16.2341 125.509 16.8432 125.188C17.4523 124.866 18.1464 124.741 18.8297 124.83C18.8237 124.789 18.8278 124.747 18.8417 124.708C18.8556 124.668 18.8789 124.633 18.9095 124.605C18.9402 124.577 18.9773 124.557 19.0175 124.546C19.0578 124.536 19.1001 124.535 19.1406 124.544L16.8354 122.895C16.1458 122.424 15.6503 121.72 15.4405 120.912C15.2306 120.105 15.3207 119.248 15.694 118.502C16.0865 117.777 16.7349 117.223 17.5133 116.948C18.2917 116.673 19.1447 116.697 19.9067 117.014C19.9011 116.982 19.9227 116.95 19.9275 116.917L18.9803 116.239C18.3324 115.792 17.859 115.136 17.6402 114.38C17.4214 113.625 17.4708 112.818 17.7799 112.095C17.9829 111.645 18.2834 111.247 18.6595 110.927C19.0357 110.608 19.4782 110.376 19.9551 110.247C20.4319 110.119 20.9314 110.099 21.4173 110.187C21.9032 110.275 22.3635 110.469 22.7649 110.756L24.9507 112.321C24.957 112.307 24.9507 112.292 24.9598 112.28C24.9688 112.269 24.9917 112.264 25.0042 112.251C24.5024 111.687 24.2074 110.97 24.1675 110.217C24.1277 109.464 24.3454 108.72 24.7849 108.106C25.816 106.449 28.1982 106.79 29.6111 107.799L42.4755 116.666L40.1759 112.802C39.7126 112.058 39.5495 111.167 39.7195 110.308C39.8896 109.448 40.3801 108.686 41.0918 108.174C41.468 107.922 41.8916 107.75 42.3368 107.667C42.7819 107.584 43.2393 107.593 43.6809 107.693C44.1226 107.793 44.5392 107.981 44.9053 108.247C45.2714 108.513 45.5794 108.851 45.8104 109.24L58.3654 130.341C59.8381 132.817 60.2861 135.768 59.6141 138.568C58.9422 141.368 57.2032 143.796 54.7667 145.336C51.9409 147.123 48.6451 148.026 45.3017 147.93C41.9584 147.834 38.7199 146.744 36.0013 144.799L16.5718 130.897C15.9278 130.417 15.4648 129.735 15.2576 128.96C15.0503 128.185 15.1109 127.363 15.4296 126.626Z" fill="#E98862"/>
<g opacity="0.25">
<path d="M37.6826 121.088C37.6349 121.153 37.5639 121.196 37.4847 121.209C37.4055 121.222 37.3243 121.204 37.2586 121.158L25.0353 112.706C24.9715 112.658 24.9288 112.587 24.9161 112.509C24.9033 112.43 24.9216 112.35 24.9671 112.284C25.0126 112.219 25.0817 112.174 25.1599 112.158C25.2381 112.142 25.3193 112.158 25.3865 112.201L37.609 120.652C37.676 120.699 37.7218 120.77 37.7364 120.85C37.7509 120.93 37.7331 121.013 37.6867 121.08L37.6826 121.088Z" fill="#0C0C0C"/>
</g>
<g opacity="0.25">
<path d="M34.0953 126.573C34.0478 126.637 33.9769 126.681 33.8978 126.694C33.8187 126.707 33.7376 126.688 33.672 126.642L20.0311 117.212C19.9978 117.189 19.9694 117.16 19.9475 117.126C19.9256 117.092 19.9106 117.054 19.9034 117.014C19.8962 116.974 19.8969 116.934 19.9054 116.894C19.914 116.855 19.9303 116.817 19.9534 116.784C20.0017 116.719 20.0727 116.676 20.1522 116.661C20.2317 116.647 20.3137 116.663 20.3815 116.707L34.0259 126.139C34.0929 126.186 34.1387 126.257 34.1533 126.337C34.1678 126.417 34.15 126.5 34.1036 126.567L34.0953 126.573Z" fill="#0C0C0C"/>
</g>
<g opacity="0.25">
<path d="M30.2478 132.535C30.2002 132.6 30.1292 132.643 30.0499 132.656C29.9707 132.669 29.8895 132.651 29.8238 132.605L18.9426 125.083C18.9094 125.06 18.8811 125.03 18.8593 124.996C18.8375 124.963 18.8226 124.925 18.8154 124.885C18.8083 124.845 18.809 124.805 18.8176 124.765C18.8262 124.726 18.8425 124.688 18.8656 124.655C18.8886 124.622 18.918 124.594 18.952 124.572C18.986 124.55 19.0239 124.535 19.0637 124.528C19.1034 124.521 19.1442 124.522 19.1837 124.53C19.2231 124.539 19.2605 124.555 19.2937 124.578L30.1742 132.102C30.2075 132.125 30.2359 132.154 30.2578 132.188C30.2797 132.222 30.2947 132.26 30.3019 132.299C30.3091 132.339 30.3084 132.38 30.2998 132.419C30.2913 132.459 30.275 132.496 30.252 132.529L30.2478 132.535Z" fill="#0C0C0C"/>
</g>
<path d="M60.8302 118.537L104.642 178.418L151.337 118.537L185.119 153.134L121.314 235.628L120.898 236.215C118.344 239.707 114.941 242.493 111.011 244.309C107.081 246.125 102.752 246.913 98.4323 246.597C94.1128 246.282 89.9449 244.873 86.3213 242.505C82.6977 240.137 79.7376 236.887 77.72 233.061L23.291 145.28L60.8302 118.537Z" fill="#15803D"/>
<path d="M108.257 185.957C108.337 185.957 108.416 185.936 108.486 185.897C108.555 185.858 108.614 185.801 108.656 185.733C108.698 185.665 108.721 185.587 108.724 185.507C108.727 185.427 108.71 185.348 108.673 185.276L105.059 178.205C104.998 178.104 104.9 178.03 104.786 177.998C104.672 177.966 104.55 177.978 104.445 178.032C104.339 178.086 104.258 178.178 104.218 178.289C104.177 178.4 104.18 178.522 104.227 178.631L107.841 185.702C107.88 185.778 107.94 185.843 108.013 185.888C108.086 185.933 108.171 185.957 108.257 185.957Z" fill="#0C0C0C"/>
<path d="M257.727 34.2529C257.727 34.2529 263.572 55.5762 270.04 62.4297C288.662 82.1604 297.898 106.735 286.555 122.855C275.213 138.975 185.679 157.341 172.677 128.197C161.731 103.662 173.428 98.4085 172.095 76.6086C171.491 66.7436 171.109 45.8789 171.109 45.8789" fill="#0A0A0A"/>
<path d="M187.752 111.969C187.909 111.949 189.66 140.953 223.411 138.425C246.776 136.677 255.107 111.929 255.643 111.929C253.123 111.394 248.881 110.616 247.763 110.021C244.085 108.047 239.531 105.993 238.345 98.8602C237.662 94.7486 238.821 73.7128 238.464 69.5562L202.599 77.5473C203.1 86.3329 206.607 106.699 194.314 110.303C192.268 110.9 190.065 111.448 187.752 111.969Z" fill="#E98862"/>
<path opacity="0.52" d="M202.096 101.98C202.658 100.173 203.019 98.3093 203.175 96.423C203.569 92.1186 203.49 87.7841 202.94 83.4967C210.23 82.5144 217.097 79.5106 222.762 74.8268C223.429 77.2819 227.091 88.0108 226.077 90.3447C224.159 94.7569 215.152 101.98 202.096 101.98Z" fill="#0C0C0C"/>
<path d="M209.756 96.5969C223.885 95.1227 240.688 85.9498 240.65 66.7734L240.616 49.4702C240.578 30.2938 230.458 14.7675 212.373 14.8035C194.287 14.8389 180.8 30.4115 180.838 49.588L180.853 57.2486C180.867 64.6064 184.547 99.2274 209.756 96.5969Z" fill="#E98862"/>
<path opacity="0.52" d="M199.316 71.9913C199.304 71.992 199.292 71.992 199.281 71.9913C198.547 71.9878 197.815 71.9436 197.086 71.859C195.996 71.7253 194.547 71.4371 194.545 70.4783C194.545 69.3851 197.518 57.5929 197.857 56.2489C197.87 56.1889 197.894 56.1321 197.93 56.0818C197.965 56.0316 198.01 55.989 198.062 55.9566C198.114 55.9242 198.172 55.9026 198.233 55.8931C198.294 55.8836 198.356 55.8865 198.415 55.9015C198.475 55.9165 198.531 55.9434 198.58 55.9805C198.629 56.0176 198.67 56.0642 198.7 56.1174C198.731 56.1707 198.75 56.2295 198.757 56.2905C198.764 56.3514 198.759 56.4131 198.742 56.472C197.472 61.4952 195.457 69.7405 195.458 70.4762C195.636 70.7831 197.46 71.0831 199.279 71.0803C199.396 71.0819 199.507 71.1282 199.591 71.2095C199.675 71.2909 199.724 71.4012 199.729 71.5177C199.733 71.6342 199.693 71.7481 199.616 71.836C199.54 71.9238 199.432 71.9789 199.316 71.9899V71.9913Z" fill="#0C0C0C"/>
<path opacity="0.52" d="M202.658 76.6515C205.575 76.4683 208.495 76.9723 211.181 78.1229C211.237 78.1457 211.287 78.1791 211.33 78.2213C211.373 78.2635 211.406 78.3137 211.429 78.369C211.453 78.4242 211.465 78.4835 211.465 78.5434C211.465 78.6033 211.453 78.6626 211.431 78.718C211.408 78.7734 211.374 78.8238 211.332 78.8663C211.29 78.9088 211.239 78.9425 211.184 78.9656C211.129 78.9887 211.069 79.0007 211.009 79.0009C210.949 79.0011 210.89 78.9895 210.834 78.9667C205.049 76.6224 199.842 77.072 195.777 80.2657C195.695 80.3331 195.609 80.396 195.521 80.4541C195.417 80.5132 195.294 80.5292 195.178 80.4989C195.063 80.4685 194.964 80.394 194.902 80.2916C194.841 80.1891 194.823 80.0667 194.851 79.9507C194.879 79.8347 194.951 79.7344 195.053 79.6713C195.085 79.6505 195.138 79.6075 195.212 79.5493C197.35 77.8651 199.942 76.8561 202.658 76.6515Z" fill="#0C0C0C"/>
<path d="M255.694 52.623L239.499 52.7477C226.733 50.2232 219.225 30.4309 219.225 30.4309C219.225 30.4309 207.516 47.1847 171.11 45.8796C171.11 45.8796 168.798 -4.01891 223.033 0.2603C240.52 1.64029 255.647 16.0789 258.445 38.7039C260.404 54.5585 255.694 52.623 255.694 52.623Z" fill="#0A0A0A"/>
<path d="M239.54 72.6203C245.036 72.6099 249.48 66.7318 249.469 61.2437C249.458 55.7556 244.997 52.7393 239.5 52.7504L236.676 56.4325L234.814 72.63L239.54 72.6203Z" fill="#E98862"/>
<path d="M192.968 48.0098C191.23 47.3082 189.335 47.0862 187.481 47.3669C186.567 47.4997 185.678 47.7688 184.844 48.165C184.018 48.5537 183.244 49.0448 182.54 49.6267C182.447 49.7049 182.388 49.8155 182.374 49.9359C182.36 50.0562 182.393 50.1774 182.465 50.2745C182.538 50.3717 182.645 50.4377 182.764 50.4589C182.884 50.4801 183.007 50.455 183.108 50.3888L183.139 50.3673C183.797 49.872 184.515 49.4612 185.276 49.1446C186.028 48.8275 186.823 48.6257 187.636 48.546C189.244 48.3767 190.868 48.6346 192.344 49.2935L192.392 49.3164C192.477 49.365 192.572 49.3954 192.67 49.4057C192.768 49.4161 192.867 49.4061 192.961 49.3764C193.055 49.3467 193.142 49.2979 193.216 49.2332C193.291 49.1684 193.351 49.0891 193.393 49.0001C193.435 48.9111 193.458 48.8144 193.461 48.716C193.464 48.6176 193.447 48.5197 193.41 48.4284C193.373 48.337 193.318 48.2543 193.248 48.1852C193.177 48.1162 193.094 48.0624 193.002 48.0272L192.968 48.0098Z" fill="#0C0C0C"/>
<path d="M207.549 48.625C209.02 47.9534 210.642 47.6819 212.251 47.838C213.062 47.9115 213.858 48.1065 214.61 48.4165C215.374 48.7268 216.095 49.1318 216.757 49.6219L216.787 49.642C216.889 49.7147 217.016 49.7443 217.14 49.7243C217.264 49.7044 217.375 49.6365 217.449 49.5354C217.523 49.4343 217.554 49.3082 217.536 49.1843C217.517 49.0604 217.45 48.9488 217.35 48.8737C216.642 48.2977 215.863 47.8131 215.034 47.4314C214.197 47.0421 213.307 46.7806 212.392 46.6555C210.536 46.3909 208.642 46.6302 206.91 47.3482C206.819 47.3814 206.736 47.4327 206.665 47.4991C206.594 47.5654 206.538 47.6453 206.499 47.7341C206.46 47.8228 206.44 47.9185 206.439 48.0153C206.439 48.1121 206.458 48.2081 206.496 48.2973C206.533 48.3865 206.589 48.4672 206.658 48.5344C206.728 48.6016 206.811 48.654 206.902 48.6883C206.992 48.7227 207.089 48.7383 207.186 48.7342C207.283 48.7301 207.378 48.7064 207.465 48.6645L207.493 48.6527L207.549 48.625Z" fill="#0C0C0C"/>
<path d="M239.427 52.5564L239.497 52.0937C218.315 48.7753 219.439 28.4281 219.454 28.2231L218.987 28.1912C218.973 28.4004 217.813 49.1702 239.427 52.5564Z" fill="#0C0C0C"/>
<path opacity="0.1" d="M213.646 70.6693C215.982 70.4781 217.761 68.9363 217.621 67.2257C217.48 65.5151 215.473 64.2834 213.137 64.4746C210.802 64.6658 209.022 66.2075 209.163 67.9182C209.303 69.6288 211.31 70.8605 213.646 70.6693Z" fill="#0C0C0C"/>
<path opacity="0.1" d="M188.193 68.8828C188.328 70.5919 186.549 72.1319 184.214 72.3259C183.81 72.3592 183.404 72.3501 183.002 72.2989C182.492 70.3321 182.096 68.4194 181.793 66.6383C182.394 66.3518 183.044 66.18 183.708 66.1319C186.043 65.9372 188.05 67.1682 188.193 68.8828Z" fill="#0C0C0C"/>
<path d="M145.816 175.824C146.879 188.293 152.05 259.154 153.073 274.512H293.937C294.733 260.661 298.308 207.019 301.323 179.932C304.204 154.084 309.858 136.81 305.713 129.169C298.947 116.68 293.619 111.46 275.022 109.463C266.201 108.545 257.297 108.827 248.552 110.303C248.552 110.303 247.572 130.112 224.184 131.214C192.347 132.714 194.464 110.357 194.315 110.303C187.753 107.908 167.5 106.67 157.44 113.302C138.247 125.954 143.562 149.4 145.816 175.824Z" fill="#15803D"/>
<path d="M188.507 59.1349C189.737 59.1349 190.734 58.1393 190.734 56.9112C190.734 55.683 189.737 54.6874 188.507 54.6874C187.277 54.6874 186.279 55.683 186.279 56.9112C186.279 58.1393 187.277 59.1349 188.507 59.1349Z" fill="#0C0C0C"/>
<path d="M210.352 57.9358C211.583 57.9358 212.58 56.9402 212.58 55.712C212.58 54.4839 211.583 53.4882 210.352 53.4882C209.122 53.4882 208.125 54.4839 208.125 55.712C208.125 56.9402 209.122 57.9358 210.352 57.9358Z" fill="#0C0C0C"/>
<path d="M146.894 183.917L145.959 183.97L147.084 203.77L148.02 203.717L146.894 183.917Z" fill="#0C0C0C"/>
<path d="M298.449 213.067C298.586 213.067 298.718 213.015 298.819 212.922C298.92 212.829 298.982 212.702 298.993 212.566L300.476 194.265C300.482 194.194 300.474 194.122 300.452 194.054C300.43 193.986 300.395 193.922 300.348 193.868C300.302 193.813 300.245 193.768 300.181 193.736C300.117 193.703 300.048 193.683 299.976 193.678C299.905 193.672 299.833 193.68 299.764 193.702C299.696 193.724 299.633 193.759 299.578 193.806C299.524 193.852 299.479 193.909 299.446 193.972C299.413 194.036 299.393 194.106 299.388 194.177L297.904 212.478C297.898 212.549 297.907 212.621 297.929 212.689C297.951 212.757 297.986 212.82 298.032 212.875C298.079 212.93 298.136 212.974 298.199 213.007C298.263 213.04 298.333 213.06 298.404 213.065C298.42 213.067 298.434 213.067 298.449 213.067Z" fill="#292A2E"/>
<path d="M142.588 360.187C142.588 360.187 123.76 357.56 117.122 373.733C110.483 389.907 98.5352 381.831 98.5352 381.831L120.141 318.737L151.714 329.515L142.588 360.187Z" fill="#15803D"/>
<path d="M361.742 278.559C346.615 266.48 330.256 267.297 280.841 267.763C263.041 267.908 184.06 267.817 143.732 268.007C131.422 268.065 111.903 268.463 101.468 269.272C75.1802 271.31 67.7824 275.96 65.7763 284.374C65.1338 287.068 47.3988 307.871 170.193 322.731H254.537C368.649 317.775 373.405 287.874 361.742 278.559Z" fill="#262626"/>
<path d="M117.457 277.643C141.466 273.119 231.28 293.359 231.28 293.359C231.28 293.359 325.568 270.103 341.265 275.359C373.47 286.14 217.357 330.977 217.357 330.977C217.357 330.977 89.6264 282.886 117.457 277.643Z" fill="#0A0A0A"/>
<path d="M134.258 327.097L137.088 362.397C137.088 362.397 298.856 342.079 345.852 335.109C356.697 333.501 378.56 323.852 371.9 297.96C366.065 275.279 361.626 271.299 322.493 276.88C287.761 281.835 134.258 327.097 134.258 327.097Z" fill="#262626"/>
<path d="M135.951 345.304L137.088 362.397L217.504 352.733L135.951 345.304Z" fill="#0A0A0A"/>
<path d="M288.603 356.835C288.603 356.835 307.239 352.54 315.328 368.162C323.416 383.783 334.674 374.633 334.674 374.633L307.423 313.31L276.734 326.903L288.603 356.835Z" fill="#15803D"/>
<path d="M297.84 315.074L292.636 362.353C292.636 362.353 122.342 349.063 76.9322 335.109C66.4541 331.89 49.6448 322.727 55.8463 296.722C61.1436 274.51 74.4515 269.746 109.181 274.699C143.911 279.652 297.84 315.074 297.84 315.074Z" fill="#262626"/>
<path d="M137.315 227.485L158.226 220.168L155.224 219.96C154.256 219.874 153.357 219.424 152.709 218.702C152.061 217.979 151.711 217.038 151.731 216.068C151.759 215.568 151.888 215.079 152.112 214.63C152.335 214.181 152.647 213.783 153.03 213.459C153.413 213.134 153.857 212.892 154.337 212.745C154.817 212.598 155.322 212.55 155.821 212.605L192.816 216.53L191.855 228.399C191.556 232.085 190.162 235.599 187.85 238.489C185.538 241.379 182.414 243.514 178.879 244.619L162.858 249.602C162.03 249.877 161.133 249.858 160.318 249.548C159.503 249.239 158.82 248.658 158.385 247.903C158.006 247.214 157.858 246.422 157.963 245.642C158.067 244.863 158.419 244.138 158.965 243.572C158.93 243.547 158.9 243.515 158.877 243.478C158.855 243.441 158.84 243.399 158.834 243.357C158.828 243.314 158.831 243.27 158.842 243.228C158.854 243.186 158.874 243.147 158.901 243.113L155.947 244.037C155.026 244.346 154.022 244.295 153.138 243.893C152.254 243.491 151.555 242.769 151.184 241.873C150.88 241.06 150.874 240.166 151.165 239.349C151.456 238.532 152.026 237.843 152.775 237.404C152.741 237.387 152.71 237.363 152.684 237.335L151.471 237.715C150.643 237.99 149.746 237.971 148.931 237.661C148.116 237.352 147.433 236.771 146.998 236.016C146.538 235.179 146.421 234.198 146.67 233.277C146.92 232.356 147.518 231.567 148.338 231.077C148.331 231.052 148.327 231.027 148.326 231.002L139.618 234.05C138.749 234.342 137.801 234.28 136.978 233.878C136.154 233.477 135.523 232.767 135.22 231.904C134.916 231.041 134.966 230.093 135.358 229.266C135.75 228.439 136.453 227.8 137.313 227.487L137.315 227.485Z" fill="#E98862"/>
<path opacity="0.2" d="M148.67 231.341C148.71 231.341 148.75 231.334 148.788 231.32L157.212 228.262C157.256 228.248 157.297 228.225 157.332 228.195C157.367 228.164 157.396 228.127 157.417 228.085C157.437 228.043 157.449 227.998 157.451 227.951C157.454 227.905 157.447 227.858 157.431 227.814C157.415 227.771 157.39 227.731 157.358 227.697C157.327 227.663 157.288 227.635 157.246 227.616C157.203 227.597 157.157 227.587 157.11 227.587C157.064 227.586 157.017 227.594 156.974 227.612L148.551 230.67C148.475 230.698 148.411 230.752 148.37 230.822C148.33 230.893 148.315 230.975 148.329 231.055C148.344 231.135 148.385 231.207 148.448 231.26C148.51 231.312 148.588 231.341 148.67 231.341Z" fill="#0A0A0A"/>
<path opacity="0.2" d="M152.928 237.455C152.968 237.456 153.007 237.449 153.044 237.435L159.684 235.083C159.728 235.069 159.769 235.047 159.804 235.016C159.84 234.986 159.869 234.949 159.889 234.907C159.91 234.866 159.922 234.821 159.925 234.774C159.928 234.728 159.921 234.681 159.906 234.638C159.89 234.594 159.866 234.554 159.834 234.519C159.803 234.485 159.765 234.458 159.723 234.438C159.68 234.419 159.634 234.408 159.588 234.407C159.541 234.406 159.495 234.414 159.452 234.431L152.813 236.783C152.736 236.81 152.671 236.864 152.629 236.934C152.588 237.005 152.573 237.087 152.587 237.168C152.601 237.248 152.643 237.321 152.705 237.374C152.768 237.426 152.847 237.455 152.928 237.455Z" fill="#0A0A0A"/>
<path opacity="0.2" d="M159.18 243.659C159.223 243.659 159.265 243.651 159.304 243.636L162.413 242.452C162.497 242.418 162.563 242.352 162.599 242.269C162.635 242.187 162.636 242.093 162.604 242.009C162.572 241.925 162.509 241.857 162.427 241.819C162.345 241.781 162.252 241.776 162.166 241.805L159.057 242.989C158.981 243.018 158.918 243.073 158.878 243.143C158.839 243.214 158.825 243.296 158.84 243.375C158.854 243.455 158.897 243.527 158.959 243.579C159.021 243.631 159.099 243.659 159.18 243.659Z" fill="#0A0A0A"/>
<path d="M177.316 253.323L306.965 274.782C310.962 275.216 315.006 274.72 318.778 273.332C322.551 271.944 325.95 269.702 328.709 266.783C331.468 263.863 333.512 260.345 334.68 256.504C335.848 252.663 336.109 248.605 335.442 244.646L308.246 136.765C307.679 133.401 306.454 130.181 304.641 127.289C302.828 124.397 300.461 121.891 297.678 119.912C292.056 115.916 285.074 114.313 278.268 115.456C271.462 116.599 265.39 120.395 261.387 126.007C257.385 131.62 255.779 138.59 256.924 145.385L277.676 219.758L183.468 206.91L177.316 253.323Z" fill="#15803D"/>
<path d="M294.575 222.177C294.663 222.176 294.746 222.143 294.81 222.083C294.874 222.024 294.913 221.943 294.919 221.856C294.926 221.769 294.899 221.683 294.845 221.615C294.791 221.547 294.713 221.501 294.627 221.488L278.467 219.071C278.422 219.063 278.376 219.065 278.331 219.076C278.287 219.086 278.245 219.106 278.208 219.133C278.171 219.16 278.14 219.194 278.117 219.234C278.093 219.273 278.078 219.317 278.072 219.362C278.059 219.453 278.082 219.545 278.136 219.619C278.191 219.693 278.273 219.742 278.364 219.755L294.523 222.171C294.541 222.174 294.558 222.176 294.575 222.177Z" fill="#0C0C0C"/>
<path d="M303.356 275.28C303.401 275.283 303.447 275.277 303.49 275.263C303.534 275.248 303.573 275.225 303.608 275.195C303.642 275.165 303.67 275.128 303.69 275.087C303.71 275.047 303.722 275.002 303.725 274.957C303.728 274.911 303.722 274.865 303.708 274.822C303.693 274.779 303.67 274.739 303.64 274.705C303.61 274.671 303.573 274.643 303.532 274.623C303.491 274.603 303.446 274.591 303.401 274.588L178.043 253.061L184.12 207.338L277.676 219.759C277.73 219.766 277.785 219.76 277.836 219.743C277.887 219.725 277.934 219.695 277.972 219.656C278.009 219.617 278.037 219.57 278.053 219.518C278.07 219.466 278.073 219.411 278.064 219.358L267.94 175.754C267.933 175.709 267.917 175.666 267.893 175.627C267.869 175.588 267.838 175.554 267.8 175.528C267.763 175.501 267.721 175.482 267.676 175.472C267.632 175.462 267.585 175.461 267.54 175.47C267.495 175.477 267.452 175.494 267.414 175.518C267.375 175.542 267.341 175.573 267.315 175.611C267.289 175.648 267.27 175.69 267.26 175.734C267.249 175.778 267.248 175.824 267.256 175.869L277.302 219.01L183.859 206.601C183.813 206.595 183.766 206.598 183.722 206.61C183.677 206.621 183.635 206.642 183.598 206.67C183.562 206.699 183.532 206.735 183.51 206.775C183.487 206.816 183.473 206.86 183.468 206.906L177.317 253.321C177.307 253.411 177.333 253.501 177.389 253.573C177.445 253.644 177.526 253.69 177.616 253.702L303.311 275.276C303.326 275.278 303.341 275.28 303.356 275.28Z" fill="#0C0C0C"/>
<path d="M182.253 264.128L152.519 172.879C151.997 171.275 150.979 169.878 149.612 168.887C148.246 167.896 146.6 167.362 144.911 167.362H23.7749C22.5118 167.362 21.2666 167.66 20.1411 168.233C19.0157 168.806 18.0421 169.636 17.2999 170.656C16.5578 171.677 16.0682 172.858 15.8713 174.104C15.6743 175.349 15.7756 176.624 16.1669 177.823L45.9003 269.069C46.4229 270.673 47.4404 272.07 48.807 273.061C50.1736 274.052 51.8193 274.585 53.5083 274.586H174.645C175.908 274.586 177.153 274.287 178.278 273.715C179.403 273.142 180.376 272.312 181.118 271.292C181.86 270.272 182.35 269.091 182.547 267.846C182.744 266.601 182.643 265.326 182.253 264.128Z" fill="#292A2E"/>
<path d="M239.087 267.186H157.998C155.978 267.186 154.34 268.821 154.34 270.838V270.933C154.34 272.95 155.978 274.585 157.998 274.585H239.087C241.108 274.585 242.746 272.95 242.746 270.933V270.838C242.746 268.821 241.108 267.186 239.087 267.186Z" fill="#292A2E"/>
<path d="M238.759 266.626H151.634C149.433 266.626 147.648 268.408 147.648 270.606V270.606C147.648 272.804 149.433 274.586 151.634 274.586H238.759C240.96 274.586 242.745 272.804 242.745 270.606V270.606C242.745 268.408 240.96 266.626 238.759 266.626Z" fill="white"/>
<path d="M238.759 275.278H151.635C150.404 275.263 149.228 274.765 148.363 273.89C147.497 273.015 147.012 271.835 147.012 270.606C147.012 269.377 147.497 268.197 148.363 267.322C149.228 266.447 150.404 265.949 151.635 265.934H238.759C239.991 265.949 241.166 266.447 242.032 267.322C242.897 268.197 243.383 269.377 243.383 270.606C243.383 271.835 242.897 273.015 242.032 273.89C241.166 274.765 239.991 275.263 238.759 275.278ZM151.635 267.319C150.77 267.332 149.945 267.684 149.338 268.299C148.731 268.914 148.39 269.742 148.39 270.606C148.39 271.47 148.731 272.298 149.338 272.913C149.945 273.528 150.77 273.88 151.635 273.893H238.759C239.624 273.88 240.449 273.528 241.056 272.913C241.664 272.298 242.004 271.47 242.004 270.606C242.004 269.742 241.664 268.914 241.056 268.299C240.449 267.684 239.624 267.332 238.759 267.319H151.635Z" fill="#292A2E"/>
<path d="M182.253 264.128L152.519 172.879C151.997 171.275 150.979 169.878 149.612 168.887C148.246 167.896 146.6 167.362 144.911 167.362H23.7749C22.5118 167.362 21.2666 167.66 20.1411 168.233C19.0157 168.806 18.0421 169.636 17.2999 170.656C16.5578 171.677 16.0682 172.858 15.8713 174.104C15.6743 175.349 15.7756 176.624 16.1669 177.823L45.9003 269.069C46.4229 270.673 47.4404 272.07 48.807 273.061C50.1736 274.052 51.8193 274.585 53.5083 274.586H174.645C175.908 274.586 177.153 274.287 178.278 273.715C179.403 273.142 180.376 272.312 181.118 271.292C181.86 270.272 182.35 269.091 182.547 267.846C182.744 266.601 182.643 265.326 182.253 264.128Z" fill="white"/>
<path d="M174.646 275.278H53.5088C51.6726 275.281 49.8828 274.703 48.3972 273.625C46.9115 272.548 45.8066 271.028 45.2415 269.284L15.5074 178.035C15.0835 176.732 14.9745 175.348 15.1891 173.995C15.4037 172.642 15.936 171.36 16.7424 170.252C17.5488 169.143 18.6063 168.242 19.8287 167.62C21.051 166.998 22.4034 166.674 23.7753 166.674H144.915C146.751 166.67 148.541 167.249 150.027 168.326C151.513 169.403 152.618 170.923 153.183 172.667L182.914 263.914C183.337 265.216 183.446 266.6 183.231 267.953C183.016 269.306 182.484 270.588 181.678 271.696C180.871 272.804 179.814 273.706 178.592 274.328C177.37 274.95 176.017 275.274 174.646 275.275V275.278ZM23.7753 168.056C22.6221 168.055 21.4851 168.328 20.4576 168.851C19.43 169.373 18.5409 170.131 17.8632 171.063C17.1855 171.995 16.7383 173.073 16.5582 174.21C16.3781 175.348 16.4703 176.511 16.8272 177.606L46.5613 268.855C47.0357 270.321 47.9641 271.599 49.2127 272.504C50.4613 273.41 51.9656 273.896 53.5088 273.893H174.646C175.799 273.893 176.936 273.62 177.963 273.097C178.99 272.575 179.879 271.816 180.557 270.885C181.234 269.953 181.682 268.875 181.862 267.738C182.042 266.601 181.95 265.437 181.593 264.342L151.86 173.093C151.385 171.627 150.457 170.35 149.209 169.445C147.961 168.54 146.458 168.053 144.915 168.056H23.7753Z" fill="#292A2E"/>
<path d="M96.0212 234.86C103.038 234.86 108.726 229.182 108.726 222.177C108.726 215.171 103.038 209.493 96.0212 209.493C89.0045 209.493 83.3164 215.171 83.3164 222.177C83.3164 229.182 89.0045 234.86 96.0212 234.86Z" fill="white"/>
<path d="M96.0218 235.553C93.3717 235.553 90.7812 234.769 88.5778 233.299C86.3744 231.829 84.657 229.74 83.6429 227.295C82.6288 224.851 82.3635 222.161 82.8806 219.567C83.3976 216.972 84.6738 214.588 86.5477 212.718C88.4216 210.847 90.8091 209.573 93.4082 209.057C96.0074 208.541 98.7015 208.806 101.15 209.818C103.598 210.831 105.691 212.546 107.163 214.745C108.635 216.945 109.421 219.532 109.421 222.177C109.416 225.724 108.003 229.123 105.491 231.631C102.98 234.139 99.574 235.549 96.0218 235.553ZM96.0218 210.185C93.6463 210.185 91.3241 210.889 89.349 212.206C87.3738 213.524 85.8343 215.397 84.9252 217.588C84.0161 219.779 83.7782 222.19 84.2416 224.516C84.705 226.842 85.8489 228.978 87.5286 230.655C89.2082 232.332 91.3483 233.474 93.6782 233.937C96.008 234.4 98.423 234.163 100.618 233.255C102.812 232.348 104.688 230.811 106.008 228.839C107.328 226.867 108.033 224.549 108.033 222.177C108.029 218.998 106.763 215.95 104.511 213.702C102.259 211.454 99.2063 210.189 96.0218 210.185Z" fill="#292A2E"/>
</svg>
