<svg xmlns="http://www.w3.org/2000/svg" enable-background="new 0 0 850 850" viewBox="0 0 850 850"><path fill="#e8505b" d="M511.66,272.38H272.29c-4.13,0-7.48,3.35-7.48,7.48v104.07h254.33V279.86
							C519.14,275.73,515.79,272.38,511.66,272.38z"/><path fill="#6b9aa5" d="M511.66,272.38H272.29c-4.13,0-7.48,3.35-7.48,7.48v104.07h254.33V279.86
							C519.14,275.73,515.79,272.38,511.66,272.38z"/><rect width="216.97" height="300.53" x="284.03" y="195.75" fill="#efeded"/><rect width="216.97" height="57.63" x="283.94" y="194.67" fill="#bec4c8"/><rect width="82.68" height="14.52" x="294.78" y="243.59" fill="#f77283"/><rect width="193.84" height="20.85" x="294.78" y="315.9" fill="#fafafa"/><rect width="193.84" height="20.85" x="294.78" y="336.72" fill="#bec4c8"/><path fill="#fff" d="M303.62,248.49h0.37v3.81h-0.37V248.49z"/><path fill="#fff" d="M307.5,250.64v1.66h-0.36v-1.62c0-0.61-0.29-0.92-0.79-0.92c-0.57,0-0.92,0.38-0.92,1.03v1.5h-0.36v-2.87
							h0.34v0.53c0.19-0.35,0.55-0.55,1-0.55C307.05,249.42,307.5,249.82,307.5,250.64z"/><path fill="#fff" d="M310.64,249.44l-1.17,2.87h-0.37l-1.17-2.87h0.37l0.99,2.44l1-2.44H310.64z"/><path fill="#fff" d="M310.8,250.87c0-0.85,0.57-1.45,1.35-1.45c0.77,0,1.34,0.6,1.34,1.45c0,0.85-0.57,1.46-1.34,1.46
							C311.37,252.33,310.8,251.72,310.8,250.87z M313.12,250.87c0-0.67-0.42-1.12-0.98-1.12s-0.98,0.45-0.98,1.12
							c0,0.67,0.42,1.12,0.98,1.12S313.12,251.54,313.12,250.87z"/><path fill="#fff" d="M314.13,248.53c0-0.15,0.12-0.27,0.26-0.27c0.15,0,0.26,0.12,0.26,0.27c0,0.16-0.11,0.28-0.26,0.28
							C314.25,248.81,314.13,248.69,314.13,248.53z M314.21,249.44h0.36v2.87h-0.36V249.44z"/><path fill="#fff" d="M315.3,250.87c0-0.86,0.57-1.45,1.36-1.45c0.45,0,0.82,0.19,1.03,0.57l-0.27,0.2
							c-0.18-0.29-0.46-0.42-0.77-0.42c-0.58,0-1,0.45-1,1.12c0,0.68,0.42,1.12,1,1.12c0.31,0,0.59-0.13,0.77-0.42l0.27,0.2
							c-0.21,0.37-0.59,0.57-1.03,0.57C315.87,252.33,315.3,251.73,315.3,250.87z"/><path fill="#fff" d="M320.65,250.99h-2.21c0.04,0.6,0.46,1,1.04,1c0.32,0,0.61-0.13,0.81-0.38l0.2,0.25
							c-0.24,0.31-0.6,0.47-1.02,0.47c-0.82,0-1.39-0.61-1.39-1.46c0-0.85,0.55-1.45,1.29-1.45s1.28,0.59,1.28,1.45
							C320.65,250.91,320.65,250.95,320.65,250.99z M318.44,250.7h1.87c-0.05-0.56-0.42-0.95-0.94-0.95
							C318.86,249.75,318.49,250.14,318.44,250.7z"/><path fill="#fff" d="M326.12,249.83l-0.13,1.14h0.71v0.3h-0.75l-0.12,1.04h-0.27l0.12-1.04h-1.03l-0.12,1.04h-0.27l0.12-1.04
							h-0.71v-0.3h0.75l0.13-1.14h-0.72v-0.3h0.75l0.12-1.03h0.28l-0.12,1.03h1.03l0.12-1.03h0.27l-0.12,1.03h0.71v0.3H326.12z
							 M325.85,249.83h-1.03l-0.14,1.14h1.03L325.85,249.83z"/><path fill="#fff" d="M329.6,251.21c0,0.64-0.43,1.13-1.28,1.13c-0.51,0-0.99-0.19-1.27-0.49l0.18-0.31
							c0.23,0.26,0.63,0.44,1.09,0.44c0.58,0,0.9-0.29,0.9-0.77c0-0.46-0.3-0.76-0.95-0.76h-0.25v-0.29l0.97-1.32h-1.8v-0.35h2.26
							v0.28l-0.99,1.36C329.23,250.17,329.6,250.6,329.6,251.21z"/><path fill="#fff" d="M333.1,251.3h-0.7v1h-0.36v-1h-1.98v-0.28l1.86-2.53h0.4l-1.8,2.46h1.53v-0.88h0.35v0.88h0.7V251.3z"/><path fill="#fff" d="M335.8,251.18c0,0.65-0.42,1.16-1.28,1.16c-0.51,0-0.99-0.19-1.26-0.49l0.18-0.31
							c0.23,0.26,0.63,0.44,1.08,0.44c0.6,0,0.91-0.32,0.91-0.78c0-0.49-0.28-0.8-1.18-0.8h-0.75l0.18-1.91h1.92v0.35h-1.61
							l-0.12,1.22h0.45C335.4,250.06,335.8,250.51,335.8,251.18z"/><path fill="#fff" d="M338.9,251.17c0,0.71-0.52,1.17-1.2,1.17c-0.93,0-1.44-0.7-1.44-1.91c0-1.3,0.65-1.97,1.61-1.97
							c0.32,0,0.61,0.06,0.83,0.21l-0.15,0.32c-0.18-0.13-0.42-0.18-0.68-0.18c-0.76,0-1.25,0.53-1.25,1.56
							c0,0.09,0.01,0.2,0.02,0.31c0.18-0.42,0.59-0.65,1.08-0.65C338.41,250.02,338.9,250.47,338.9,251.17z M338.54,251.18
							c0-0.5-0.34-0.82-0.88-0.82c-0.54,0-0.9,0.36-0.9,0.83c0,0.42,0.32,0.82,0.93,0.82C338.19,252.01,338.54,251.68,338.54,251.18
							z"/><path fill="#fff" d="M341.72,251.96v0.35h-2.47v-0.28l1.46-1.55c0.4-0.43,0.47-0.68,0.47-0.94c0-0.44-0.29-0.71-0.82-0.71
							c-0.41,0-0.73,0.14-0.96,0.43l-0.26-0.24c0.27-0.35,0.71-0.54,1.25-0.54c0.71,0,1.17,0.39,1.17,1.03
							c0,0.37-0.11,0.69-0.58,1.19l-1.2,1.27H341.72z"/><path fill="#fff" d="M415.91,218.05h2.1v12.25h-2.1V218.05z"/><path fill="#fff" d="M431.09,218.05v12.25h-1.73l-6.23-8.3v8.3h-2.08v-12.25h1.72l6.23,8.3v-8.3H431.09z"/><path fill="#fff" d="M444.37,218.05l-4.92,12.25h-2.06l-4.94-12.25h2.27l3.76,9.45l3.79-9.45H444.37z"/><path fill="#fff" d="M444.65,224.18c0-3.62,2.58-6.3,6.08-6.3s6.08,2.66,6.08,6.3c0,3.64-2.58,6.3-6.08,6.3
							S444.65,227.8,444.65,224.18z M454.7,224.18c0-2.5-1.69-4.31-3.97-4.31c-2.27,0-3.97,1.8-3.97,4.31c0,2.5,1.69,4.31,3.97,4.31
							C453.01,228.48,454.7,226.68,454.7,224.18z"/><path fill="#fff" d="M459.05,218.05h2.1v12.25h-2.1V218.05z"/><path fill="#fff" d="M463.39,224.18c0-3.66,2.58-6.3,6.05-6.3c1.84,0,3.42,0.72,4.47,2.05l-1.36,1.38
							c-0.82-0.96-1.84-1.44-3.02-1.44c-2.34,0-4.03,1.79-4.03,4.31c0,2.52,1.69,4.31,4.03,4.31c1.18,0,2.19-0.47,3.02-1.45
							l1.36,1.4c-1.05,1.33-2.63,2.05-4.49,2.05C465.97,230.48,463.39,227.84,463.39,224.18z"/><path fill="#fff" d="M484.4,228.4v1.91h-8.47v-12.25h8.24v1.91h-6.15v3.19h5.45v1.87h-5.45v3.38H484.4z"/><g><path fill="#bec4c8" d="M456.35,269.47c0,0.19-1.52,0.35-3.39,0.35c-1.88,0-3.39-0.16-3.39-0.35c0-0.19,1.52-0.35,3.39-0.35
									C454.83,269.11,456.35,269.27,456.35,269.47z"/><path fill="#bec4c8" d="M457.54,272.54c-0.17-0.07,0.2-1.56,0.83-3.34c0.63-1.77,1.27-3.15,1.44-3.08
									c0.17,0.07-0.2,1.56-0.83,3.34C458.35,271.23,457.71,272.61,457.54,272.54z"/><path fill="#bec4c8" d="M466.27,269.47c0,0.19-1.13,0.35-2.52,0.35c-1.39,0-2.52-0.16-2.52-0.35c0-0.19,1.13-0.35,2.52-0.35
									C465.14,269.11,466.27,269.27,466.27,269.47z"/><path fill="#bec4c8" d="M468.35,271.79c-0.17-0.07,0.11-1.35,0.63-2.87c0.51-1.52,1.07-2.7,1.24-2.63
									c0.17,0.07-0.11,1.35-0.63,2.87C469.07,270.68,468.51,271.86,468.35,271.79z"/><path fill="#bec4c8" d="M481.07,269.47c0,0.19-2.26,0.35-5.05,0.35c-2.79,0-5.05-0.16-5.05-0.35c0-0.19,2.26-0.35,5.05-0.35
									C478.81,269.11,481.07,269.27,481.07,269.47z"/></g><g><rect width="193.84" height="14.52" x="294.78" y="301.38" fill="#f77283"/></g><g><path fill="#fff" d="M353.11,327.42c0,0.19-9.32,0.35-20.81,0.35c-11.49,0-20.81-0.16-20.81-0.35
								c0-0.19,9.31-0.35,20.81-0.35C343.8,327.07,353.11,327.23,353.11,327.42z"/></g><g><path fill="#fff" d="M421.18,327.9c0,0.19-4.06,0.35-9.08,0.35c-5.01,0-9.08-0.16-9.08-0.35c0-0.19,4.06-0.35,9.08-0.35
								C417.12,327.55,421.18,327.71,421.18,327.9z"/></g><g><path fill="#fff" d="M446.72,326.7c0,0.19-0.89,0.35-1.99,0.35c-1.1,0-1.99-0.16-1.99-0.35c0-0.19,0.89-0.35,1.99-0.35
								C445.83,326.35,446.72,326.51,446.72,326.7z"/></g><g><path fill="#fff" d="M481.47,327.18c0,0.19-3.62,0.35-8.08,0.35c-4.46,0-8.08-0.16-8.08-0.35s3.62-0.35,8.08-0.35
								C477.85,326.83,481.47,326.99,481.47,327.18z"/></g><g><path fill="#fff" d="M374.58,347.6c0,0.19-14.12,0.35-31.54,0.35c-17.42,0-31.55-0.16-31.55-0.35
								c0-0.19,14.12-0.35,31.55-0.35C360.46,347.25,374.58,347.4,374.58,347.6z"/></g><g><path fill="#fff" d="M417.86,347.84c0,0.19-3.32,0.35-7.42,0.35c-4.1,0-7.42-0.16-7.42-0.35c0-0.19,3.32-0.35,7.42-0.35
								C414.54,347.49,417.86,347.64,417.86,347.84z"/></g><g><path fill="#fff" d="M447.6,347.6c0,0.19-1.29,0.35-2.88,0.35c-1.59,0-2.88-0.16-2.88-0.35c0-0.19,1.29-0.35,2.88-0.35
								C446.32,347.25,447.6,347.4,447.6,347.6z"/></g><g><path fill="#fff" d="M479.26,347.12c0,0.19-3.47,0.35-7.75,0.35c-4.28,0-7.75-0.16-7.75-0.35c0-0.19,3.47-0.35,7.75-0.35
								C475.79,346.77,479.26,346.92,479.26,347.12z"/></g><g><rect width="91.33" height="12.92" x="396.74" y="388.56" fill="#e8505b"/><path fill="#bec4c8" d="M468.04,370.32c0,0.19-4.86,0.35-10.86,0.35c-6,0-10.86-0.16-10.86-0.35s4.86-0.35,10.86-0.35
									C463.18,369.97,468.04,370.12,468.04,370.32z"/><path fill="#bec4c8" d="M468.04,378.98c0,0.19-4.86,0.35-10.86,0.35c-6,0-10.86-0.16-10.86-0.35c0-0.19,4.86-0.35,10.86-0.35
									C463.18,378.63,468.04,378.79,468.04,378.98z"/><path fill="#bec4c8" d="M427.71,378.98c0,0.19-4.86,0.35-10.86,0.35c-6,0-10.86-0.16-10.86-0.35c0-0.19,4.86-0.35,10.86-0.35
									C422.85,378.63,427.71,378.79,427.71,378.98z"/><path fill="#bec4c8" d="M427.71,369.88c0,0.19-7.25,0.35-16.19,0.35c-8.95,0-16.19-0.16-16.19-0.35s7.25-0.35,16.19-0.35
									C420.46,369.53,427.71,369.69,427.71,369.88z"/><path fill="#fff" d="M468.04,395.67c0,0.19-4.86,0.35-10.86,0.35c-6,0-10.86-0.16-10.86-0.35c0-0.19,4.86-0.35,10.86-0.35
									C463.18,395.32,468.04,395.48,468.04,395.67z"/><path fill="#fff" d="M428.91,395.67c0,0.19-4.86,0.35-10.86,0.35c-6,0-10.86-0.16-10.86-0.35c0-0.19,4.86-0.35,10.86-0.35
									C424.05,395.32,428.91,395.48,428.91,395.67z"/></g><g><path fill="#f77283" d="M304.26,222.59L304.26,222.59c-1.73,0-3.13-1.4-3.13-3.13v-0.53c0-1.73,1.4-3.13,3.13-3.13h0
									c1.73,0,3.13,1.4,3.13,3.13v0.53C307.38,221.18,305.98,222.59,304.26,222.59z"/><path fill="#f77283" d="M302.53,224.01v0.09c0,0.22,0.16,0.39,0.36,0.39h6.01v-6.76c0-0.22-0.16-0.39-0.36-0.39l0,0
									c-0.2,0-0.36,0.18-0.36,0.39v5.83l-5.28,0.05C302.69,223.62,302.53,223.79,302.53,224.01z"/><path fill="#f77283" d="M347.76,218.14c0,0.19-8.04,0.35-17.96,0.35c-9.92,0-17.96-0.16-17.96-0.35
									c0-0.19,8.04-0.35,17.96-0.35C339.72,217.79,347.76,217.95,347.76,218.14z"/><g><path fill="#f77283" d="M331.1,221.88c0,0.19-4.21,0.35-9.39,0.35c-5.19,0-9.4-0.16-9.4-0.35c0-0.19,4.21-0.35,9.4-0.35
									C326.9,221.53,331.1,221.69,331.1,221.88z"/></g></g><g><path fill="#bec4c8" d="M391.71,277.22c0,0.19-11.61,0.35-25.92,0.35c-14.32,0-25.93-0.16-25.93-0.35
										c0-0.19,11.61-0.35,25.93-0.35C380.1,276.86,391.71,277.02,391.71,277.22z"/><path fill="#bec4c8" d="M391.71,282.6c0,0.19-11.61,0.35-25.92,0.35c-14.32,0-25.93-0.16-25.93-0.35
										c0-0.19,11.61-0.35,25.93-0.35C380.1,282.25,391.71,282.41,391.71,282.6z"/><path fill="#bec4c8" d="M359.24,287.99c0,0.19-4.34,0.35-9.69,0.35c-5.35,0-9.69-0.16-9.69-0.35c0-0.19,4.34-0.35,9.69-0.35
										C354.9,287.64,359.24,287.8,359.24,287.99z"/><g><path fill="#bec4c8" d="M392.51,271.43c0,0.19-21.82,0.35-48.74,0.35c-26.92,0-48.74-0.16-48.74-0.35
									c0-0.19,21.82-0.35,48.74-0.35C370.69,271.08,392.51,271.24,392.51,271.43z"/></g></g><g><path fill="#fff" d="M354.31,308.64c0,0.19-9.73,0.35-21.74,0.35c-12.01,0-21.74-0.16-21.74-0.35
								c0-0.19,9.73-0.35,21.74-0.35C344.58,308.29,354.31,308.45,354.31,308.64z"/></g><g><path fill="#fff" d="M421.95,308.64c0,0.19-5.15,0.35-11.5,0.35c-6.35,0-11.5-0.16-11.5-0.35c0-0.19,5.15-0.35,11.5-0.35
								C416.8,308.29,421.95,308.45,421.95,308.64z"/></g><g><path fill="#fff" d="M454.86,308.64c0,0.19-3.82,0.35-8.53,0.35c-4.71,0-8.53-0.16-8.53-0.35c0-0.19,3.82-0.35,8.53-0.35
								C451.04,308.29,454.86,308.45,454.86,308.64z"/></g><g><path fill="#fff" d="M483.32,308.64c0,0.19-3.82,0.35-8.53,0.35c-4.71,0-8.53-0.16-8.53-0.35c0-0.19,3.82-0.35,8.53-0.35
								C479.5,308.29,483.32,308.45,483.32,308.64z"/></g><g><path fill="#6b9aa5" d="M155.7,630.03V397.2c0-7.9,5.9-14.3,13.18-14.3H610c7.28,0,13.18,6.4,13.18,14.3v232.82H155.7z"/></g><g><ellipse cx="468.06" cy="437.72" fill="#4d727c" rx="20.66" ry="22.42"/><path fill="#4d727c" d="M493.3,437.72c-0.13,0.01,0.04-2.44-0.93-6.65c-0.45-2.11-1.38-4.59-2.82-7.23
								c-1.45-2.62-3.55-5.36-6.39-7.68c-2.83-2.3-6.4-4.25-10.52-5.04c-4.09-0.76-8.7-0.61-13.09,1.2
								c-2.21,0.83-4.34,2.09-6.3,3.69c-1.01,0.75-1.9,1.7-2.82,2.61c-0.84,1.01-1.72,1.99-2.44,3.13
								c-3.06,4.42-4.79,10.11-4.84,15.96c0.05,5.86,1.77,11.55,4.84,15.97c0.72,1.14,1.6,2.13,2.44,3.13
								c0.93,0.91,1.81,1.85,2.82,2.61c1.96,1.59,4.09,2.85,6.3,3.69c4.39,1.81,9.01,1.96,13.09,1.2c4.12-0.79,7.69-2.74,10.52-5.04
								c2.84-2.32,4.93-5.06,6.39-7.68c1.44-2.63,2.36-5.12,2.82-7.23C493.35,440.16,493.17,437.7,493.3,437.72
								c0.01,0,0.02,0.15,0.02,0.44c-0.01,0.34-0.01,0.77-0.02,1.31c0,0.58-0.03,1.29-0.16,2.12c-0.1,0.83-0.2,1.8-0.48,2.86
								c-0.42,2.14-1.31,4.68-2.74,7.38c-1.44,2.69-3.54,5.5-6.42,7.9c-2.87,2.37-6.51,4.4-10.72,5.24
								c-4.18,0.81-8.92,0.68-13.44-1.16c-2.27-0.85-4.47-2.13-6.49-3.76c-1.04-0.77-1.96-1.74-2.91-2.67
								c-0.86-1.03-1.77-2.04-2.51-3.22c-3.16-4.54-4.95-10.4-4.99-16.43c0.05-6.03,1.84-11.88,4.99-16.42
								c0.74-1.17,1.65-2.18,2.51-3.22c0.95-0.93,1.87-1.9,2.91-2.67c2.02-1.63,4.21-2.92,6.49-3.76c4.52-1.84,9.25-1.96,13.43-1.16
								c4.21,0.83,7.85,2.86,10.72,5.24c2.88,2.4,4.98,5.21,6.42,7.9c1.43,2.7,2.32,5.24,2.74,7.38c0.28,1.06,0.38,2.02,0.48,2.86
								c0.13,0.83,0.16,1.54,0.16,2.12c0.01,0.54,0.02,0.97,0.02,1.31C493.32,437.57,493.32,437.72,493.3,437.72z"/></g><g><path fill="#fff" d="M621.82,486.32c0,0.19-104.34,0.35-233.02,0.35c-128.73,0-233.05-0.16-233.05-0.35
							c0-0.19,104.32-0.35,233.05-0.35C517.48,485.97,621.82,486.12,621.82,486.32z"/></g><g><polygon fill="#4d727c" points="512.89 325.18 512.89 345.08 500.86 345.08 500.86 382.91 500.86 386.11 531.22 386.11 531.22 325.18"/></g><g><polygon fill="#4d727c" points="271.95 345.08 271.95 325.18 253.62 325.18 253.62 383.21 283.98 383.21 283.98 382.91 283.98 345.08"/></g><g><rect width="270.72" height="54.75" x="253.5" y="520.01" fill="#4d727c"/></g><g><path fill="#fff" d="M407.17,487.01c-0.18,0-0.32-23.21-0.32-51.84c0-28.64,0.15-51.85,0.32-51.85
							c0.18,0,0.32,23.21,0.32,51.85C407.5,463.8,407.35,487.01,407.17,487.01z"/></g><g><path fill="#fff" d="M229.71,484.73c-0.18,0-0.32-22.79-0.32-50.89c0-28.11,0.15-50.9,0.32-50.9c0.18,0,0.32,22.78,0.32,50.9
							C230.03,461.95,229.89,484.73,229.71,484.73z"/></g><g><path fill="#fafafa" d="M462.44,430.25c0.04,0.05-0.46,0.46-1.15,1.41c-0.68,0.94-1.56,2.47-1.87,4.58
									c-0.31,2.08,0,4.78,1.52,7.07c0.75,1.13,1.77,2.15,3,2.87c1.24,0.7,2.67,1.12,4.15,1.12c1.48-0.02,2.92-0.43,4.15-1.15
									c1.22-0.74,2.24-1.75,2.98-2.89c1.5-2.3,1.81-5,1.48-7.08c-0.33-2.11-1.21-3.64-1.9-4.57c-0.7-0.94-1.2-1.35-1.16-1.4
									c0.01-0.02,0.15,0.07,0.39,0.26c0.24,0.2,0.58,0.5,0.96,0.96c0.76,0.9,1.76,2.45,2.16,4.66c0.41,2.18,0.13,5.06-1.44,7.54
									c-0.78,1.23-1.86,2.33-3.17,3.13c-1.32,0.78-2.86,1.23-4.45,1.25c-1.59,0-3.14-0.45-4.46-1.22
									c-1.31-0.79-2.4-1.89-3.18-3.11c-1.6-2.47-1.88-5.35-1.49-7.53c0.39-2.22,1.37-3.77,2.13-4.68
									c0.38-0.46,0.72-0.77,0.96-0.97C462.29,430.32,462.42,430.23,462.44,430.25z"/><path fill="#fafafa" d="M468.05,424.77c0.18,0,0.32,3.61,0.32,8.05c0,4.45-0.15,8.05-0.32,8.05c-0.18,0-0.32-3.6-0.32-8.05
									C467.72,428.37,467.87,424.77,468.05,424.77z"/></g><g><path fill="#fff" d="M358.16,462.94h-79.44c-2.11,0-3.82-1.71-3.82-3.82v-40.64c0-2.11,1.71-3.82,3.82-3.82h79.44
							c2.11,0,3.82,1.71,3.82,3.82v40.64C361.99,461.22,360.28,462.94,358.16,462.94z"/><polygon fill="#436870" points="316.49 427.25 315.33 425.99 314.14 427.28 314.14 437.67 315.39 439.02 316.56 437.75"/><polygon fill="#436870" points="316.49 440.71 315.33 439.46 314.14 440.74 314.14 451.13 315.39 452.49 316.56 451.21"/><polygon fill="#436870" points="328.97 440.71 327.81 439.46 326.62 440.74 326.62 451.13 327.87 452.49 329.04 451.21"/><polygon fill="#436870" points="329.05 427.25 327.89 425.99 326.7 427.28 326.7 437.67 327.95 439.02 329.12 437.75"/><polygon fill="#436870" points="316.67 424.49 315.51 425.75 316.7 427.04 326.27 427.04 327.52 425.69 326.34 424.41"/><polygon fill="#436870" points="316.67 451.51 315.51 452.77 316.7 454.06 326.27 454.06 327.52 452.7 326.34 451.43"/><polygon fill="#436870" points="316.67 438.02 315.51 439.28 316.7 440.57 326.27 440.57 327.52 439.21 326.34 437.94"/><g><polygon fill="#436870" points="339.01 427.03 337.85 425.77 336.67 427.06 336.67 437.45 337.91 438.8 339.09 437.53"/><polygon fill="#436870" points="339.01 440.49 337.85 439.23 336.67 440.52 336.67 450.91 337.91 452.27 339.09 450.99"/><polygon fill="#436870" points="351.5 440.49 350.34 439.23 349.15 440.52 349.15 450.91 350.4 452.27 351.57 450.99"/><polygon fill="#436870" points="351.57 427.03 350.41 425.77 349.23 427.06 349.23 437.45 350.47 438.8 351.65 437.53"/><polygon fill="#436870" points="339.2 424.27 338.04 425.53 339.22 426.82 348.8 426.82 350.04 425.47 348.87 424.19"/><polygon fill="#436870" points="339.2 451.29 338.04 452.55 339.22 453.83 348.8 453.83 350.04 452.48 348.87 451.21"/><polygon fill="#436870" points="339.2 437.8 338.04 439.06 339.22 440.34 348.8 440.34 350.04 438.99 348.87 437.72"/></g><g><path fill="#4d727c" d="M362.54,466.7c0-0.02,0.25-0.01,0.72-0.12c0.46-0.12,1.16-0.41,1.77-1.19
								c0.3-0.38,0.55-0.89,0.68-1.49c0.14-0.6,0.06-1.3,0.08-2.04c-0.01-1.5-0.02-3.23-0.03-5.17c-0.02-7.81-0.06-19.07-0.1-32.98
								c0-1.74-0.01-3.52-0.01-5.34c0-0.91,0-1.83-0.01-2.76c0.04-0.9-0.22-1.76-0.76-2.43c-0.53-0.67-1.31-1.1-2.14-1.15
								c-0.89,0-1.78,0-2.69-0.01c-1.82,0-3.67,0.01-5.56,0.01c-7.54,0.01-15.6,0.02-24.09,0.03c-16.97,0.01-35.61,0.02-55.19,0.03
								c-1.11-0.01-2.19,0.7-2.68,1.77c-0.26,0.54-0.36,1.11-0.34,1.75l0,1.97c0,2.62,0,5.23,0,7.82c0,5.17,0,10.27-0.01,15.28
								c0,5.01-0.01,9.93-0.01,14.75c0,2.41,0,4.79-0.01,7.15c-0.08,1.16,0.24,2.21,0.99,2.94c0.36,0.36,0.8,0.62,1.27,0.76
								c0.46,0.15,0.96,0.11,1.51,0.12c16.96,0.03,32.24,0.05,45.07,0.08c12.81,0.05,23.19,0.09,30.39,0.11
								c3.57,0.03,6.35,0.05,8.26,0.07c0.93,0.02,1.64,0.03,2.15,0.03C362.29,466.68,362.54,466.7,362.54,466.7
								s-0.25,0.02-0.73,0.04c-0.51,0.01-1.22,0.02-2.15,0.03c-1.91,0.02-4.69,0.04-8.26,0.07c-7.2,0.03-17.58,0.06-30.39,0.11
								c-12.84,0.02-28.11,0.05-45.07,0.08c-0.51-0.01-1.09,0.04-1.66-0.14c-0.56-0.16-1.09-0.47-1.52-0.9
								c-0.89-0.83-1.29-2.24-1.19-3.42c0-2.36,0-4.74-0.01-7.15c0-4.82-0.01-9.74-0.01-14.75c0-5.01,0-10.11,0-15.28
								c0-2.59,0-5.19,0-7.82l0-1.97c-0.02-0.67,0.1-1.44,0.41-2.07c0.6-1.3,1.91-2.17,3.26-2.15c19.57,0.01,38.22,0.02,55.19,0.03
								c8.48,0.01,16.54,0.02,24.09,0.03c1.89,0,3.74,0.01,5.56,0.01c0.92,0.01,1.8-0.01,2.72,0.02c0.96,0.06,1.87,0.57,2.48,1.35
								c0.62,0.76,0.91,1.82,0.87,2.78c0,0.93,0,1.85-0.01,2.76c0,1.82-0.01,3.6-0.01,5.34c-0.04,13.9-0.08,25.16-0.1,32.98
								c-0.01,1.94-0.02,3.67-0.03,5.17c-0.02,0.74,0.05,1.45-0.11,2.09c-0.15,0.63-0.42,1.15-0.74,1.54
								c-0.65,0.79-1.38,1.07-1.85,1.17C362.79,466.74,362.54,466.7,362.54,466.7z"/></g></g><g><path fill="#fff" d="M623.18,520.01c0,0.19-104.5,0.35-233.37,0.35c-128.92,0-233.39-0.16-233.39-0.35
							s104.47-0.35,233.39-0.35C518.68,519.66,623.18,519.82,623.18,520.01z"/></g><g><rect width="295.27" height="12.68" x="237.3" y="604.66" fill="#4d727c"/></g><g><polygon fill="#fff" points="245.75 604.3 245.75 593.51 254.23 593.51 245.75 587.62 245.75 574.76 524.22 574.76 524.22 589.71 518.15 592.9 524.22 592.97 524.22 604.52"/><polygon fill="#bec4c8" points="245.75 574.76 245.75 587.62 253.9 593.28 245.75 593.28 245.75 604.3 265.93 604.3 265.93 574.76"/><path fill="#bec4c8" d="M518.15,592.9c0,0.19-56.46,0.46-126.1,0.6c-69.66,0.14-126.11,0.09-126.11-0.1
								c0-0.19,56.45-0.46,126.11-0.6C461.68,592.66,518.15,592.71,518.15,592.9z"/><g><path fill="#bec4c8" d="M518.15,585.39c0,0.19-56.46,0.46-126.1,0.6c-69.66,0.14-126.11,0.09-126.11-0.1
								c0-0.19,56.45-0.46,126.11-0.6C461.68,585.15,518.15,585.19,518.15,585.39z"/></g></g><g><path fill="#ff8762" d="M683.94,640.02c-1.28-2.77-2.64-8.06-2.31-15.67c0.36-2.84,0.81-6.43,1.32-10.54
						c0.25-2.05,0.51-4.22,0.79-6.49l-12.55,3.65c0.21,2.45,0.42,4.75,0.6,6.85c0.39,4.48,0.27,9-0.47,13.43
						c-0.22,1.33-0.48,2.48-0.75,3.08c-1,2.19-8.2,9.78-11.5,16.31c-0.31,0.79-7.75,2.07-6.64,3.92c0.68,0.4,13.66,1.51,15.11-0.01
						c1.45-1.52,4.91-5.3,8.77-6.15c0.24,0.05,0.24,6.84,0.24,6.84l5.62,0.03c0,0,0.65-6.03,0.9-7.85
						C683.32,645.6,685.23,642.83,683.94,640.02z"/><path fill="#2b1710" d="M659.01,650.71c2.35,0.3,4.93,0.86,5.83,0.43c1.22-0.58,9.24-11.38,18.04-14.04
						c0.33,1.17,0.7,2.15,1.06,2.92c1.29,2.81-0.62,5.58-0.87,7.4c-0.25,1.82-0.9,7.85-0.9,7.85l-5.62-0.03c0,0,0-6.79-0.24-6.84
						c-3.87,0.85-7.32,4.63-8.77,6.15s-14.44,0.41-15.11,0.01C651.33,652.76,658.32,651.56,659.01,650.71z"/><path fill="#ff8762" d="M624.06,640.02c-1.28-2.77-2.64-8.06-2.31-15.67c0.36-2.84,0.81-6.43,1.32-10.54
						c0.25-2.05,0.51-4.22,0.79-6.49l-12.55,3.65c0.21,2.45,0.42,4.75,0.6,6.85c0.39,4.48,0.27,9-0.47,13.43
						c-0.22,1.33-0.48,2.48-0.75,3.08c-1,2.19-8.2,9.78-11.5,16.31c-0.31,0.79-7.75,2.07-6.64,3.92c0.68,0.4,13.66,1.51,15.11-0.01
						c1.45-1.52,4.91-5.3,8.77-6.15c0.24,0.05,0.24,6.84,0.24,6.84l5.62,0.03c0,0,0.65-6.03,0.9-7.85
						C623.44,645.6,625.35,642.83,624.06,640.02z"/><path fill="#2b1710" d="M599.13,650.71c2.35,0.3,4.93,0.86,5.83,0.43c1.22-0.58,9.24-11.38,18.05-14.04
						c0.33,1.17,0.7,2.15,1.06,2.92c1.29,2.81-0.62,5.58-0.87,7.4c-0.25,1.82-0.9,7.85-0.9,7.85l-5.62-0.03c0,0,0-6.79-0.24-6.84
						c-3.87,0.85-7.32,4.63-8.77,6.15c-1.45,1.52-14.44,0.41-15.11,0.01C591.45,652.76,598.44,651.56,599.13,650.71z"/><path fill="#bfbfbf" d="M606.49,627.58c-0.16,0-0.29-0.14-0.3-0.32c0-0.18,0.13-0.32,0.29-0.32l24.94-0.33
						c0.17-0.01,0.3,0.14,0.3,0.32c0,0.18-0.13,0.32-0.29,0.32L606.49,627.58C606.5,627.58,606.49,627.58,606.49,627.58z"/><path fill="#bfbfbf" d="M664.38,626.24c-0.16,0-0.29-0.14-0.29-0.31c0-0.18,0.13-0.32,0.29-0.33l28.33-0.67
						c0.17,0,0.3,0.14,0.3,0.31c0,0.18-0.13,0.32-0.29,0.33L664.38,626.24C664.39,626.24,664.39,626.24,664.38,626.24z"/><path fill="#235c66" d="M668.46,337.56c14.99,14.52,25.51,54.78,23.37,64.85c-2.14,10.07-24.44,9.49-36.75,0.77
					C642.77,394.47,668.46,337.56,668.46,337.56z"/><path fill="#19424c" d="M637.6,331.76c-5.98,1.74-9.28,5.81-9.28,5.81s-19.98,18.39-14.9,28.26c5.08,9.87,6.42,31.65,6.42,31.65
					l40.41,0.58c0-1.45,10.97-24.39,12.84-36c1.87-11.61-2.85-26.62-13.2-29.13C649.55,330.4,637.6,331.76,637.6,331.76z"/><rect width="41.03" height="7.74" x="619.05" y="397.57" fill="#192830"/><path fill="#ff8762" d="M631.27,289.17c-2.14,8.13,1.52,29.33,2.85,30.68s4.33,0.23,4.22,0.99c0.6,3.66,1.76,9.85-0.74,10.92
					c6.24,6.19,20.78,4.55,22.3,1.16c-6.33-6.78-8.74-20.13-8.74-26.42S643.84,287.04,631.27,289.17z"/><path fill="#192830" d="M652.67,280.94c-5.62,0.19-9.01-2.42-13.91-4.74c-4.91-2.32-10.79,1.94-10.97,5.71
					c-0.18,3.77,1.43,3.29,2.41,0.97c0.98-2.32,1.61-2.61,1.61-2.61c-1.43,2.42-4.37,8.52-0.89,10.94c3.48,2.42,4.82,1.94,4.82,1.94
					c-0.54,2.61,0.8,8.71,3.48,9.58c2.68,0.87,4.55,12.78,2.77,15.29c-1.78,2.52-10.08,7.16-5.8,14.91
					c-8.83,2.71,0.98,19.94,11.68,11.03c-1.52,2.61-3.3,2.13-3.03,3.39c0.27,1.26,13.56,3.58,17.39-2.52
					c6.87,3.58,22.03-7.84,10.35-17.91c1.78-9.29-4.01-11.42-5.53-13.65c-1.52-2.23-1.34-21.2-4.46-26.81
					C659.45,280.85,652.67,280.94,652.67,280.94z"/><ellipse cx="641.53" cy="307.5" fill="#ff8762" rx="3.41" ry="3.7"/><path fill="#235c66" d="M628.32,337.56c-11.6,4.65-23.55,31.75-29.79,31.36c-6.24-0.39-19.98-14.91-19.98-14.91l-5.89,6.97
					c0,10.07,9.1,44.72,26.58,47.43c17.48,2.71,34.64-25.79,37.46-42.59C640.45,343.56,628.32,337.56,628.32,337.56z"/><rect width="2.88" height="9.15" x="623.06" y="397.04" fill="#192830"/><rect width="2.88" height="9.15" x="644.38" y="397.23" fill="#192830"/><rect width="2.88" height="9.15" x="655.97" y="396.94" fill="#192830"/><path fill="#ff8762" d="M578.55,354.02c0.02-1.55,0.29-11.35,0.02-12.51c-0.27-1.16-5.75-10.24-6.42-10.89
					c-0.67-0.65-6.22-4.57-6.42-4.57c-1.47,1.23-0.94,2.98,0.33,4.72c1.27,1.74,3.14,3.77,3.21,4.14c0.07,0.36,0.67,2.54,0.27,2.61
					c-0.4,0.07-3.75,4.07-4.62,5.44c-0.87,1.38-1.07,3.92-0.13,6.32c0.94,2.4,7.87,11.71,7.87,11.71L578.55,354.02z"/><path fill="#192830" d="M607.63,450.73c0,0,0.32-14.91,11.42-45.41l41-0.06c10.71,17.35,16.14,38.11,18.12,58.87l16.12,168.84
					h-32.56c0,0-12.78-54.66-16.94-121.46c0,0-14.93,84.85-12.16,122.1h-29.1C600.76,617.55,595.39,503.18,607.63,450.73z"/><g><path fill="#d9d9d9" d="M662.94,627.98C662.94,627.98,662.94,627.98,662.94,627.98l29.02-0.28c0.18,0,0.32-0.16,0.32-0.36
						c0-0.2-0.12-0.38-0.33-0.35l-29.02,0.28c-0.18,0-0.32,0.16-0.32,0.36C662.61,627.83,662.76,627.98,662.94,627.98z"/></g><g><path fill="#d9d9d9" d="M631.12,628.12c0.18,0,0.32-0.16,0.33-0.35c0-0.2-0.14-0.35-0.32-0.36l-26.09-0.28c0,0,0,0,0,0
						c-0.18,0-0.32,0.16-0.33,0.35c0,0.2,0.14,0.35,0.32,0.36L631.12,628.12C631.12,628.12,631.12,628.12,631.12,628.12z"/></g></g></svg>