<svg xmlns="http://www.w3.org/2000/svg" enable-background="new 0 0 850 850" viewBox="0 0 850 850"><path fill="#e8505b" d="M447.41,385.24H211.56c-17.91,0-32.43,14.52-32.43,32.43v138.14c0,17.91,14.52,32.43,32.43,32.43h235.85
					c17.91,0,32.43-14.52,32.43-32.43V417.67C479.84,399.76,465.32,385.24,447.41,385.24z"/><rect width="264.21" height="163.25" x="197.38" y="405.12" fill="#fff"/><rect width="264.21" height="12.78" x="197.38" y="555.59" fill="#c93d4e"/><rect width="50.92" height="43.41" x="304.02" y="577.82" fill="#e8505b"/><g><path fill="#e8505b" d="M388.04,642.54H270.93c0-14.82,11.07-26.84,24.73-26.84h67.65C376.96,615.71,388.04,627.72,388.04,642.54z"/></g><g><rect width="196.39" height="322.02" x="231.29" y="207.16" fill="#efeded"/><rect width="170.21" height="44.02" x="244.38" y="219.09" fill="#4d727c"/><rect width="59.65" height="78.14" x="244.38" y="281.35" fill="#bec4c8"/><rect width="94.52" height="12.89" x="320.06" y="346.6" fill="#bec4c8"/><rect width="94.52" height="12.89" x="320.06" y="324.85" fill="#bec4c8"/><rect width="94.52" height="12.89" x="320.06" y="303.1" fill="#bec4c8"/><rect width="94.52" height="12.89" x="320.06" y="281.35" fill="#bec4c8"/><rect width="113.84" height="19.88" x="274.2" y="385.24" fill="#4d727c"/><rect width="133.84" height="86.82" x="264.2" y="416.32" fill="#bec4c8"/></g><g><path fill="#eea886" d="M639.51,338.75c0.58-2.44,0.84-5.17,1.18-7.88c0.35-2.72-0.23-4.21,1.38-6.32
				c2.96-3.87,11.53-11,12.47-10.15s-0.11,4.56-0.92,5.3c-0.95,0.86-2.15,1.31-3.32,1.73c2.26,0.11,4.33-1.24,6.35-2.36
				c4.07-2.27,8.88-2.92,13.33-1.81c5.37,11.06-14.82,15.03-18.15,17.28c-2.81,1.9-3.34,5.84-6.59,6.54
				C644.34,341.27,640.36,339.09,639.51,338.75z"/><path fill="#eea886" d="M483.38,279.71c-0.74-2.18-1.21-4.66-1.76-7.12c-0.55-2.46-0.14-3.89-1.81-5.67
				c-3.05-3.26-8.74-5.32-13.02-5.45c0.6,0.84,1.18,1.56,1.99,2.16c0.95,0.69,2.09,0.98,3.2,1.26c-2.07,0.33-4.09-0.7-6.03-1.53
				c-3.93-1.67-8.41-1.79-12.41-0.32c3.06,2.36,5.43,5.45,8.15,8.25c2.63,2.71,6.75,4.06,10.01,5.79c2.75,1.46,3.57,5.03,6.62,5.34
				C479.16,282.51,482.62,280.1,483.38,279.71z"/><path fill="#19424c" d="M489.68,333.97c0.01,0,1.15,2.17,1.16,2.17c9.37,1.85,19.97,1.49,33.3,0.45c15.48-1.21,29.8-4.69,33.4-7.4
				c3.34-2.51,3.81-8.21,3.81-8.21c0.95-3.12-3.75-12.34-13.2-15.06c-7.45-2.14-36.5,6.83-47.76,9.09
				C485.55,317.79,484.13,331.99,489.68,333.97z"/><path fill="#19424c" d="M504.37,320.52l-22.08-44.69c-4.52-0.86-5.96-0.83-10.66,2.47c0,0,2.57,14.48,6.05,29.17
				c3.3,13.89,7.29,28,14.9,29.23c0.17,0.03,0.33,0.06,0.5,0.08C501.45,338.16,507.87,328.89,504.37,320.52z"/><path fill="#cc5065" d="M521.02,618.12c0,0-8.22,10.55-12.98,12.16c-4.75,1.6-16.19,1.97-15.45,11.73
					c2.16,1.83,40.2,0.27,46.32-1.16c1.36-0.32,2.28-1.75,2.14-3.3c-0.65-7.24-0.52-14.11-1.84-19.61L521.02,618.12z"/><path fill="#cc5065" d="M576.56,618.1c0,0-8.22,10.55-12.98,12.16c-4.75,1.6-16.19,1.97-15.45,11.73
					c2.16,1.83,41.21,0.05,47.32-1.37c1.36-0.32,1.61-1.82,1.47-3.37c-0.65-7.24-0.85-13.83-2.18-19.32L576.56,618.1z"/><path fill="#192830" d="M530.55,407.48c-8.23,16.89-14.32,215.29-13.01,214.66c8.09,3.27,15.53,2.13,21.59-2.83
				c0,0,28.1-167.44,29.6-172.72c3.82-13.41,4.37-28.65,4.37-28.65L530.55,407.48z"/><path fill="#192830" d="M591.19,408.25c14.82,35.01,5.93,214.42,4.82,214.39c-8.2,2.93-15.58,2.91-21.46-2.3
				c0,0-20.54-159.3-23.88-172.86c-3.34-13.56-5.62-32.82-5.62-32.82L591.19,408.25z"/><path fill="#eea886" d="M570.54,274.36c0,0-4.24,16.71-0.43,23.6c3.8,6.89,10.59,11.36,10.59,11.36s-21.62,18.77-32.24,3.19
					c2.85-6.45,1.78-20.9,1.78-20.9L570.54,274.36z"/><path fill="#eea886" d="M549.53,308.94c8.27-6.2,15.17-14.88,19.29-24.67c0.56-5.34,1.72-9.91,1.72-9.91l-20.3,17.24
					C550.24,291.6,551,301.86,549.53,308.94z" opacity=".3"/><path fill="#eea886" d="M539.9,262.72c-1.32,4.85-1.58,9.08-1.67,15.23c-0.1,6.15,2.47,14.87,3.91,16.47
					c3.13,3.48,7.59,3.1,8.97,2.88c4.46-0.71,10.89-5.79,14.45-11.18c3.56-5.39,5.93-16.98,4.82-23.86
					c-1.11-6.89-12.99-16.37-22.31-10.7C541.28,255.7,540.91,259.02,539.9,262.72z"/><path fill="#19424c" d="M590.14,346.01c-3.98,16.28-2.18,24.01-1.94,31.73c0.57,17.92,6.3,39.65,6.3,39.65s-15.22,18.24-68.57,5.73
				c-2.05-6.86,4.4-21.51,5.46-41.27c0.94-17.33,1.16-39.13,0.89-45.28c-0.57-13.16,5.57-30.32,5.57-30.32
				c3.89-1.65,8.7-2.48,12.42-2.96c0,0,0.14,2.77,0.59,4.38c1.12,3.92,4.83,4.05,9.9,2.52c8.83-2.66,8.85-13.76,8.88-13.71
				c10.14,4.1,22.74,10.51,24.64,12.11C596.21,310.2,594.14,329.74,590.14,346.01z"/><path fill="#19424c" d="M604.19,387.24c-6.9-7.11-9.6-21.16-14.32-34.72c-5.48-15.76-7.66-31.47-6.91-36.14
				c0.7-4.34,4.37-7.06,4.37-7.06c2.21-2.24,8.86-2.26,15.09,5.91c4.91,6.44,12.62,39.6,15.45,51.64
				C623.94,384.88,610.98,394.24,604.19,387.24z"/><path fill="#19424c" d="M602.95,369.05c5.59-5.65,12.01-11.86,18.24-18.09c7.89-7.89,18.22-22,18.22-22
				c4.54,0.69,8.59,3.38,12.12,8.09c0,0-5.02,9.4-12.82,22.1c-9.59,15.64-20.66,31.96-29.58,30.41c-0.17-0.03-0.33-0.06-0.5-0.09
				C600.27,387.98,597.04,375.02,602.95,369.05z"/><g><path fill="#192830" d="M539.56,263.8c1,0.93,2.47,1.26,3.78,1.09c1.31-0.17,2.5-0.88,3.65-1.58c0.81-0.49,1.63-0.99,2.44-1.48
				c0.73-0.44,1.48-0.9,2.31-1.04c1.15-0.2,2.32,0.21,3.41,0.66c0.79,0.33,1.59,0.69,2.2,1.33c0.94,0.99,1.27,2.47,2.04,3.6
				c0.75,1.09,1.9,1.82,3.12,2.17c1.21,0.36,2.5,0.37,3.75,0.24c0.66,1.41,0.66,3.06,0.4,4.62c-0.26,1.56-0.72,3.08-0.85,4.66
				c-0.04,0.56-0.01,1.2,0.37,1.58c0.3,0.29,0.73,0.35,1.13,0.31c1.66-0.16,2.92-1.61,3.99-2.99c1.42-1.84,2.81-3.8,3.43-6.11
				c0.23-0.85,0.35-1.73,0.41-2.61c0.48-6.36-2.04-13.11-6.94-16.63c-4.3-3.09-9.03-4.34-14.16-3.79c-2.47,0.27-5.81,1.67-7.73,3.38
				c-1.21,1.07-2.09,2.57-3.42,3.46c-1.08,0.72-2.25,1.34-3.15,2.33c-0.82,0.91-1.28,1.91-1.4,3.17
				C538.22,261.54,538.59,262.9,539.56,263.8z"/></g><g><path fill="#eea886" d="M568.15,277.5c0.65-1.56,1.72-3.25,3.22-3.9c0.32-0.14,0.66-0.23,1.01-0.23
					c1.22,0.01,2.21,1.21,2.41,2.47c0.2,1.26-0.24,2.54-0.81,3.66c-1.71,3.36-4.44,8.45-8.5,6.43
					C564.84,284.68,567.66,278.68,568.15,277.5z"/><path fill="#eea886" d="M569.02,278.5c0.38-0.91,1-1.89,1.87-2.27c0.19-0.08,0.39-0.13,0.59-0.13c0.71,0.01,1.29,0.7,1.4,1.43
					c0.11,0.73-0.14,1.47-0.47,2.13c-0.99,1.95-2.58,4.91-4.94,3.74C567.84,282.48,568.73,279.19,569.02,278.5z" opacity=".3"/></g></g></svg>