<svg xmlns="http://www.w3.org/2000/svg" xmlns:xlink="http://www.w3.org/1999/xlink" viewBox="0 0 1080 1080" width="1080" height="1080" preserveAspectRatio="xMidYMid meet" style="width: 100%; height: 100%; transform: translate3d(0px, 0px, 0px); content-visibility: visible;"><defs><clipPath id="__lottie_element_5279"><rect width="1080" height="1080" x="0" y="0"></rect></clipPath></defs><g clip-path="url(#__lottie_element_5279)"><g transform="matrix(1,0,0,1,516.0760498046875,433.5179748535156)" opacity="1" style="display: block;"><g opacity="1" transform="matrix(1,0,0,1,196.18499755859375,240.46400451660156)"><path fill="rgb(0,152,78)" fill-opacity="1" d=" M-196.18499755859375,-240.46400451660156 C-196.18499755859375,-240.46400451660156 -196.18499755859375,36.96200180053711 -196.18499755859375,36.96200180053711 C-196.18499755859375,36.96200180053711 0.9629999995231628,36.96200180053711 0.9629999995231628,36.96200180053711 C0.9629999995231628,36.96200180053711 106.78500366210938,240.46400451660156 106.78500366210938,240.46400451660156 C106.78500366210938,240.46400451660156 106.78500366210938,36.96200180053711 106.78500366210938,36.96200180053711 C106.78500366210938,36.96200180053711 196.18499755859375,36.96200180053711 196.18499755859375,36.96200180053711 C196.18499755859375,36.96200180053711 196.18499755859375,-240.46400451660156 196.18499755859375,-240.46400451660156 C196.18499755859375,-240.46400451660156 -196.18499755859375,-240.46400451660156 -196.18499755859375,-240.46400451660156z"></path></g></g><g transform="matrix(1,0,0,1,485.9010009765625,403.343017578125)" opacity="1" style="display: block;"><g opacity="1" transform="matrix(1,0,0,1,196.43499755859375,240.71499633789062)"><path fill="rgb(216,223,46)" fill-opacity="1" d=" M106.78500366210938,240.46400451660156 C106.78500366210938,240.46400451660156 0.9629999995231628,36.9630012512207 0.9629999995231628,36.9630012512207 C0.9629999995231628,36.9630012512207 -196.18499755859375,36.9630012512207 -196.18499755859375,36.9630012512207 C-196.18499755859375,36.9630012512207 -196.18499755859375,-240.46400451660156 -196.18499755859375,-240.46400451660156 C-196.18499755859375,-240.46400451660156 196.18499755859375,-240.46400451660156 196.18499755859375,-240.46400451660156 C196.18499755859375,-240.46400451660156 196.18499755859375,36.9630012512207 196.18499755859375,36.9630012512207 C196.18499755859375,36.9630012512207 106.78500366210938,36.9630012512207 106.78500366210938,36.9630012512207 C106.78500366210938,36.9630012512207 106.78500366210938,240.46400451660156 106.78500366210938,240.46400451660156z"></path></g></g><g transform="matrix(1,0,0,1,536.6710205078125,592.1990356445312)" opacity="1" style="display: block;"><g opacity="1" transform="matrix(1,0,0,1,145.76699829101562,14.440999984741211)"><path fill="rgb(65,182,83)" fill-opacity="1" d=" M131.3260040283203,14.1899995803833 C131.3260040283203,14.1899995803833 -131.32699584960938,14.1899995803833 -131.32699584960938,14.1899995803833 C-139.16400146484375,14.1899995803833 -145.51800537109375,7.836999893188477 -145.51800537109375,0.0010000000474974513 C-145.51800537109375,-7.836999893188477 -139.16400146484375,-14.1899995803833 -131.32699584960938,-14.1899995803833 C-131.32699584960938,-14.1899995803833 131.3260040283203,-14.1899995803833 131.3260040283203,-14.1899995803833 C139.16299438476562,-14.1899995803833 145.51699829101562,-7.836999893188477 145.51699829101562,0.0010000000474974513 C145.51699829101562,7.836999893188477 139.16299438476562,14.1899995803833 131.3260040283203,14.1899995803833z"></path></g></g><g transform="matrix(1,0,0,1,536.6710205078125,522.5)" opacity="1" style="display: block;"><g opacity="1" transform="matrix(1,0,0,1,145.76699829101562,14.4399995803833)"><path fill="rgb(65,182,83)" fill-opacity="1" d=" M131.3260040283203,14.1899995803833 C131.3260040283203,14.1899995803833 -131.32699584960938,14.1899995803833 -131.32699584960938,14.1899995803833 C-139.16400146484375,14.1899995803833 -145.51800537109375,7.836999893188477 -145.51800537109375,0.0010000000474974513 C-145.51800537109375,-7.836999893188477 -139.16400146484375,-14.1899995803833 -131.32699584960938,-14.1899995803833 C-131.32699584960938,-14.1899995803833 131.3260040283203,-14.1899995803833 131.3260040283203,-14.1899995803833 C139.16299438476562,-14.1899995803833 145.51699829101562,-7.836999893188477 145.51699829101562,0.0010000000474974513 C145.51699829101562,7.836999893188477 139.16299438476562,14.1899995803833 131.3260040283203,14.1899995803833z"></path></g></g><g transform="matrix(1,0,0,1,536.6710205078125,457.7560119628906)" opacity="1" style="display: block;"><g opacity="1" transform="matrix(1,0,0,1,145.76699829101562,14.440999984741211)"><path fill="rgb(65,182,83)" fill-opacity="1" d=" M131.3260040283203,14.1899995803833 C131.3260040283203,14.1899995803833 -131.32699584960938,14.1899995803833 -131.32699584960938,14.1899995803833 C-139.16400146484375,14.1899995803833 -145.51800537109375,7.8379998207092285 -145.51800537109375,0.0010000000474974513 C-145.51800537109375,-7.836999893188477 -139.16400146484375,-14.1899995803833 -131.32699584960938,-14.1899995803833 C-131.32699584960938,-14.1899995803833 131.3260040283203,-14.1899995803833 131.3260040283203,-14.1899995803833 C139.16299438476562,-14.1899995803833 145.51699829101562,-7.836999893188477 145.51699829101562,0.0010000000474974513 C145.51699829101562,7.8379998207092285 139.16299438476562,14.1899995803833 131.3260040283203,14.1899995803833z"></path></g></g><g transform="matrix(1,0,0,1,298.1619873046875,342.6609802246094)" opacity="1" style="display: block;"><g opacity="1" transform="matrix(1,0,0,1,196.18600463867188,240.46499633789062)"><path fill="rgb(0,152,78)" fill-opacity="1" d=" M-196.18499755859375,-240.46400451660156 C-196.18499755859375,-240.46400451660156 -196.18499755859375,36.9630012512207 -196.18499755859375,36.9630012512207 C-196.18499755859375,36.9630012512207 -106.78399658203125,36.9630012512207 -106.78399658203125,36.9630012512207 C-106.78399658203125,36.9630012512207 -106.78399658203125,240.46499633789062 -106.78399658203125,240.46499633789062 C-106.78399658203125,240.46499633789062 -0.9629999995231628,36.9630012512207 -0.9629999995231628,36.9630012512207 C-0.9629999995231628,36.9630012512207 196.18600463867188,36.9630012512207 196.18600463867188,36.9630012512207 C196.18600463867188,36.9630012512207 196.18600463867188,-240.46400451660156 196.18600463867188,-240.46400451660156 C196.18600463867188,-240.46400451660156 -196.18499755859375,-240.46400451660156 -196.18499755859375,-240.46400451660156z"></path></g></g><g transform="matrix(1,0,0,1,267.9880065917969,312.48602294921875)" opacity="1" style="display: block;"><g opacity="1" transform="matrix(1,0,0,1,196.43499755859375,240.71400451660156)"><path fill="rgb(231,232,233)" fill-opacity="1" d=" M-106.78500366210938,36.9630012512207 C-106.78500366210938,36.9630012512207 -196.18499755859375,36.9630012512207 -196.18499755859375,36.9630012512207 C-196.18499755859375,36.9630012512207 -196.18499755859375,-240.46400451660156 -196.18499755859375,-240.46400451660156 C-196.18499755859375,-240.46400451660156 196.18499755859375,-240.46400451660156 196.18499755859375,-240.46400451660156 C196.18499755859375,-240.46400451660156 196.18499755859375,36.9630012512207 196.18499755859375,36.9630012512207 C196.18499755859375,36.9630012512207 -0.9629999995231628,36.9630012512207 -0.9629999995231628,36.9630012512207 C-0.9629999995231628,36.9630012512207 -106.78500366210938,240.46400451660156 -106.78500366210938,240.46400451660156 C-106.78500366210938,240.46400451660156 -106.78500366210938,36.9630012512207 -106.78500366210938,36.9630012512207z"></path></g></g><g transform="matrix(0.822478711605072,0,0,1,318.598388671875,501.343017578125)" opacity="1" style="display: block;"><g opacity="1" transform="matrix(1,0,0,1,145.76699829101562,14.4399995803833)"><path fill="rgb(65,182,83)" fill-opacity="1" d=" M-131.32699584960938,14.1899995803833 C-131.32699584960938,14.1899995803833 131.32699584960938,14.1899995803833 131.32699584960938,14.1899995803833 C139.16400146484375,14.1899995803833 145.51800537109375,7.836999893188477 145.51800537109375,0.0010000000474974513 C145.51800537109375,-7.836999893188477 139.16400146484375,-14.1899995803833 131.32699584960938,-14.1899995803833 C131.32699584960938,-14.1899995803833 -131.32699584960938,-14.1899995803833 -131.32699584960938,-14.1899995803833 C-139.16400146484375,-14.1899995803833 -145.51699829101562,-7.836999893188477 -145.51699829101562,0.0010000000474974513 C-145.51699829101562,7.836999893188477 -139.16400146484375,14.1899995803833 -131.32699584960938,14.1899995803833z"></path></g></g><g transform="matrix(0.9696217179298401,0,0,1,318.5616149902344,431.64300537109375)" opacity="1" style="display: block;"><g opacity="1" transform="matrix(1,0,0,1,145.76699829101562,14.4399995803833)"><path fill="rgb(65,182,83)" fill-opacity="1" d=" M-131.32699584960938,14.1899995803833 C-131.32699584960938,14.1899995803833 131.32699584960938,14.1899995803833 131.32699584960938,14.1899995803833 C139.16400146484375,14.1899995803833 145.51800537109375,7.836999893188477 145.51800537109375,0 C145.51800537109375,-7.836999893188477 139.16400146484375,-14.1899995803833 131.32699584960938,-14.1899995803833 C131.32699584960938,-14.1899995803833 -131.32699584960938,-14.1899995803833 -131.32699584960938,-14.1899995803833 C-139.16400146484375,-14.1899995803833 -145.51699829101562,-7.836999893188477 -145.51699829101562,0 C-145.51699829101562,7.836999893188477 -139.16400146484375,14.1899995803833 -131.32699584960938,14.1899995803833z"></path></g></g><g transform="matrix(1,0,0,1,318.55401611328125,366.8990173339844)" opacity="1" style="display: block;"><g opacity="1" transform="matrix(1,0,0,1,145.76699829101562,14.440999984741211)"><path fill="rgb(65,182,83)" fill-opacity="1" d=" M-131.32699584960938,14.1899995803833 C-131.32699584960938,14.1899995803833 131.32699584960938,14.1899995803833 131.32699584960938,14.1899995803833 C139.16400146484375,14.1899995803833 145.51800537109375,7.836999893188477 145.51800537109375,0 C145.51800537109375,-7.836999893188477 139.16400146484375,-14.1899995803833 131.32699584960938,-14.1899995803833 C131.32699584960938,-14.1899995803833 -131.32699584960938,-14.1899995803833 -131.32699584960938,-14.1899995803833 C-139.16400146484375,-14.1899995803833 -145.51699829101562,-7.836999893188477 -145.51699829101562,0 C-145.51699829101562,7.836999893188477 -139.16400146484375,14.1899995803833 -131.32699584960938,14.1899995803833z"></path></g></g><g transform="matrix(1,0,0,1,522.0719604492188,122.63299560546875)" opacity="1" style="display: block;"><g opacity="1" transform="matrix(1,0,0,1,187.4980010986328,105.55899810791016)"><path fill="rgb(0,111,66)" fill-opacity="1" d=" M137.48399353027344,79.2020034790039 C132.6929931640625,28.863000869750977 103.00800323486328,-14.949000358581543 58.08000183105469,-37.994998931884766 C23.08799934387207,-55.94499969482422 -16.799999237060547,-59.194000244140625 -54.23500061035156,-47.141998291015625 C-91.66999816894531,-35.090999603271484 -122.1719970703125,-9.184000015258789 -140.12100219726562,25.808000564575195 C-140.12100219726562,25.808000564575195 -162.30999755859375,14.427000045776367 -162.30999755859375,14.427000045776367 C-151.70399475097656,-6.25 -137.36099243164062,-24.233999252319336 -119.6780014038086,-39.02799987792969 C-102.60399627685547,-53.31399917602539 -83.15699768066406,-64.02999877929688 -61.875999450683594,-70.88099670410156 C-40.59600067138672,-77.73100280761719 -18.549999237060547,-80.37200164794922 3.6519999504089355,-78.7300033569336 C26.643999099731445,-77.02999877929688 48.7859992980957,-70.79000091552734 69.46199798583984,-60.183998107910156 C95.63999938964844,-46.75600051879883 118.03399658203125,-26.77899932861328 134.2239990234375,-2.4140000343322754 C149.91000366210938,21.19300079345703 159.6219940185547,48.597999572753906 162.30999755859375,76.83899688720703 C162.30999755859375,76.83899688720703 137.48399353027344,79.2020034790039 137.48399353027344,79.2020034790039z"></path></g><g opacity="1" transform="matrix(1,0,0,1,336.072998046875,213.6840057373047)"><path fill="rgb(0,111,66)" fill-opacity="1" d=" M-61.518001556396484,-57.77199935913086 C-61.518001556396484,-57.77199935913086 -15.597999572753906,57.77199935913086 -15.597999572753906,57.77199935913086 C-15.597999572753906,57.77199935913086 61.518001556396484,-39.75899887084961 61.518001556396484,-39.75899887084961 C61.518001556396484,-39.75899887084961 -61.518001556396484,-57.77199935913086 -61.518001556396484,-57.77199935913086z"></path></g><g opacity="1" transform="matrix(1,0,0,1,162.55999755859375,80.03700256347656)"><path fill="rgb(145,200,72)" fill-opacity="1" d=" M137.48399353027344,79.78700256347656 C132.69200134277344,29.447999954223633 103.00800323486328,-14.36400032043457 58.08000183105469,-37.4109992980957 C23.08799934387207,-55.36000061035156 -16.801000595092773,-58.60900115966797 -54.236000061035156,-46.55799865722656 C-91.66999816894531,-34.50600051879883 -122.1719970703125,-8.598999977111816 -140.12100219726562,26.39299964904785 C-140.12100219726562,26.39299964904785 -162.30999755859375,15.01099967956543 -162.30999755859375,15.01099967956543 C-151.70399475097656,-5.664999961853027 -137.36099243164062,-23.649999618530273 -119.67900085449219,-38.44300079345703 C-102.60399627685547,-52.729000091552734 -83.15699768066406,-63.44499969482422 -61.87699890136719,-70.2959976196289 C-40.59600067138672,-77.14700317382812 -18.551000595092773,-79.78700256347656 3.6510000228881836,-78.14600372314453 C26.64299964904785,-76.44499969482422 48.7859992980957,-70.20500183105469 69.46199798583984,-59.5989990234375 C95.63899993896484,-46.17100143432617 118.03399658203125,-26.19499969482422 134.2239990234375,-1.8289999961853027 C149.91000366210938,21.777999877929688 159.6219940185547,49.18299865722656 162.30999755859375,77.42400360107422 C162.30999755859375,77.42400360107422 137.48399353027344,79.78700256347656 137.48399353027344,79.78700256347656z"></path></g><g opacity="1" transform="matrix(1,0,0,1,311.135986328125,188.74600219726562)"><path fill="rgb(145,200,72)" fill-opacity="1" d=" M-61.518001556396484,-57.77199935913086 C-61.518001556396484,-57.77199935913086 -15.597999572753906,57.77199935913086 -15.597999572753906,57.77199935913086 C-15.597999572753906,57.77199935913086 61.518001556396484,-39.75899887084961 61.518001556396484,-39.75899887084961 C61.518001556396484,-39.75899887084961 -61.518001556396484,-57.77199935913086 -61.518001556396484,-57.77199935913086z"></path></g></g><g transform="matrix(1,0,0,1,178.3009796142578,664.6339721679688)" opacity="1" style="display: block;"><g opacity="1" transform="matrix(1,0,0,1,235.28199768066406,191.08399963378906)"><path fill="rgb(0,111,66)" fill-opacity="1" d=" M9.11400032043457,79.2020034790039 C4.867000102996826,79.2020034790039 0.6119999885559082,79.04499816894531 -3.6519999504089355,78.72899627685547 C-26.643999099731445,77.02899932861328 -48.7859992980957,70.79000091552734 -69.46199798583984,60.18299865722656 C-95.63999938964844,46.75600051879883 -118.03399658203125,26.77899932861328 -134.2239990234375,2.4130001068115234 C-149.91000366210938,-21.194000244140625 -159.6219940185547,-48.5989990234375 -162.30999755859375,-76.83899688720703 C-162.30999755859375,-76.83899688720703 -137.48500061035156,-79.2020034790039 -137.48500061035156,-79.2020034790039 C-132.6929931640625,-28.86199951171875 -103.00900268554688,14.947999954223633 -58.08000183105469,37.994998931884766 C14.154999732971191,75.0469970703125 103.06700134277344,46.426998138427734 140.12100219726562,-25.808000564575195 C140.12100219726562,-25.808000564575195 162.30999755859375,-14.427000045776367 162.30999755859375,-14.427000045776367 C151.70399475097656,6.25 137.36099243164062,24.233999252319336 119.6780014038086,39.02799987792969 C102.60399627685547,53.3129997253418 83.15599822998047,64.02999877929688 61.87699890136719,70.87999725341797 C44.68199920654297,76.41500091552734 26.986000061035156,79.2020034790039 9.11400032043457,79.2020034790039z"></path></g><g opacity="1" transform="matrix(1,0,0,1,86.70600128173828,82.95899963378906)"><path fill="rgb(0,111,66)" fill-opacity="1" d=" M61.51900100708008,57.770999908447266 C61.51900100708008,57.770999908447266 15.597000122070312,-57.770999908447266 15.597000122070312,-57.770999908447266 C15.597000122070312,-57.770999908447266 -61.51900100708008,39.757999420166016 -61.51900100708008,39.757999420166016 C-61.51900100708008,39.757999420166016 61.51900100708008,57.770999908447266 61.51900100708008,57.770999908447266z"></path></g><g opacity="1" transform="matrix(1,0,0,1,210.343994140625,166.14599609375)"><path fill="rgb(145,200,72)" fill-opacity="1" d=" M9.11400032043457,79.2020034790039 C4.867000102996826,79.2020034790039 0.6119999885559082,79.04499816894531 -3.6519999504089355,78.72899627685547 C-26.643999099731445,77.02899932861328 -48.78499984741211,70.79100036621094 -69.46099853515625,60.183998107910156 C-95.63999938964844,46.75699996948242 -118.03399658203125,26.77899932861328 -134.2239990234375,2.4140000343322754 C-149.91000366210938,-21.19300079345703 -159.6219940185547,-48.597999572753906 -162.30999755859375,-76.83899688720703 C-162.30999755859375,-76.83899688720703 -137.48500061035156,-79.2020034790039 -137.48500061035156,-79.2020034790039 C-132.69200134277344,-28.863000869750977 -103.00800323486328,14.949000358581543 -58.08000183105469,37.99599838256836 C14.154999732971191,75.0479965209961 103.06800079345703,46.428001403808594 140.12100219726562,-25.808000564575195 C140.12100219726562,-25.808000564575195 162.30999755859375,-14.425999641418457 162.30999755859375,-14.425999641418457 C151.70399475097656,6.25 137.36099243164062,24.233999252319336 119.6780014038086,39.02899932861328 C102.60399627685547,53.3129997253418 83.15699768066406,64.02999877929688 61.87699890136719,70.88099670410156 C44.68299865722656,76.41500091552734 26.986000061035156,79.2020034790039 9.11400032043457,79.2020034790039z"></path></g><g opacity="1" transform="matrix(1,0,0,1,61.76900100708008,58.020999908447266)"><path fill="rgb(145,200,72)" fill-opacity="1" d=" M61.51900100708008,57.770999908447266 C61.51900100708008,57.770999908447266 15.598999977111816,-57.770999908447266 15.598999977111816,-57.770999908447266 C15.598999977111816,-57.770999908447266 -61.51900100708008,39.757999420166016 -61.51900100708008,39.757999420166016 C-61.51900100708008,39.757999420166016 61.51900100708008,57.770999908447266 61.51900100708008,57.770999908447266z"></path></g></g><g transform="matrix(1,0,0,1,896.8428955078125,454.0859375)" opacity="1" style="display: block;"><g opacity="1" transform="matrix(1,0,0,1,61.62200164794922,61.625)"><path fill="rgb(146,190,229)" fill-opacity="1" d=" M61.37200164794922,-0.0020000000949949026 C61.37200164794922,2.9800000190734863 61.15800094604492,5.913000106811523 60.74800109863281,8.781000137329102 C57.78099822998047,29.48900032043457 44.479000091552734,46.86000061035156 26.233999252319336,55.50400161743164 C18.27899932861328,59.27000045776367 9.38700008392334,61.375 0,61.375 C-33.895999908447266,61.375 -61.37200164794922,33.89799880981445 -61.37200164794922,-0.0020000000949949026 C-61.37200164794922,-33.891998291015625 -33.895999908447266,-61.375 0,-61.375 C33.89500045776367,-61.375 61.37200164794922,-33.891998291015625 61.37200164794922,-0.0020000000949949026z"></path></g><g opacity="1" transform="matrix(1,0,0,1,59.757999420166016,83.23200225830078)"><path fill="rgb(46,42,43)" fill-opacity="1" d=" M6.311999797821045,0.028999999165534973 C6.311999797821045,2.1630001068115234 5.718999862670898,3.74399995803833 4.533999919891357,4.770999908447266 C3.3489999771118164,5.798999786376953 1.6299999952316284,6.310999870300293 -0.621999979019165,6.310999870300293 C-2.438999891281128,6.310999870300293 -3.8429999351501465,5.73799991607666 -4.830999851226807,4.5920000076293945 C-5.817999839782715,3.447000026702881 -6.311999797821045,1.9249999523162842 -6.311999797821045,0.028999999165534973 C-6.311999797821045,-2.2230000495910645 -5.698999881744385,-3.8410000801086426 -4.473999977111816,-4.828999996185303 C-3.25,-5.816999912261963 -1.5509999990463257,-6.310999870300293 0.6230000257492065,-6.310999870300293 C2.5190000534057617,-6.310999870300293 3.940999984741211,-5.756999969482422 4.888999938964844,-4.6519999504089355 C5.836999893188477,-3.5450000762939453 6.311999797821045,-1.9859999418258667 6.311999797821045,0.028999999165534973z"></path></g><g opacity="1" transform="matrix(1,0,0,1,61.03200149536133,51.619998931884766)"><path fill="rgb(46,42,43)" fill-opacity="1" d=" M4.445000171661377,-25.503999710083008 C4.840000152587891,-25.503999710083008 5.175000190734863,-25.405000686645508 5.452000141143799,-25.20800018310547 C5.728000164031982,-25.009000778198242 5.867000102996826,-24.711999893188477 5.867000102996826,-24.319000244140625 C5.867000102996826,-24.319000244140625 5.867000102996826,-24.023000717163086 5.867000102996826,-24.023000717163086 C5.867000102996826,-24.023000717163086 1.3029999732971191,24.159000396728516 1.3029999732971191,24.159000396728516 C1.2640000581741333,24.594999313354492 1.1749999523162842,24.881000518798828 1.0369999408721924,25.01799964904785 C0.8980000019073486,25.158000946044922 0.6520000100135803,25.246999740600586 0.29600000381469727,25.285999298095703 C0.29600000381469727,25.285999298095703 -2.430000066757202,25.46299934387207 -2.430000066757202,25.46299934387207 C-2.865000009536743,25.503999710083008 -3.1519999504089355,25.45400047302246 -3.2890000343322754,25.315000534057617 C-3.427999973297119,25.17799949645996 -3.5169999599456787,24.892000198364258 -3.555999994277954,24.45599937438965 C-3.555999994277954,24.45599937438965 -5.867000102996826,-23.132999420166016 -5.867000102996826,-23.132999420166016 C-5.867000102996826,-23.132999420166016 -5.867000102996826,-23.31100082397461 -5.867000102996826,-23.31100082397461 C-5.867000102996826,-24.10099983215332 -5.394000053405762,-24.594999313354492 -4.446000099182129,-24.792999267578125 C-3.812999963760376,-24.91200065612793 -3.052000045776367,-25.009000778198242 -2.1630001068115234,-25.089000701904297 C-1.274999976158142,-25.167999267578125 -0.38499999046325684,-25.23699951171875 0.5040000081062317,-25.29599952697754 C1.3919999599456787,-25.356000900268555 2.193000078201294,-25.405000686645508 2.9040000438690186,-25.444000244140625 C3.615000009536743,-25.482999801635742 4.127999782562256,-25.503999710083008 4.445000171661377,-25.503999710083008z"></path></g></g><g transform="matrix(1,0,0,1,728.9589233398438,172.6115264892578)" opacity="1" style="display: block;"><g opacity="1" transform="matrix(1,0,0,1,61.40999984741211,61.4109992980957)"><path fill="rgb(255,241,0)" fill-opacity="1" d=" M61.1609992980957,-0.0020000000949949026 C61.1609992980957,1.3300000429153442 61.11800003051758,2.6489999294281006 61.034000396728516,3.9579999446868896 C58.994998931884766,35.89099884033203 32.448001861572266,61.1609992980957 0.0010000000474974513,61.1609992980957 C-3.7209999561309814,61.1609992980957 -7.368000030517578,60.827999114990234 -10.907999992370605,60.189998626708984 C-39.483001708984375,55.04499816894531 -61.1609992980957,30.05500030517578 -61.1609992980957,-0.0020000000949949026 C-61.1609992980957,-33.78099822998047 -33.77799987792969,-61.1609992980957 0.0010000000474974513,-61.1609992980957 C33.77899932861328,-61.1609992980957 61.1609992980957,-33.78099822998047 61.1609992980957,-0.0020000000949949026z"></path></g><g opacity="1" transform="matrix(1,0,0,1,62.1879997253418,58.49599838256836)"><path fill="rgb(46,42,43)" fill-opacity="1" d=" M-35.7599983215332,35.31999969482422 C-34.80099868774414,36.32099914550781 -33.518001556396484,36.82500076293945 -32.23400115966797,36.82500076293945 C-31.02199935913086,36.82500076293945 -29.80900001525879,36.375 -28.863000869750977,35.47100067138672 C-28.863000869750977,35.47100067138672 -3.575000047683716,11.270000457763672 -3.575000047683716,11.270000457763672 C0.7680000066757202,14.24899959564209 5.9019999504089355,15.85099983215332 11.282999992370605,15.85099983215332 C18.31800079345703,15.85099983215332 24.93199920654297,13.112000465393066 29.906999588012695,8.13700008392334 C34.88199996948242,3.1619999408721924 37.62099838256836,-3.4509999752044678 37.62099838256836,-10.487000465393066 C37.62099838256836,-17.523000717163086 34.88199996948242,-24.13599967956543 29.906999588012695,-29.11199951171875 C24.93199920654297,-34.08599853515625 18.31800079345703,-36.82500076293945 11.282999992370605,-36.82500076293945 C4.248000144958496,-36.82500076293945 -2.365999937057495,-34.08599853515625 -7.341000080108643,-29.11199951171875 C-12.3149995803833,-24.13599967956543 -15.055999755859375,-17.523000717163086 -15.055999755859375,-10.487000465393066 C-15.055999755859375,-5.105999946594238 -13.45300006866455,0.02800000086426735 -10.475000381469727,4.370999813079834 C-10.475000381469727,4.370999813079834 -35.60599899291992,28.42300033569336 -35.60599899291992,28.42300033569336 C-37.553001403808594,30.285999298095703 -37.62099838256836,33.374000549316406 -35.7599983215332,35.31999969482422z M-6.414000034332275,1.6369999647140503 C-8.786999702453613,-1.815000057220459 -10.177000045776367,-5.991000175476074 -10.177000045776367,-10.487000465393066 C-10.177000045776367,-22.320999145507812 -0.5509999990463257,-31.94700050354004 11.282999992370605,-31.94700050354004 C23.115999221801758,-31.94700050354004 32.74300003051758,-22.320999145507812 32.74300003051758,-10.487000465393066 C32.74300003051758,1.347000002861023 23.115999221801758,10.973999977111816 11.282999992370605,10.973999977111816 C6.815000057220459,10.973999977111816 2.6619999408721924,9.60200023651123 -0.7770000100135803,7.25600004196167 C-2.986999988555908,5.75 -4.900000095367432,3.8420000076293945 -6.414000034332275,1.6369999647140503z"></path></g></g><g transform="matrix(1,0,0,1,345.3804931640625,100.82511901855469)" opacity="1" style="display: block;"><g opacity="1" transform="matrix(1,0,0,1,23.40999984741211,23.409000396728516)"><path fill="rgb(46,42,43)" fill-opacity="1" d=" M23.15999984741211,3.740999937057495 C23.15999984741211,3.740999937057495 -23.15999984741211,3.740999937057495 -23.15999984741211,3.740999937057495 C-23.15999984741211,3.740999937057495 -23.15999984741211,-3.740999937057495 -23.15999984741211,-3.740999937057495 C-23.15999984741211,-3.740999937057495 23.15999984741211,-3.740999937057495 23.15999984741211,-3.740999937057495 C23.15999984741211,-3.740999937057495 23.15999984741211,3.740999937057495 23.15999984741211,3.740999937057495z"></path></g><g opacity="1" transform="matrix(1,0,0,1,23.40999984741211,23.409000396728516)"><path fill="rgb(46,42,43)" fill-opacity="1" d=" M3.740000009536743,23.159000396728516 C3.740000009536743,23.159000396728516 -3.740000009536743,23.159000396728516 -3.740000009536743,23.159000396728516 C-3.740000009536743,23.159000396728516 -3.740000009536743,-23.159000396728516 -3.740000009536743,-23.159000396728516 C-3.740000009536743,-23.159000396728516 3.740000009536743,-23.159000396728516 3.740000009536743,-23.159000396728516 C3.740000009536743,-23.159000396728516 3.740000009536743,23.159000396728516 3.740000009536743,23.159000396728516z"></path></g></g><g transform="matrix(1,0,0,1,110.00812530517578,182.68701171875)" opacity="1" style="display: block;"><g opacity="1" transform="matrix(1,0,0,1,61.62200164794922,61.625)"><path fill="rgb(146,190,229)" fill-opacity="1" d=" M61.37200164794922,0.0020000000949949026 C61.37200164794922,3.4690001010894775 61.082000732421875,6.864999771118164 60.534000396728516,10.17199993133545 C57.152000427246094,30.445999145507812 43.834999084472656,47.35499954223633 25.76099967956543,55.7239990234375 C17.924999237060547,59.3489990234375 9.20199966430664,61.375 0,61.375 C-33.895999908447266,61.375 -61.37200164794922,33.89799880981445 -61.37200164794922,0.0020000000949949026 C-61.37200164794922,-33.89400100708008 -33.895999908447266,-61.375 0,-61.375 C33.89500045776367,-61.375 61.37200164794922,-33.89400100708008 61.37200164794922,0.0020000000949949026z"></path></g><g opacity="1" transform="matrix(1,0,0,1,64.17400360107422,52.472999572753906)"><path fill="rgb(46,42,43)" fill-opacity="1" d=" M-14.607999801635742,-13.779000282287598 C-15.95199966430664,-15.951000213623047 -16.624000549316406,-17.868000030517578 -16.624000549316406,-19.527000427246094 C-16.624000549316406,-20.75200080871582 -16.297000885009766,-21.77899932861328 -15.645000457763672,-22.610000610351562 C-14.993000030517578,-23.43899917602539 -14.135000228881836,-24.1200008392334 -13.067999839782715,-24.65399932861328 C-12.00100040435791,-25.187000274658203 -10.78600025177002,-25.572999954223633 -9.42300033569336,-25.80900001525879 C-8.0600004196167,-26.047000885009766 -6.666999816894531,-26.165000915527344 -5.24399995803833,-26.165000915527344 C-2.5179998874664307,-26.165000915527344 0.15700000524520874,-25.80900001525879 2.7860000133514404,-25.097999572753906 C5.4120001792907715,-24.386999130249023 7.74399995803833,-23.34000015258789 9.779000282287598,-21.957000732421875 C11.812999725341797,-20.573999404907227 13.463000297546387,-18.84600067138672 14.727999687194824,-16.77199935913086 C15.991999626159668,-14.697999954223633 16.624000549316406,-12.277000427246094 16.624000549316406,-9.51200008392334 C16.624000549316406,-7.693999767303467 16.336000442504883,-6.084000110626221 15.763999938964844,-4.681000232696533 C15.190999984741211,-3.2790000438690186 14.432000160217285,-1.9950000047683716 13.482999801635742,-0.8299999833106995 C12.53499984741211,0.335999995470047 11.428999900817871,1.4220000505447388 10.163999557495117,2.430000066757202 C8.89900016784668,3.437000036239624 7.577000141143799,4.434999942779541 6.193999767303467,5.422999858856201 C5.008999824523926,6.251999855041504 3.861999988555908,7.052999973297119 2.756999969482422,7.822999954223633 C1.649999976158142,8.593999862670898 0.6610000133514404,9.392999649047852 -0.20800000429153442,10.222999572753906 C-1.0770000219345093,11.053000450134277 -1.777999997138977,11.95199966430664 -2.312000036239624,12.920000076293945 C-2.8450000286102295,13.887999534606934 -3.1110000610351562,14.984000205993652 -3.1110000610351562,16.208999633789062 C-3.1110000610351562,17.354999542236328 -2.8450000286102295,18.549999237060547 -2.312000036239624,19.795000076293945 C-1.777999997138977,21.038000106811523 -0.9380000233650208,22.490999221801758 0.20800000429153442,24.149999618530273 C-0.7009999752044678,24.783000946044922 -1.600000023841858,25.275999069213867 -2.489000082015991,25.631999969482422 C-3.378999948501587,25.98699951171875 -4.236999988555908,26.165000915527344 -5.066999912261963,26.165000915527344 C-6.2129998207092285,26.165000915527344 -7.21999979019165,25.968000411987305 -8.08899974822998,25.572999954223633 C-8.958000183105469,25.17799949645996 -9.6899995803833,24.645000457763672 -10.282999992370605,23.972999572753906 C-10.87600040435791,23.302000045776367 -11.329000473022461,22.511999130249023 -11.645000457763672,21.601999282836914 C-11.961999893188477,20.694000244140625 -12.119000434875488,19.72599983215332 -12.119000434875488,18.697999954223633 C-12.119000434875488,17 -11.762999534606934,15.428999900817871 -11.052000045776367,13.987000465393066 C-10.34000015258789,12.545000076293945 -9.42199993133545,11.201000213623047 -8.295999526977539,9.956999778747559 C-7.171000003814697,8.711999893188477 -5.888000011444092,7.546999931335449 -4.445000171661377,6.460000038146973 C-3.003999948501587,5.374000072479248 -1.5509999990463257,4.316999912261963 -0.08900000154972076,3.2890000343322754 C1.253000020980835,2.3410000801086426 2.569000005722046,1.402999997138977 3.8529999256134033,0.4740000069141388 C5.13700008392334,-0.45399999618530273 6.271999835968018,-1.4019999504089355 7.260000228881836,-2.371000051498413 C8.246999740600586,-3.3380000591278076 9.038999557495117,-4.34499979019165 9.630999565124512,-5.39300012588501 C10.223999977111816,-6.440000057220459 10.520000457763672,-7.574999809265137 10.520000457763672,-8.800000190734863 C10.520000457763672,-10.26200008392334 10.163999557495117,-11.517000198364258 9.454000473022461,-12.564000129699707 C8.741999626159668,-13.611000061035156 7.802999973297119,-14.461000442504883 6.638999938964844,-15.112000465393066 C5.4730000495910645,-15.763999938964844 4.129000186920166,-16.238000869750977 2.6089999675750732,-16.53499984741211 C1.0870000123977661,-16.83099937438965 -0.503000020980835,-16.979000091552734 -2.1619999408721924,-16.979000091552734 C-7.140999794006348,-16.979000091552734 -11.288999557495117,-15.911999702453613 -14.607999801635742,-13.779000282287598z"></path></g><g opacity="1" transform="matrix(1,0,0,1,58.54399871826172,85.5780029296875)"><path fill="rgb(46,42,43)" fill-opacity="1" d=" M6.311999797821045,0.028999999165534973 C6.311999797821045,2.1619999408721924 5.7179999351501465,3.743000030517578 4.5329999923706055,4.769999980926514 C3.3480000495910645,5.796999931335449 1.628999948501587,6.310999870300293 -0.6230000257492065,6.310999870300293 C-2.440000057220459,6.310999870300293 -3.8429999351501465,5.73799991607666 -4.830999851226807,4.5920000076293945 C-5.817999839782715,3.447000026702881 -6.311999797821045,1.9249999523162842 -6.311999797821045,0.028999999165534973 C-6.311999797821045,-2.2230000495910645 -5.699999809265137,-3.8429999351501465 -4.474999904632568,-4.830999851226807 C-3.250999927520752,-5.817999839782715 -1.5509999990463257,-6.310999870300293 0.621999979019165,-6.310999870300293 C2.5190000534057617,-6.310999870300293 3.940000057220459,-5.757999897003174 4.888999938964844,-4.6519999504089355 C5.836999893188477,-3.5450000762939453 6.311999797821045,-1.9859999418258667 6.311999797821045,0.028999999165534973z"></path></g></g><g transform="matrix(1,0,0,1,69.69807434082031,562.7330932617188)" opacity="1" style="display: block;"><g opacity="1" transform="matrix(1,0,0,1,53.57699966430664,53.715999603271484)"><path fill="rgb(246,151,41)" fill-opacity="1" d=" M53.32699966430664,34.73400115966797 C53.32699966430664,45.08000183105469 44.941001892089844,53.465999603271484 34.59600067138672,53.465999603271484 C34.59600067138672,53.465999603271484 -34.595001220703125,53.465999603271484 -34.595001220703125,53.465999603271484 C-44.941001892089844,53.465999603271484 -53.32699966430664,45.08000183105469 -53.32699966430664,34.73400115966797 C-53.32699966430664,34.73400115966797 -53.32699966430664,-34.73500061035156 -53.32699966430664,-34.73500061035156 C-53.32699966430664,-45.07899856567383 -44.941001892089844,-53.465999603271484 -34.595001220703125,-53.465999603271484 C-34.595001220703125,-53.465999603271484 34.59600067138672,-53.465999603271484 34.59600067138672,-53.465999603271484 C44.941001892089844,-53.465999603271484 53.32699966430664,-45.07899856567383 53.32699966430664,-34.73500061035156 C53.32699966430664,-34.73500061035156 53.32699966430664,34.73400115966797 53.32699966430664,34.73400115966797z"></path></g><g opacity="1" transform="matrix(1,0,0,1,54.80099868774414,55.83300018310547)"><path fill="rgb(255,255,255)" fill-opacity="1" d=" M34.56100082397461,-18.277999877929688 C34.56100082397461,-18.277999877929688 24.67300033569336,-28.163999557495117 24.67300033569336,-28.163999557495117 C24.67300033569336,-28.163999557495117 -11.96399974822998,8.468999862670898 -11.96399974822998,8.468999862670898 C-11.96399974822998,8.468999862670898 -24.67300033569336,-4.236999988555908 -24.67300033569336,-4.236999988555908 C-24.67300033569336,-4.236999988555908 -34.56100082397461,5.6479997634887695 -34.56100082397461,5.6479997634887695 C-34.56100082397461,5.6479997634887695 -14.461000442504883,25.74799919128418 -14.461000442504883,25.74799919128418 C-14.461000442504883,25.74799919128418 -14.378999710083008,25.66699981689453 -14.378999710083008,25.66699981689453 C-14.378999710083008,25.66699981689453 -11.880000114440918,28.163999557495117 -11.880000114440918,28.163999557495117 C-11.880000114440918,28.163999557495117 34.56100082397461,-18.277999877929688 34.56100082397461,-18.277999877929688z"></path></g></g><g transform="matrix(1,0,0,1,736.5645751953125,824.9422607421875)" opacity="1" style="display: block;"><g opacity="1" transform="matrix(1,0,0,1,47.362998962402344,47.486000061035156)"><path fill="rgb(246,151,41)" fill-opacity="1" d=" M47.112998962402344,30.68600082397461 C47.112998962402344,39.82699966430664 39.70399856567383,47.236000061035156 30.562999725341797,47.236000061035156 C30.562999725341797,47.236000061035156 -30.565000534057617,47.236000061035156 -30.565000534057617,47.236000061035156 C-39.70399856567383,47.236000061035156 -47.112998962402344,39.82699966430664 -47.112998962402344,30.68600082397461 C-47.112998962402344,30.68600082397461 -47.112998962402344,-30.687999725341797 -47.112998962402344,-30.687999725341797 C-47.112998962402344,-39.82699966430664 -39.70399856567383,-47.236000061035156 -30.565000534057617,-47.236000061035156 C-30.565000534057617,-47.236000061035156 30.562999725341797,-47.236000061035156 30.562999725341797,-47.236000061035156 C39.70399856567383,-47.236000061035156 47.112998962402344,-39.82699966430664 47.112998962402344,-30.687999725341797 C47.112998962402344,-30.687999725341797 47.112998962402344,30.68600082397461 47.112998962402344,30.68600082397461z"></path></g><g opacity="1" transform="matrix(1,0,0,1,47.62900161743164,48.50400161743164)"><path fill="rgb(255,255,255)" fill-opacity="1" d=" M33.45399856567383,-19.964000701904297 C33.45399856567383,-19.964000701904297 19.964000701904297,-33.45399856567383 19.964000701904297,-33.45399856567383 C19.964000701904297,-33.45399856567383 0.0010000000474974513,-13.491000175476074 0.0010000000474974513,-13.491000175476074 C0.0010000000474974513,-13.491000175476074 -19.96299934387207,-33.45399856567383 -19.96299934387207,-33.45399856567383 C-19.96299934387207,-33.45399856567383 -33.45399856567383,-19.964000701904297 -33.45399856567383,-19.964000701904297 C-33.45399856567383,-19.964000701904297 -13.491000175476074,-0.0010000000474974513 -13.491000175476074,-0.0010000000474974513 C-13.491000175476074,-0.0010000000474974513 -33.45399856567383,19.964000701904297 -33.45399856567383,19.964000701904297 C-33.45399856567383,19.964000701904297 -19.96299934387207,33.45399856567383 -19.96299934387207,33.45399856567383 C-19.96299934387207,33.45399856567383 0.0010000000474974513,13.489999771118164 0.0010000000474974513,13.489999771118164 C0.0010000000474974513,13.489999771118164 19.964000701904297,33.45399856567383 19.964000701904297,33.45399856567383 C19.964000701904297,33.45399856567383 33.45399856567383,19.964000701904297 33.45399856567383,19.964000701904297 C33.45399856567383,19.964000701904297 13.48900032043457,-0.0010000000474974513 13.48900032043457,-0.0010000000474974513 C13.48900032043457,-0.0010000000474974513 33.45399856567383,-19.964000701904297 33.45399856567383,-19.964000701904297z"></path></g></g><g transform="matrix(1,0,0,1,180.5045623779297,945.4736938476562)" opacity="1" style="display: block;"><g opacity="1" transform="matrix(1,0,0,1,39.78799819946289,39.683998107910156)"><path fill="rgb(255,241,0)" fill-opacity="1" d=" M9.267999649047852,39.433998107910156 C7.796000003814697,39.433998107910156 6.466000080108643,38.50600051879883 5.960000038146973,37.12699890136719 C5.960000038146973,37.12699890136719 4.76800012588501,33.85200119018555 4.76800012588501,33.85200119018555 C4.709000110626221,33.69200134277344 4.376999855041504,33.45000076293945 4.1579999923706055,33.45000076293945 C4.1579999923706055,33.45000076293945 4.072000026702881,33.45600128173828 4.072000026702881,33.45600128173828 C4.072000026702881,33.45600128173828 3.9769999980926514,33.45399856567383 3.9769999980926514,33.45399856567383 C3.9769999980926514,33.45399856567383 -6.015999794006348,33.14699935913086 -6.015999794006348,33.14699935913086 C-6.015999794006348,33.14699935913086 -6.020999908447266,33.14699935913086 -6.020999908447266,33.14699935913086 C-6.315000057220459,33.14699935913086 -6.626999855041504,33.349998474121094 -6.705999851226807,33.518001556396484 C-6.705999851226807,33.518001556396484 -8.270999908447266,36.854000091552734 -8.270999908447266,36.854000091552734 C-8.826000213623047,38.07699966430664 -10.07800006866455,38.87900161743164 -11.451000213623047,38.87900161743164 C-11.968999862670898,38.87900161743164 -12.470000267028809,38.768001556396484 -12.939000129699707,38.547000885009766 C-12.939000129699707,38.547000885009766 -19.750999450683594,35.3849983215332 -19.750999450683594,35.3849983215332 C-21.509000778198242,34.564998626708984 -22.27400016784668,32.47100067138672 -21.45800018310547,30.71500015258789 C-21.45800018310547,30.71500015258789 -19.993000030517578,27.589000701904297 -19.993000030517578,27.589000701904297 C-19.922000885009766,27.433000564575195 -20.0049991607666,27.047000885009766 -20.145999908447266,26.930999755859375 C-20.145999908447266,26.930999755859375 -20.31800079345703,26.770000457763672 -20.31800079345703,26.770000457763672 C-20.31800079345703,26.770000457763672 -28.05900001525879,18.46500015258789 -28.05900001525879,18.46500015258789 C-28.134000778198242,18.365999221801758 -28.381000518798828,18.229000091552734 -28.65399932861328,18.229000091552734 C-28.73900032043457,18.229000091552734 -28.788999557495117,18.243999481201172 -28.80699920654297,18.25 C-28.80699920654297,18.25 -32.1349983215332,19.466999053955078 -32.1349983215332,19.466999053955078 C-32.51900100708008,19.607999801635742 -32.92100143432617,19.67799949645996 -33.32899856567383,19.67799949645996 C-34.80500030517578,19.67799949645996 -36.13600158691406,18.743999481201172 -36.64099884033203,17.351999282836914 C-36.64099884033203,17.351999282836914 -39.21500015258789,10.298999786376953 -39.21500015258789,10.298999786376953 C-39.53799819946289,9.418999671936035 -39.499000549316406,8.461000442504883 -39.10200119018555,7.605999946594238 C-38.70600128173828,6.754000186920166 -38.005001068115234,6.110000133514404 -37.125999450683594,5.789999961853027 C-37.125999450683594,5.789999961853027 -33.79600143432617,4.577000141143799 -33.79600143432617,4.577000141143799 C-33.60499954223633,4.50600004196167 -33.380001068115234,4.166999816894531 -33.395999908447266,3.9700000286102295 C-33.395999908447266,3.9700000286102295 -33.40399932861328,3.874000072479248 -33.40399932861328,3.874000072479248 C-33.40399932861328,3.874000072479248 -33.112998962402344,-6.00600004196167 -33.112998962402344,-6.00600004196167 C-33.08399963378906,-6.2270002365112305 -33.29499816894531,-6.610000133514404 -33.494998931884766,-6.702000141143799 C-33.494998931884766,-6.702000141143799 -36.77899932861328,-8.239999771118164 -36.77899932861328,-8.239999771118164 C-37.61800003051758,-8.621999740600586 -38.270999908447266,-9.324999809265137 -38.597999572753906,-10.208999633789062 C-38.92499923706055,-11.097999572753906 -38.8849983215332,-12.0600004196167 -38.48400115966797,-12.916000366210938 C-38.48400115966797,-12.916000366210938 -35.316001892089844,-19.72599983215332 -35.316001892089844,-19.72599983215332 C-34.742000579833984,-20.961999893188477 -33.48699951171875,-21.760000228881836 -32.119998931884766,-21.760000228881836 C-31.604999542236328,-21.760000228881836 -31.10700035095215,-21.650999069213867 -30.641000747680664,-21.433000564575195 C-30.641000747680664,-21.433000564575195 -27.636999130249023,-20.033000946044922 -27.636999130249023,-20.033000946044922 C-27.636999130249023,-20.033000946044922 -27.636999130249023,-20.033000946044922 -27.636999130249023,-20.033000946044922 C-27.635000228881836,-20.033000946044922 -27.57200050354004,-20.010000228881836 -27.461999893188477,-20.010000228881836 C-27.215999603271484,-20.010000228881836 -27.025999069213867,-20.118000030517578 -26.97800064086914,-20.174999237060547 C-26.97800064086914,-20.174999237060547 -26.825000762939453,-20.339000701904297 -26.825000762939453,-20.339000701904297 C-26.825000762939453,-20.339000701904297 -18.408000946044922,-28.240999221801758 -18.408000946044922,-28.240999221801758 C-18.238000869750977,-28.371000289916992 -18.106000900268555,-28.801000595092773 -18.17799949645996,-28.996999740600586 C-18.17799949645996,-28.996999740600586 -19.325000762939453,-32.13600158691406 -19.325000762939453,-32.13600158691406 C-19.645999908447266,-33.01599884033203 -19.601999282836914,-33.97100067138672 -19.20400047302246,-34.82400131225586 C-18.80500030517578,-35.676998138427734 -18.101999282836914,-36.323001861572266 -17.222999572753906,-36.643001556396484 C-17.222999572753906,-36.643001556396484 -10.16100025177002,-39.222999572753906 -10.16100025177002,-39.222999572753906 C-9.772000312805176,-39.36399841308594 -9.371999740600586,-39.433998107910156 -8.96500015258789,-39.433998107910156 C-7.48799991607666,-39.433998107910156 -6.1570000648498535,-38.505001068115234 -5.6539998054504395,-37.124000549316406 C-5.6539998054504395,-37.124000549316406 -4.507999897003174,-33.987998962402344 -4.507999897003174,-33.987998962402344 C-4.447000026702881,-33.81999969482422 -4.124000072479248,-33.584999084472656 -3.9019999504089355,-33.584999084472656 C-3.9019999504089355,-33.584999084472656 -3.811000108718872,-33.59199905395508 -3.811000108718872,-33.59199905395508 C-3.811000108718872,-33.59199905395508 -3.7079999446868896,-33.5890007019043 -3.7079999446868896,-33.5890007019043 C-3.7079999446868896,-33.5890007019043 6.172999858856201,-33.2869987487793 6.172999858856201,-33.2869987487793 C6.442999839782715,-33.279998779296875 6.800000190734863,-33.50400161743164 6.880000114440918,-33.67399978637695 C6.880000114440918,-33.67399978637695 8.29800033569336,-36.742000579833984 8.29800033569336,-36.742000579833984 C8.892000198364258,-37.99100112915039 10.14799976348877,-38.7859992980957 11.503000259399414,-38.7859992980957 C12.020000457763672,-38.7859992980957 12.520000457763672,-38.67300033569336 12.989999771118164,-38.452999114990234 C12.989999771118164,-38.452999114990234 19.79199981689453,-35.28499984741211 19.79199981689453,-35.28499984741211 C20.634000778198242,-34.89699935913086 21.281999588012695,-34.196998596191406 21.60700035095215,-33.31399917602539 C21.93400001525879,-32.428001403808594 21.89699935913086,-31.4689998626709 21.500999450683594,-30.61400032043457 C21.500999450683594,-30.61400032043457 20.187999725341797,-27.785999298095703 20.187999725341797,-27.785999298095703 C20.106000900268555,-27.611000061035156 20.198999404907227,-27.20800018310547 20.350000381469727,-27.079999923706055 C20.350000381469727,-27.079999923706055 20.48200035095215,-26.95400047302246 20.48200035095215,-26.95400047302246 C20.48200035095215,-26.95400047302246 28.339000701904297,-18.582000732421875 28.339000701904297,-18.582000732421875 C28.408000946044922,-18.489999771118164 28.652999877929688,-18.354000091552734 28.91900062561035,-18.354000091552734 C29.003999710083008,-18.354000091552734 29.05299949645996,-18.368999481201172 29.06999969482422,-18.375 C29.06999969482422,-18.375 32.132999420166016,-19.492000579833984 32.132999420166016,-19.492000579833984 C32.516998291015625,-19.631999969482422 32.922000885009766,-19.70400047302246 33.33300018310547,-19.70400047302246 C34.80799865722656,-19.70400047302246 36.138999938964844,-18.775999069213867 36.64500045776367,-17.395999908447266 C36.64500045776367,-17.395999908447266 39.21699905395508,-10.335000038146973 39.21699905395508,-10.335000038146973 C39.53900146484375,-9.460000038146973 39.49800109863281,-8.505000114440918 39.10200119018555,-7.651000022888184 C38.70500183105469,-6.796999931335449 38.00299835205078,-6.150000095367432 37.124000549316406,-5.828999996185303 C37.124000549316406,-5.828999996185303 34.058998107910156,-4.709000110626221 34.058998107910156,-4.709000110626221 C33.85499954223633,-4.631999969482422 33.62799835205078,-4.275000095367432 33.643001556396484,-4.09499979019165 C33.643001556396484,-4.09499979019165 33.650001525878906,-3.997999906539917 33.650001525878906,-3.997999906539917 C33.650001525878906,-3.997999906539917 33.31800079345703,6.188000202178955 33.31800079345703,6.188000202178955 C33.28799819946289,6.401000022888184 33.50199890136719,6.791999816894531 33.69900131225586,6.886000156402588 C33.69900131225586,6.886000156402588 36.821998596191406,8.333999633789062 36.821998596191406,8.333999633789062 C37.67300033569336,8.722999572753906 38.32400131225586,9.428000450134277 38.64799880981445,10.317999839782715 C38.97200012207031,11.204999923706055 38.928001403808594,12.163000106811523 38.525001525878906,13.012999534606934 C38.525001525878906,13.012999534606934 35.361000061035156,19.823999404907227 35.361000061035156,19.823999404907227 C34.77799987792969,21.062000274658203 33.52000045776367,21.85700035095215 32.15399932861328,21.85700035095215 C31.645000457763672,21.85700035095215 31.150999069213867,21.749000549316406 30.68899917602539,21.535999298095703 C30.68899917602539,21.535999298095703 27.729000091552734,20.145999908447266 27.729000091552734,20.145999908447266 C27.707000732421875,20.13599967956543 27.632999420166016,20.125 27.55500030517578,20.125 C27.31100082397461,20.125 27.104000091552734,20.235000610351562 27.040000915527344,20.308000564575195 C27.040000915527344,20.308000564575195 26.9060001373291,20.448999404907227 26.9060001373291,20.448999404907227 C26.9060001373291,20.448999404907227 18.66900062561035,28.131000518798828 18.66900062561035,28.131000518798828 C18.48200035095215,28.270000457763672 18.371000289916992,28.687999725341797 18.43600082397461,28.868000030517578 C18.43600082397461,28.868000030517578 19.6299991607666,32.13199996948242 19.6299991607666,32.13199996948242 C20.292999267578125,33.959999084472656 19.35099983215332,35.98099899291992 17.5310001373291,36.64400100708008 C17.5310001373291,36.64400100708008 10.468999862670898,39.220001220703125 10.468999862670898,39.220001220703125 C10.085000038146973,39.36199951171875 9.680000305175781,39.433998107910156 9.267999649047852,39.433998107910156z M4.1579999923706055,29.965999603271484 C5.835999965667725,29.965999603271484 7.4670000076293945,31.097999572753906 8.038000106811523,32.65800094604492 C8.038000106811523,32.65800094604492 9.229999542236328,35.930999755859375 9.229999542236328,35.930999755859375 C9.229999542236328,35.930999755859375 9.267999649047852,35.95100021362305 9.267999649047852,35.95100021362305 C9.269000053405762,35.95100021362305 9.270000457763672,35.95100021362305 9.27299976348877,35.95000076293945 C9.27299976348877,35.95000076293945 16.336999893188477,33.37300109863281 16.336999893188477,33.37300109863281 C16.349000930786133,33.36800003051758 16.364999771118164,33.340999603271484 16.358999252319336,33.32500076293945 C16.358999252319336,33.32500076293945 15.161999702453613,30.058000564575195 15.161999702453613,30.058000564575195 C14.579000473022461,28.450000762939453 15.154999732971191,26.474000930786133 16.499000549316406,25.406999588012695 C16.499000549316406,25.406999588012695 24.466999053955078,17.958999633789062 24.466999053955078,17.958999633789062 C25.22100067138672,17.131999969482422 26.367000579833984,16.641000747680664 27.55500030517578,16.641000747680664 C28.134000778198242,16.641000747680664 28.68199920654297,16.7549991607666 29.18400001525879,16.98200035095215 C29.18400001525879,16.98200035095215 32.15800094604492,18.378000259399414 32.15800094604492,18.378000259399414 C32.17100143432617,18.374000549316406 32.19900131225586,18.36400032043457 32.20600128173828,18.347999572753906 C32.20600128173828,18.347999572753906 35.37200164794922,11.53499984741211 35.37200164794922,11.53499984741211 C35.37200164794922,11.53499984741211 32.21500015258789,10.038000106811523 32.21500015258789,10.038000106811523 C30.660999298095703,9.293999671936035 29.67099952697754,7.497000217437744 29.85700035095215,5.811999797821045 C29.85700035095215,5.811999797821045 30.163000106811523,-3.930999994277954 30.163000106811523,-3.930999994277954 C30.082000732421875,-5.633999824523926 31.218000411987305,-7.359000205993652 32.84600067138672,-7.973999977111816 C32.84600067138672,-7.973999977111816 35.928001403808594,-9.100000381469727 35.928001403808594,-9.100000381469727 C35.928001403808594,-9.100000381469727 33.37200164794922,-16.201000213623047 33.37200164794922,-16.201000213623047 C33.37200164794922,-16.201000213623047 33.37200164794922,-16.200000762939453 33.37200164794922,-16.200000762939453 C33.37200164794922,-16.200000762939453 33.32600021362305,-16.2189998626709 33.32600021362305,-16.2189998626709 C33.32600021362305,-16.2189998626709 30.263999938964844,-15.104000091552734 30.263999938964844,-15.104000091552734 C29.8439998626709,-14.949999809265137 29.391000747680664,-14.871000289916992 28.91900062561035,-14.871000289916992 C27.6200008392334,-14.871000289916992 26.361000061035156,-15.463000297546387 25.604000091552734,-16.424999237060547 C25.604000091552734,-16.424999237060547 17.996999740600586,-24.510000228881836 17.996999740600586,-24.510000228881836 C16.719999313354492,-25.673999786376953 16.30299949645996,-27.694000244140625 17.02899932861328,-29.253999710083008 C17.02899932861328,-29.253999710083008 18.340999603271484,-32.07899856567383 18.340999603271484,-32.07899856567383 C18.340999603271484,-32.07899856567383 18.336999893188477,-32.08000183105469 18.336999893188477,-32.08000183105469 C18.336999893188477,-32.08000183105469 18.31999969482422,-32.12699890136719 18.31999969482422,-32.12699890136719 C18.31999969482422,-32.12699890136719 11.515999794006348,-35.29800033569336 11.515999794006348,-35.29800033569336 C11.5,-35.301998138427734 11.470000267028809,-35.30099868774414 11.45199966430664,-35.26300048828125 C11.45199966430664,-35.26300048828125 10.038000106811523,-32.20500183105469 10.038000106811523,-32.20500183105469 C9.319000244140625,-30.670000076293945 7.504000186920166,-29.641000747680664 5.813000202178955,-29.82200050354004 C5.813000202178955,-29.82200050354004 -3.7360000610351562,-30.106000900268555 -3.7360000610351562,-30.106000900268555 C-5.47599983215332,-30.03499984741211 -7.193999767303467,-31.183000564575195 -7.781000137329102,-32.79399871826172 C-7.781000137329102,-32.79399871826172 -8.925999641418457,-35.93000030517578 -8.925999641418457,-35.93000030517578 C-8.925999641418457,-35.93000030517578 -16.02899932861328,-33.37200164794922 -16.02899932861328,-33.37200164794922 C-16.02899932861328,-33.37200164794922 -14.906000137329102,-30.191999435424805 -14.906000137329102,-30.191999435424805 C-14.321999549865723,-28.59000015258789 -14.885000228881836,-26.610000610351562 -16.21500015258789,-25.53499984741211 C-16.21500015258789,-25.53499984741211 -24.371999740600586,-17.865999221801758 -24.371999740600586,-17.865999221801758 C-25.114999771118164,-17.025999069213867 -26.260000228881836,-16.527000427246094 -27.461999893188477,-16.527000427246094 C-28.031999588012695,-16.527000427246094 -28.5939998626709,-16.645000457763672 -29.086999893188477,-16.865999221801758 C-29.086999893188477,-16.865999221801758 -32.111000061035156,-18.275999069213867 -32.111000061035156,-18.275999069213867 C-32.111000061035156,-18.275999069213867 -33.737998962402344,-18.992000579833984 -33.737998962402344,-18.992000579833984 C-33.737998962402344,-18.992000579833984 -32.15800094604492,-18.256999969482422 -32.15800094604492,-18.256999969482422 C-32.15800094604492,-18.256999969482422 -35.32699966430664,-11.444999694824219 -35.32699966430664,-11.444999694824219 C-35.32699966430664,-11.444999694824219 -35.31800079345703,-11.440999984741211 -35.31800079345703,-11.440999984741211 C-35.31800079345703,-11.440999984741211 -35.30099868774414,-11.394000053405762 -35.30099868774414,-11.394000053405762 C-35.30099868774414,-11.394000053405762 -32.03300094604492,-9.86299991607666 -32.03300094604492,-9.86299991607666 C-30.488000869750977,-9.156999588012695 -29.47100067138672,-7.359000205993652 -29.648000717163086,-5.6519999504089355 C-29.648000717163086,-5.6519999504089355 -29.91699981689453,3.7950000762939453 -29.91699981689453,3.7950000762939453 C-29.827999114990234,5.521999835968018 -30.965999603271484,7.250999927520752 -32.604000091552734,7.848999977111816 C-32.604000091552734,7.848999977111816 -35.933998107910156,9.062000274658203 -35.933998107910156,9.062000274658203 C-35.933998107910156,9.062000274658203 -33.32899856567383,16.195999145507812 -33.32899856567383,16.195999145507812 C-33.32899856567383,16.195999145507812 -30.000999450683594,14.977999687194824 -30.000999450683594,14.977999687194824 C-29.57699966430664,14.824000358581543 -29.124000549316406,14.746999740600586 -28.65399932861328,14.746999740600586 C-27.360000610351562,14.746999740600586 -26.099000930786133,15.336000442504883 -25.336999893188477,16.291000366210938 C-25.336999893188477,16.291000366210938 -17.84000015258789,24.31999969482422 -17.84000015258789,24.31999969482422 C-16.54800033569336,25.457000732421875 -16.111000061035156,27.461999893188477 -16.82900047302246,29.047000885009766 C-16.82900047302246,29.047000885009766 -18.301000595092773,32.1879997253418 -18.301000595092773,32.1879997253418 C-18.301000595092773,32.1879997253418 -11.46500015258789,35.39099884033203 -11.46500015258789,35.39099884033203 C-11.46500015258789,35.39099884033203 -9.861000061035156,32.04100036621094 -9.861000061035156,32.04100036621094 C-9.14900016784668,30.51799964904785 -7.341000080108643,29.5 -5.645999908447266,29.683000564575195 C-5.645999908447266,29.683000564575195 4.008999824523926,29.9689998626709 4.008999824523926,29.9689998626709 C4.058000087738037,29.966999053955078 4.107999801635742,29.965999603271484 4.1579999923706055,29.965999603271484z M0.028999999165534973,14.428000450134277 C-5.984000205993652,14.428000450134277 -11.411999702453613,10.630000114440918 -13.477999687194824,4.973999977111816 C-14.795999526977539,1.3660000562667847 -14.628999710083008,-2.5380001068115234 -13.01200008392334,-6.01800012588501 C-11.392999649047852,-9.49899959564209 -8.513999938964844,-12.142000198364258 -4.9039998054504395,-13.458999633789062 C-3.312999963760376,-14.039999961853027 -1.6549999713897705,-14.333999633789062 0.02500000037252903,-14.333999633789062 C6.039999961853027,-14.333999633789062 11.468999862670898,-10.536999702453613 13.532999992370605,-4.885000228881836 C16.25,2.563999891281128 12.402999877929688,10.836000442504883 4.960000038146973,13.553999900817871 C3.367000102996826,14.135000228881836 1.7079999446868896,14.428000450134277 0.028999999165534973,14.428000450134277z M0.02500000037252903,-10.85099983215332 C-1.246000051498413,-10.85099983215332 -2.503000020980835,-10.628000259399414 -3.7100000381469727,-10.187000274658203 C-6.446000099182129,-9.189000129699707 -8.628000259399414,-7.186999797821045 -9.854000091552734,-4.548999786376953 C-11.079999923706055,-1.9129999876022339 -11.204999923706055,1.0449999570846558 -10.206000328063965,3.7799999713897705 C-8.640999794006348,8.067000389099121 -4.5269999504089355,10.946000099182129 0.028999999165534973,10.946000099182129 C1.2999999523162842,10.946000099182129 2.558000087738037,10.722999572753906 3.7660000324249268,10.281999588012695 C9.406000137329102,8.222000122070312 12.319000244140625,1.9550000429153442 10.260000228881836,-3.690999984741211 C8.696000099182129,-7.9730000495910645 4.584000110626221,-10.85099983215332 0.02500000037252903,-10.85099983215332z"></path></g></g></g></svg>