<svg xmlns="http://www.w3.org/2000/svg" id="Layer_1" x="0" y="0" enable-background="new 0 0 800 600" version="1.1" viewBox="0 0 800 600" xml:space="preserve"><path fill="#336fa0" d="M144.78,101.37c2.63-15.2,17.07-25.38,32.27-22.76l507.28,87.69c15.2,2.63,25.38,17.07,22.76,32.27
			l-10.71,61.97l-562.31-97.2L144.78,101.37z"/><path fill="#b8cce8" d="M696.38,260.53l-41.16,238.1c-2.63,15.2-17.07,25.38-32.27,22.76L115.67,433.7
			c-15.2-2.63-25.38-17.07-22.76-32.27l41.16-238.1L696.38,260.53z"/><polygon fill="#aabed6" points="368.86 477.47 448.18 491.18 656.51 491.18 658.88 477.47"/><path fill="#caddfe" d="M114.68,210.63v241.63c0,15.42,12.5,27.92,27.92,27.92h514.8c15.42,0,27.92-12.5,27.92-27.92V210.63H114.68z
		"/><rect width="11.07" height="36.4" x="644.67" y="439.69" fill="#bcd0ed"/><rect width="11.07" height="36.4" x="624.35" y="439.69" fill="#bcd0ed"/><rect width="5.54" height="36.4" x="609.56" y="439.69" fill="#bcd0ed"/><rect width="13.3" height="36.4" x="586.26" y="439.69" fill="#bcd0ed"/><rect width="5.54" height="36.4" x="571.47" y="439.69" fill="#bcd0ed"/><rect width="11.07" height="36.4" x="545.61" y="439.69" fill="#bcd0ed"/><rect width="5.54" height="36.4" x="530.82" y="439.69" fill="#bcd0ed"/><rect width="5.54" height="36.4" x="515.81" y="439.69" fill="#bcd0ed"/><rect width="15.3" height="36.4" x="491.04" y="439.69" fill="#bcd0ed"/><rect width="11.07" height="36.4" x="470.72" y="439.69" fill="#bcd0ed"/><rect width="5.54" height="36.4" x="455.93" y="439.69" fill="#bcd0ed"/><rect width="11.07" height="36.4" x="436.64" y="439.69" fill="#bcd0ed"/><rect width="14.85" height="36.4" x="413.59" y="439.69" fill="#bcd0ed"/><rect width="5.54" height="36.4" x="398.8" y="439.69" fill="#bcd0ed"/><rect width="5.54" height="36.4" x="385.86" y="439.69" fill="#bcd0ed"/><rect width="11.07" height="36.4" x="365.54" y="439.69" fill="#bcd0ed"/><rect width="15.44" height="36.4" x="341.26" y="439.69" fill="#bcd0ed"/><rect width="3.72" height="36.4" x="328.96" y="439.69" fill="#bcd0ed"/><path fill="#3974af" d="M685.32,147.74c0-15.42-12.5-27.92-27.92-27.92H142.6c-15.42,0-27.92,12.5-27.92,27.92v62.89h570.64V147.74z"/><path fill="#306a99" d="M187.36,148.71h17.39c3.43,0,6.2,0.47,8.31,1.4c2.11,0.93,3.85,2.27,5.23,4.01c1.38,1.74,2.38,3.76,3,6.07
				s0.93,4.76,0.93,7.34c0,4.05-0.46,7.19-1.38,9.42c-0.92,2.23-2.2,4.1-3.84,5.61c-1.64,1.51-3.39,2.51-5.27,3.01
				c-2.57,0.69-4.89,1.03-6.98,1.03h-17.39V148.71z M199.07,157.29v20.7h2.87c2.45,0,4.19-0.27,5.22-0.81
				c1.03-0.54,1.84-1.49,2.43-2.84s0.88-3.54,0.88-6.58c0-4.01-0.65-6.76-1.96-8.24c-1.31-1.48-3.48-2.22-6.51-2.22H199.07z"/><path fill="#306a99" d="M227.78,159.15h9.85v4.5c0.95-1.95,1.93-3.29,2.93-4.02s2.25-1.1,3.73-1.1c1.55,0,3.25,0.48,5.09,1.45
				l-3.26,7.49c-1.24-0.52-2.22-0.78-2.95-0.78c-1.38,0-2.45,0.57-3.2,1.71c-1.09,1.6-1.63,4.6-1.63,8.99v9.2h-10.57V159.15z"/><path fill="#306a99" d="M251.56,148.71h10.52v7.16h-10.52V148.71z M251.56,159.15h10.52v27.45h-10.52V159.15z"/><path fill="#306a99" d="M265.69,159.15h10.94l5.32,17.39l5.52-17.39h10.62l-11.66,27.45h-9.33L265.69,159.15z"/><path fill="#306a99" d="M301.51,148.71h10.52v7.16h-10.52V148.71z M301.51,159.15h10.52v27.45h-10.52V159.15z"/><path fill="#306a99" d="M318.75,159.15h9.79v4.47c1.46-1.83,2.95-3.13,4.45-3.92c1.5-0.78,3.33-1.18,5.48-1.18
				c2.91,0,5.19,0.87,6.84,2.6c1.65,1.73,2.47,4.41,2.47,8.02v17.44H337.2V171.5c0-1.72-0.32-2.94-0.96-3.66
				c-0.64-0.71-1.53-1.07-2.69-1.07c-1.27,0-2.31,0.48-3.1,1.45c-0.79,0.96-1.19,2.7-1.19,5.19v13.18h-10.52V159.15z"/><path fill="#306a99" d="M373.15,159.15H383v25.92l0.03,1.21c0,1.72-0.37,3.36-1.1,4.92c-0.73,1.56-1.71,2.82-2.92,3.79
				c-1.21,0.96-2.76,1.66-4.63,2.09c-1.87,0.43-4.01,0.65-6.42,0.65c-5.51,0-9.3-0.83-11.36-2.48c-2.06-1.65-3.09-3.87-3.09-6.64
				c0-0.34,0.02-0.81,0.05-1.4l10.21,1.16c0.26,0.95,0.65,1.6,1.19,1.96c0.78,0.53,1.75,0.8,2.92,0.8c1.52,0,2.65-0.4,3.4-1.21
				s1.12-2.22,1.12-4.24v-4.16c-1.03,1.22-2.07,2.11-3.1,2.66c-1.62,0.86-3.37,1.29-5.25,1.29c-3.67,0-6.63-1.6-8.89-4.81
				c-1.6-2.27-2.4-5.28-2.4-9.02c0-4.27,1.03-7.53,3.1-9.77c2.07-2.24,4.77-3.36,8.11-3.36c2.14,0,3.9,0.36,5.28,1.09
				c1.39,0.72,2.68,1.92,3.89,3.59V159.15z M363.25,172.46c0,1.98,0.42,3.45,1.27,4.41c0.84,0.96,1.96,1.43,3.33,1.43
				c1.31,0,2.41-0.5,3.3-1.49s1.33-2.49,1.33-4.48c0-2-0.47-3.53-1.4-4.59s-2.07-1.59-3.41-1.59s-2.42,0.49-3.22,1.46
				C363.65,168.59,363.25,170.2,363.25,172.46z"/><path fill="#306a99" d="M407.7,148.71h11.71v28.56h18.27v9.33H407.7V148.71z"/><path fill="#306a99" d="M442.69,148.71h10.52v7.16h-10.52V148.71z M442.69,159.15h10.52v27.45h-10.52V159.15z"/><path fill="#306a99" d="M480.4,175.85l10,1.14c-0.55,2.08-1.46,3.89-2.71,5.41c-1.26,1.52-2.86,2.71-4.82,3.55
				c-1.96,0.84-4.44,1.27-7.46,1.27c-2.91,0-5.34-0.27-7.27-0.81c-1.94-0.54-3.61-1.42-5-2.63c-1.4-1.21-2.49-2.64-3.28-4.27
				c-0.79-1.64-1.19-3.81-1.19-6.51c0-2.82,0.48-5.17,1.45-7.05c0.71-1.37,1.67-2.61,2.89-3.7c1.22-1.09,2.48-1.9,3.77-2.44
				c2.05-0.84,4.68-1.27,7.88-1.27c4.48,0,7.9,0.8,10.25,2.4c2.35,1.6,4,3.95,4.95,7.03l-9.9,1.32c-0.31-1.17-0.87-2.05-1.69-2.65
				c-0.82-0.59-1.92-0.89-3.3-0.89c-1.74,0-3.15,0.62-4.23,1.87c-1.08,1.25-1.62,3.14-1.62,5.66c0,2.25,0.53,3.96,1.6,5.13
				c1.07,1.17,2.43,1.75,4.08,1.75c1.38,0,2.54-0.35,3.48-1.06C479.23,178.4,479.93,177.31,480.4,175.85z"/><path fill="#306a99" d="M525.7,175.48h-21.09c0.19,1.69,0.65,2.95,1.37,3.77c1.02,1.19,2.34,1.78,3.98,1.78
				c1.03,0,2.02-0.26,2.95-0.78c0.57-0.33,1.18-0.9,1.83-1.73l10.36,0.96c-1.59,2.76-3.5,4.73-5.74,5.93
				c-2.24,1.2-5.45,1.8-9.64,1.8c-3.64,0-6.5-0.51-8.58-1.54c-2.08-1.03-3.81-2.65-5.18-4.88c-1.37-2.23-2.05-4.85-2.05-7.87
				c0-4.29,1.37-7.76,4.12-10.41c2.75-2.65,6.54-3.98,11.38-3.98c3.93,0,7.03,0.59,9.3,1.78c2.27,1.19,4.01,2.91,5.19,5.17
				c1.19,2.26,1.78,5.19,1.78,8.81V175.48z M515,170.45c-0.21-2.03-0.75-3.49-1.64-4.37c-0.89-0.88-2.05-1.32-3.5-1.32
				c-1.67,0-3.01,0.66-4.01,1.99c-0.64,0.83-1.04,2.06-1.21,3.7H515z"/><path fill="#306a99" d="M530.54,159.15h9.79v4.47c1.46-1.83,2.95-3.13,4.45-3.92c1.5-0.78,3.33-1.18,5.48-1.18
				c2.91,0,5.19,0.87,6.84,2.6c1.65,1.73,2.47,4.41,2.47,8.02v17.44h-10.57V171.5c0-1.72-0.32-2.94-0.96-3.66
				c-0.64-0.71-1.53-1.07-2.69-1.07c-1.27,0-2.31,0.48-3.1,1.45c-0.79,0.96-1.19,2.7-1.19,5.19v13.18h-10.52V159.15z"/><path fill="#306a99" d="M563.98,178.97l10.44-0.98c0.43,1.24,1.03,2.13,1.81,2.66c0.78,0.53,1.81,0.8,3.1,0.8
				c1.41,0,2.51-0.3,3.28-0.9c0.6-0.45,0.9-1,0.9-1.68c0-0.76-0.4-1.34-1.19-1.75c-0.57-0.29-2.08-0.65-4.52-1.09
				c-3.65-0.64-6.19-1.23-7.61-1.77c-1.42-0.54-2.62-1.46-3.59-2.75c-0.97-1.29-1.46-2.76-1.46-4.41c0-1.81,0.53-3.36,1.58-4.67
				c1.05-1.31,2.5-2.28,4.34-2.93c1.84-0.65,4.32-0.97,7.42-0.97c3.27,0,5.69,0.25,7.25,0.75c1.56,0.5,2.86,1.27,3.9,2.33
				c1.04,1.05,1.91,2.47,2.6,4.26l-9.98,0.98c-0.26-0.88-0.69-1.52-1.29-1.94c-0.83-0.55-1.83-0.83-3-0.83
				c-1.19,0-2.05,0.21-2.6,0.63c-0.54,0.42-0.81,0.93-0.81,1.53c0,0.67,0.34,1.18,1.03,1.52c0.69,0.34,2.19,0.65,4.5,0.93
				c3.5,0.4,6.1,0.95,7.8,1.65c1.71,0.71,3.01,1.71,3.92,3.02c0.9,1.31,1.36,2.75,1.36,4.31c0,1.59-0.48,3.13-1.43,4.62
				c-0.96,1.5-2.46,2.69-4.52,3.57c-2.06,0.89-4.86,1.33-8.41,1.33c-5.01,0-8.58-0.71-10.71-2.14S564.58,181.61,563.98,178.97z"/><path fill="#306a99" d="M628.64,175.48h-21.09c0.19,1.69,0.65,2.95,1.37,3.77c1.02,1.19,2.34,1.78,3.98,1.78
				c1.03,0,2.02-0.26,2.95-0.78c0.57-0.33,1.18-0.9,1.83-1.73l10.36,0.96c-1.59,2.76-3.5,4.73-5.74,5.93
				c-2.24,1.2-5.45,1.8-9.64,1.8c-3.64,0-6.5-0.51-8.58-1.54c-2.08-1.03-3.81-2.65-5.18-4.88c-1.37-2.23-2.05-4.85-2.05-7.87
				c0-4.29,1.37-7.76,4.12-10.41s6.54-3.98,11.38-3.98c3.93,0,7.03,0.59,9.3,1.78c2.27,1.19,4.01,2.91,5.19,5.17
				c1.19,2.26,1.78,5.19,1.78,8.81V175.48z M617.94,170.45c-0.21-2.03-0.75-3.49-1.64-4.37c-0.89-0.88-2.05-1.32-3.5-1.32
				c-1.67,0-3.01,0.66-4.01,1.99c-0.64,0.83-1.04,2.06-1.21,3.7H617.94z"/><path fill="#bcd0ed" d="M165.74,257.06v124.6c0,5.94,4.82,10.76,10.76,10.76h112.61c5.94,0,10.76-4.82,10.76-10.76v-124.6
		c0-5.94-4.82-10.76-10.76-10.76H176.51C170.56,246.29,165.74,251.11,165.74,257.06z"/><path fill="#bcd0ed" d="M347.28,264.46h137.49c5.02,0,9.08-4.07,9.08-9.08c0-5.02-4.07-9.08-9.08-9.08H347.28
		c-5.02,0-9.08,4.07-9.08,9.08C338.2,260.39,342.26,264.46,347.28,264.46z"/><path fill="#bcd0ed" d="M611.83,289.67H338.67c-3.24,0-5.86,2.62-5.86,5.86l0,0c0,3.24,2.62,5.86,5.86,5.86h273.15
		c3.24,0,5.86-2.62,5.86-5.86l0,0C617.68,292.3,615.06,289.67,611.83,289.67z"/><path fill="#bcd0ed" d="M611.83,328.71H338.67c-3.24,0-5.86,2.62-5.86,5.86l0,0c0,3.24,2.62,5.86,5.86,5.86h273.15
		c3.24,0,5.86-2.62,5.86-5.86l0,0C617.68,331.33,615.06,328.71,611.83,328.71z"/><path fill="#bcd0ed" d="M431.33,367.74h-92.66c-3.24,0-5.86,2.62-5.86,5.86v0c0,3.23,2.62,5.86,5.86,5.86h92.66
				c3.24,0,5.86-2.62,5.86-5.86v0C437.19,370.36,434.57,367.74,431.33,367.74z"/><path fill="#bcd0ed" d="M652.89,367.74h-92.66c-3.24,0-5.86,2.62-5.86,5.86v0c0,3.23,2.62,5.86,5.86,5.86h92.66
				c3.24,0,5.86-2.62,5.86-5.86v0C658.75,370.36,656.13,367.74,652.89,367.74z"/><path fill="#bcd0ed" d="M431.33,406.77h-92.66c-3.24,0-5.86,2.62-5.86,5.86v0c0,3.23,2.62,5.86,5.86,5.86h92.66
				c3.24,0,5.86-2.62,5.86-5.86v0C437.19,409.39,434.57,406.77,431.33,406.77z"/><path fill="#bcd0ed" d="M652.89,406.77h-92.66c-3.24,0-5.86,2.62-5.86,5.86v0c0,3.23,2.62,5.86,5.86,5.86h92.66
				c3.24,0,5.86-2.62,5.86-5.86v0C658.75,409.39,656.13,406.77,652.89,406.77z"/><path fill="#5ab8ba" d="M155.74,247.06v124.6c0,5.94,4.82,10.76,10.76,10.76h112.61c5.94,0,10.76-4.82,10.76-10.76v-124.6
		c0-5.94-4.82-10.76-10.76-10.76H166.51C160.56,236.29,155.74,241.11,155.74,247.06z"/><path fill="#d6937f" d="M240.45,332.68c-6.5-2.39-6.96-13.51-6.96-13.51l-10.68-7.35l-10.68,7.35c0,0-0.46,11.12-6.96,13.51
			l17.64,20.24L240.45,332.68z"/><path fill="#db9d8f" d="M248.03,291.74c0,16.47-11.29,29.79-25.22,29.79c-13.91,0-25.22-13.33-25.22-29.79
			c0-1.14,0.05-2.29,0.17-3.41c9.24-1,13.28-13.11,13.28-13.11c10.9,7.56,23.64,5.03,33.27,0.92
			C246.66,280.7,248.03,286.03,248.03,291.74z"/><path fill="#373a47" d="M273.78,368.98c-2.46-16.93-15.99-30.87-34.14-36.3c-5.05,2.89-10.76,4.55-16.83,4.55
			c-6.07,0-11.79-1.66-16.83-4.55c-18.15,5.44-31.68,19.37-34.14,36.3H273.78z"/><path fill="#373a47" d="M259.09,267.52c0,0-6.13,4.94-14.79,8.63c-9.63,4.11-22.38,6.64-33.27-0.92c0,0-4.04,12.11-13.28,13.11
			c-0.05,0.02-0.12,0.02-0.17,0.02c0,0-10.41-22.84,8.54-26.39C206.12,261.97,227.86,231.03,259.09,267.52z"/><path fill="#f44040" d="M337.28,254.46h137.49c5.02,0,9.08-4.07,9.08-9.08c0-5.02-4.07-9.08-9.08-9.08H337.28
		c-5.02,0-9.08,4.07-9.08,9.08C328.2,250.39,332.26,254.46,337.28,254.46z"/><path fill="#5ab8ba" d="M601.83,279.67H328.67c-3.24,0-5.86,2.62-5.86,5.86l0,0c0,3.24,2.62,5.86,5.86,5.86h273.15
		c3.24,0,5.86-2.62,5.86-5.86l0,0C607.68,282.3,605.06,279.67,601.83,279.67z"/><path fill="#5ab8ba" d="M601.83,318.71H328.67c-3.24,0-5.86,2.62-5.86,5.86l0,0c0,3.24,2.62,5.86,5.86,5.86h273.15
		c3.24,0,5.86-2.62,5.86-5.86l0,0C607.68,321.33,605.06,318.71,601.83,318.71z"/><path fill="#5ab8ba" d="M421.33,357.74h-92.66c-3.24,0-5.86,2.62-5.86,5.86v0c0,3.23,2.62,5.86,5.86,5.86h92.66
			c3.24,0,5.86-2.62,5.86-5.86v0C427.19,360.36,424.57,357.74,421.33,357.74z"/><path fill="#5ab8ba" d="M642.89,357.74h-92.66c-3.24,0-5.86,2.62-5.86,5.86v0c0,3.23,2.62,5.86,5.86,5.86h92.66
			c3.24,0,5.86-2.62,5.86-5.86v0C648.75,360.36,646.13,357.74,642.89,357.74z"/><path fill="#5ab8ba" d="M421.33,396.77h-92.66c-3.24,0-5.86,2.62-5.86,5.86v0c0,3.23,2.62,5.86,5.86,5.86h92.66
			c3.24,0,5.86-2.62,5.86-5.86v0C427.19,399.39,424.57,396.77,421.33,396.77z"/><path fill="#5ab8ba" d="M642.89,396.77h-92.66c-3.24,0-5.86,2.62-5.86,5.86v0c0,3.23,2.62,5.86,5.86,5.86h92.66
			c3.24,0,5.86-2.62,5.86-5.86v0C648.75,399.39,646.13,396.77,642.89,396.77z"/><g><path fill="#bcd0ed" d="M265.92,453.38c-4.36,0-8.56-2.97-10.57-6.59c-2.34-4.23-2.47-9.14-2.26-13.83l0.05-1.14
			c0.05-1.06,0.1-2.09,0.12-3.11l-10.95,16.88c-1.92,2.97-4.44,3.12-6,2.35c-1.52-0.76-2.05-2.21-2.28-2.84l-4.06-11.17l-0.01,0.01
			c-3.98,2.41-8.09,4.91-12.91,5.91c-6.05,1.26-12.1-0.52-15.42-4.54c-1.02-1.23-1.8-2.63-2.56-3.98c-1.44-2.55-2.4-4.1-3.67-4.14
			c-1.69-0.02-3.1,3.16-3.71,6.37l-5.62-1.05c1.32-7.03,4.68-11.04,9.25-11.04c0.09,0,0.17,0,0.26,0c4.58,0.15,6.73,3.98,8.46,7.05
			c0.67,1.18,1.3,2.3,1.99,3.15c2.4,2.91,6.8,3.21,9.84,2.58c3.86-0.8,7.38-2.94,11.11-5.2l0.42-0.26c0.76-0.46,3.06-1.85,5.39-0.55
			c1.49,0.83,2.02,2.3,2.28,3.01l3.49,9.6l17.38-26.8l1.89,5.6c1.4,4.14,1.2,8.36,1.01,12.45l-0.05,1.12
			c-0.16,3.58-0.18,7.67,1.56,10.81c1.34,2.41,4.52,4.4,6.94,3.36l2.24,5.26C268.35,453.15,267.13,453.38,265.92,453.38z"/></g><rect width="11.07" height="36.4" x="637.67" y="432.69" fill="#3974af"/><rect width="11.07" height="36.4" x="617.35" y="432.69" fill="#3974af"/><rect width="5.54" height="36.4" x="602.56" y="432.69" fill="#3974af"/><rect width="13.3" height="36.4" x="579.26" y="432.69" fill="#3974af"/><rect width="5.54" height="36.4" x="564.47" y="432.69" fill="#3974af"/><rect width="11.07" height="36.4" x="538.61" y="432.69" fill="#3974af"/><rect width="5.54" height="36.4" x="523.82" y="432.69" fill="#3974af"/><rect width="5.54" height="36.4" x="508.81" y="432.69" fill="#3974af"/><rect width="15.3" height="36.4" x="484.04" y="432.69" fill="#3974af"/><rect width="11.07" height="36.4" x="463.72" y="432.69" fill="#3974af"/><rect width="5.54" height="36.4" x="448.93" y="432.69" fill="#3974af"/><rect width="11.07" height="36.4" x="429.64" y="432.69" fill="#3974af"/><rect width="14.85" height="36.4" x="406.59" y="432.69" fill="#3974af"/><rect width="5.54" height="36.4" x="391.8" y="432.69" fill="#3974af"/><rect width="5.54" height="36.4" x="378.86" y="432.69" fill="#3974af"/><rect width="11.07" height="36.4" x="358.54" y="432.69" fill="#3974af"/><rect width="15.44" height="36.4" x="334.26" y="432.69" fill="#3974af"/><rect width="3.72" height="36.4" x="321.96" y="432.69" fill="#3974af"/><g><path fill="#373a47" d="M260.92,448.38c-4.36,0-8.56-2.97-10.57-6.59c-2.34-4.23-2.47-9.14-2.26-13.83l0.05-1.14
			c0.05-1.06,0.1-2.09,0.12-3.11l-10.95,16.88c-1.92,2.97-4.44,3.12-6,2.35c-1.52-0.76-2.05-2.21-2.28-2.84l-4.06-11.17l-0.01,0.01
			c-3.98,2.41-8.09,4.91-12.91,5.91c-6.05,1.26-12.1-0.52-15.42-4.54c-1.02-1.23-1.8-2.63-2.56-3.98c-1.44-2.55-2.4-4.1-3.67-4.14
			c-1.69-0.02-3.1,3.16-3.71,6.37l-5.62-1.05c1.32-7.03,4.68-11.04,9.25-11.04c0.09,0,0.17,0,0.26,0c4.58,0.15,6.73,3.98,8.46,7.05
			c0.67,1.18,1.3,2.3,1.99,3.15c2.4,2.91,6.8,3.21,9.84,2.58c3.86-0.8,7.38-2.94,11.11-5.2l0.42-0.26c0.76-0.46,3.06-1.85,5.39-0.55
			c1.49,0.83,2.02,2.3,2.28,3.01l3.49,9.6l17.38-26.8l1.89,5.6c1.4,4.14,1.2,8.36,1.01,12.45l-0.05,1.12
			c-0.16,3.58-0.18,7.67,1.56,10.81c1.34,2.41,4.52,4.4,6.94,3.36l2.24,5.26C263.35,448.15,262.13,448.38,260.92,448.38z"/></g><g><path fill="#e8e8ea" d="M179.36,140.71h17.39c3.43,0,6.2,0.47,8.31,1.4c2.11,0.93,3.85,2.27,5.23,4.01c1.38,1.74,2.38,3.76,3,6.07
			s0.93,4.76,0.93,7.34c0,4.05-0.46,7.19-1.38,9.42c-0.92,2.23-2.2,4.1-3.84,5.61c-1.64,1.51-3.39,2.51-5.27,3.01
			c-2.57,0.69-4.89,1.03-6.98,1.03h-17.39V140.71z M191.07,149.29v20.7h2.87c2.45,0,4.19-0.27,5.22-0.81
			c1.03-0.54,1.84-1.49,2.43-2.84s0.88-3.54,0.88-6.58c0-4.01-0.65-6.76-1.96-8.24c-1.31-1.48-3.48-2.22-6.51-2.22H191.07z"/><path fill="#e8e8ea" d="M219.78,151.15h9.85v4.5c0.95-1.95,1.93-3.29,2.93-4.02s2.25-1.1,3.73-1.1c1.55,0,3.25,0.48,5.09,1.45
			l-3.26,7.49c-1.24-0.52-2.22-0.78-2.95-0.78c-1.38,0-2.45,0.57-3.2,1.71c-1.09,1.6-1.63,4.6-1.63,8.99v9.2h-10.57V151.15z"/><path fill="#e8e8ea" d="M243.56,140.71h10.52v7.16h-10.52V140.71z M243.56,151.15h10.52v27.45h-10.52V151.15z"/><path fill="#e8e8ea" d="M257.69,151.15h10.94l5.32,17.39l5.52-17.39h10.62l-11.66,27.45h-9.33L257.69,151.15z"/><path fill="#e8e8ea" d="M293.51,140.71h10.52v7.16h-10.52V140.71z M293.51,151.15h10.52v27.45h-10.52V151.15z"/><path fill="#e8e8ea" d="M310.75,151.15h9.79v4.47c1.46-1.83,2.95-3.13,4.45-3.92c1.5-0.78,3.33-1.18,5.48-1.18
			c2.91,0,5.19,0.87,6.84,2.6c1.65,1.73,2.47,4.41,2.47,8.02v17.44H329.2V163.5c0-1.72-0.32-2.94-0.96-3.66
			c-0.64-0.71-1.53-1.07-2.69-1.07c-1.27,0-2.31,0.48-3.1,1.45c-0.79,0.96-1.19,2.7-1.19,5.19v13.18h-10.52V151.15z"/><path fill="#e8e8ea" d="M365.15,151.15H375v25.92l0.03,1.21c0,1.72-0.37,3.36-1.1,4.92c-0.73,1.56-1.71,2.82-2.92,3.79
			c-1.21,0.96-2.76,1.66-4.63,2.09c-1.87,0.43-4.01,0.65-6.42,0.65c-5.51,0-9.3-0.83-11.36-2.48c-2.06-1.65-3.09-3.87-3.09-6.64
			c0-0.34,0.02-0.81,0.05-1.4l10.21,1.16c0.26,0.95,0.65,1.6,1.19,1.96c0.78,0.53,1.75,0.8,2.92,0.8c1.52,0,2.65-0.4,3.4-1.21
			s1.12-2.22,1.12-4.24v-4.16c-1.03,1.22-2.07,2.11-3.1,2.66c-1.62,0.86-3.37,1.29-5.25,1.29c-3.67,0-6.63-1.6-8.89-4.81
			c-1.6-2.27-2.4-5.28-2.4-9.02c0-4.27,1.03-7.53,3.1-9.77c2.07-2.24,4.77-3.36,8.11-3.36c2.14,0,3.9,0.36,5.28,1.09
			c1.39,0.72,2.68,1.92,3.89,3.59V151.15z M355.25,164.46c0,1.98,0.42,3.45,1.27,4.41c0.84,0.96,1.96,1.43,3.33,1.43
			c1.31,0,2.41-0.5,3.3-1.49s1.33-2.49,1.33-4.48c0-2-0.47-3.53-1.4-4.59s-2.07-1.59-3.41-1.59s-2.42,0.49-3.22,1.46
			C355.65,160.59,355.25,162.2,355.25,164.46z"/><path fill="#e8e8ea" d="M399.7,140.71h11.71v28.56h18.27v9.33H399.7V140.71z"/><path fill="#e8e8ea" d="M434.69,140.71h10.52v7.16h-10.52V140.71z M434.69,151.15h10.52v27.45h-10.52V151.15z"/><path fill="#e8e8ea" d="M472.4,167.85l10,1.14c-0.55,2.08-1.46,3.89-2.71,5.41c-1.26,1.52-2.86,2.71-4.82,3.55
			c-1.96,0.84-4.44,1.27-7.46,1.27c-2.91,0-5.34-0.27-7.27-0.81c-1.94-0.54-3.61-1.42-5-2.63c-1.4-1.21-2.49-2.64-3.28-4.27
			c-0.79-1.64-1.19-3.81-1.19-6.51c0-2.82,0.48-5.17,1.45-7.05c0.71-1.37,1.67-2.61,2.89-3.7c1.22-1.09,2.48-1.9,3.77-2.44
			c2.05-0.84,4.68-1.27,7.88-1.27c4.48,0,7.9,0.8,10.25,2.4c2.35,1.6,4,3.95,4.95,7.03l-9.9,1.32c-0.31-1.17-0.87-2.05-1.69-2.65
			c-0.82-0.59-1.92-0.89-3.3-0.89c-1.74,0-3.15,0.62-4.23,1.87c-1.08,1.25-1.62,3.14-1.62,5.66c0,2.25,0.53,3.96,1.6,5.13
			c1.07,1.17,2.43,1.75,4.08,1.75c1.38,0,2.54-0.35,3.48-1.06C471.23,170.4,471.93,169.31,472.4,167.85z"/><path fill="#e8e8ea" d="M517.7,167.48h-21.09c0.19,1.69,0.65,2.95,1.37,3.77c1.02,1.19,2.34,1.78,3.98,1.78
			c1.03,0,2.02-0.26,2.95-0.78c0.57-0.33,1.18-0.9,1.83-1.73l10.36,0.96c-1.59,2.76-3.5,4.73-5.74,5.93c-2.24,1.2-5.45,1.8-9.64,1.8
			c-3.64,0-6.5-0.51-8.58-1.54c-2.08-1.03-3.81-2.65-5.18-4.88c-1.37-2.23-2.05-4.85-2.05-7.87c0-4.29,1.37-7.76,4.12-10.41
			c2.75-2.65,6.54-3.98,11.38-3.98c3.93,0,7.03,0.59,9.3,1.78c2.27,1.19,4.01,2.91,5.19,5.17c1.19,2.26,1.78,5.19,1.78,8.81V167.48z
			 M507,162.45c-0.21-2.03-0.75-3.49-1.64-4.37c-0.89-0.88-2.05-1.32-3.5-1.32c-1.67,0-3.01,0.66-4.01,1.99
			c-0.64,0.83-1.04,2.06-1.21,3.7H507z"/><path fill="#e8e8ea" d="M522.54,151.15h9.79v4.47c1.46-1.83,2.95-3.13,4.45-3.92c1.5-0.78,3.33-1.18,5.48-1.18
			c2.91,0,5.19,0.87,6.84,2.6c1.65,1.73,2.47,4.41,2.47,8.02v17.44h-10.57V163.5c0-1.72-0.32-2.94-0.96-3.66
			c-0.64-0.71-1.53-1.07-2.69-1.07c-1.27,0-2.31,0.48-3.1,1.45c-0.79,0.96-1.19,2.7-1.19,5.19v13.18h-10.52V151.15z"/><path fill="#e8e8ea" d="M555.98,170.97l10.44-0.98c0.43,1.24,1.03,2.13,1.81,2.66c0.78,0.53,1.81,0.8,3.1,0.8
			c1.41,0,2.51-0.3,3.28-0.9c0.6-0.45,0.9-1,0.9-1.68c0-0.76-0.4-1.34-1.19-1.75c-0.57-0.29-2.08-0.65-4.52-1.09
			c-3.65-0.64-6.19-1.23-7.61-1.77c-1.42-0.54-2.62-1.46-3.59-2.75c-0.97-1.29-1.46-2.76-1.46-4.41c0-1.81,0.53-3.36,1.58-4.67
			c1.05-1.31,2.5-2.28,4.34-2.93c1.84-0.65,4.32-0.97,7.42-0.97c3.27,0,5.69,0.25,7.25,0.75c1.56,0.5,2.86,1.27,3.9,2.33
			c1.04,1.05,1.91,2.47,2.6,4.26l-9.98,0.98c-0.26-0.88-0.69-1.52-1.29-1.94c-0.83-0.55-1.83-0.83-3-0.83
			c-1.19,0-2.05,0.21-2.6,0.63c-0.54,0.42-0.81,0.93-0.81,1.53c0,0.67,0.34,1.18,1.03,1.52c0.69,0.34,2.19,0.65,4.5,0.93
			c3.5,0.4,6.1,0.95,7.8,1.65c1.71,0.71,3.01,1.71,3.92,3.02c0.9,1.31,1.36,2.75,1.36,4.31c0,1.59-0.48,3.13-1.43,4.62
			c-0.96,1.5-2.46,2.69-4.52,3.57c-2.06,0.89-4.86,1.33-8.41,1.33c-5.01,0-8.58-0.71-10.71-2.14S556.58,173.61,555.98,170.97z"/><path fill="#e8e8ea" d="M620.64,167.48h-21.09c0.19,1.69,0.65,2.95,1.37,3.77c1.02,1.19,2.34,1.78,3.98,1.78
			c1.03,0,2.02-0.26,2.95-0.78c0.57-0.33,1.18-0.9,1.83-1.73l10.36,0.96c-1.59,2.76-3.5,4.73-5.74,5.93c-2.24,1.2-5.45,1.8-9.64,1.8
			c-3.64,0-6.5-0.51-8.58-1.54c-2.08-1.03-3.81-2.65-5.18-4.88c-1.37-2.23-2.05-4.85-2.05-7.87c0-4.29,1.37-7.76,4.12-10.41
			s6.54-3.98,11.38-3.98c3.93,0,7.03,0.59,9.3,1.78c2.27,1.19,4.01,2.91,5.19,5.17c1.19,2.26,1.78,5.19,1.78,8.81V167.48z
			 M609.94,162.45c-0.21-2.03-0.75-3.49-1.64-4.37c-0.89-0.88-2.05-1.32-3.5-1.32c-1.67,0-3.01,0.66-4.01,1.99
			c-0.64,0.83-1.04,2.06-1.21,3.7H609.94z"/></g></svg>