<svg xmlns="http://www.w3.org/2000/svg" xml:space="preserve" width="2.504in" height="0.698791in"
    version="1.1"
    style="shape-rendering:geometricPrecision; text-rendering:geometricPrecision; image-rendering:optimizeQuality; fill-rule:evenodd; clip-rule:evenodd"
    viewBox="0 0 827 231"
    xmlns:xlink="http://www.w3.org/1999/xlink">
 <defs>
  <style type="text/css">
   <![CDATA[
    .fil1 {fill:#fff}
    .fil0 {fill:#fff;fill-rule:nonzero}
    .fil2 {fill:#fff;fill-rule:nonzero}
   ]]>
  </style>
 </defs>
 <g id="Layer_x0020_1">
  <metadata id="CorelCorpID_0Corel-Layer"/>
  <path class="fil0" d="M7 134l48 0c38,0 65,-25 65,-63 0,-38 -27,-63 -65,-63l-48 0c-4,0 -6,2 -6,6l0 114c0,4 2,6 6,6zm33 -31l0 -64 13 0c12,0 28,8 28,32 0,24 -16,32 -28,32l-13 0z"/>
  <path class="fil0" d="M187 8l-2 0c-3,0 -5,1 -7,4l-61 115c-2,4 0,7 4,7l30 0c4,0 6,-2 7,-4l7 -14 42 0 7 14c2,2 4,4 7,4l30 0c4,0 6,-3 4,-7l-61 -115c-1,-3 -4,-4 -7,-4zm-11 81l10 -25 10 25 -20 0z"/>
  <path class="fil0" d="M380 128l0 -114c0,-4 -2,-6 -6,-6l-27 0c-3,0 -5,2 -5,6l0 51 -60 -54c-3,-2 -5,-3 -7,-3l-5 0c-4,0 -6,2 -6,6l0 114c0,4 2,6 6,6l27 0c4,0 6,-2 6,-6l0 -51 60 54c2,2 4,3 7,3l4 0c4,0 6,-2 6,-6z"/>
  <path class="fil0" d="M520 128l0 -114c0,-4 -2,-6 -6,-6l-27 0c-3,0 -6,2 -6,6l0 51 -59 -54c-3,-2 -5,-3 -7,-3l-5 0c-4,0 -6,2 -6,6l0 114c0,4 2,6 6,6l27 0c4,0 6,-2 6,-6l0 -51 60 54c2,2 4,3 7,3l4 0c4,0 6,-2 6,-6z"/>
  <path class="fil0" d="M806 128l0 -114c0,-4 -2,-6 -6,-6l-27 0c-3,0 -5,2 -5,6l0 51 -60 -54c-3,-2 -5,-3 -7,-3l-5 0c-4,0 -6,2 -6,6l0 114c0,4 2,6 6,6l27 0c4,0 6,-2 6,-6l0 -51 60 54c2,2 4,3 7,3l4 0c4,0 6,-2 6,-6z"/>
  <path class="fil0" d="M699 161l0 -5 14 0 0 11c-3,2 -5,3 -7,3 -2,1 -4,1 -7,1 -4,0 -6,0 -8,-1 -3,-1 -4,-3 -5,-5 -2,-2 -2,-5 -2,-7 0,-3 1,-5 2,-8 1,-2 3,-3 5,-4 2,-1 5,-2 8,-2 3,0 6,1 7,1 2,1 3,2 4,3 1,1 2,2 2,4l-8 1c0,-1 -1,-2 -2,-2 -1,-1 -2,-1 -3,-1 -2,0 -3,1 -5,2 -1,1 -1,3 -1,6 0,3 0,4 1,6 2,1 3,1 5,1 1,0 2,0 3,0 1,0 2,-1 3,-1l0 -3 -6 0z"/>
  <path id="1" class="fil0" d="M718 152l7 0 0 3c1,-1 1,-2 2,-3 1,0 2,0 3,0 1,0 2,0 4,1l-3 5c-1,-1 -1,-1 -2,-1 -1,0 -2,1 -2,1 -1,1 -2,3 -2,6l0 7 -7 0 0 -19z"/>
  <path id="2" class="fil0" d="M735 161c0,-2 1,-5 3,-7 2,-1 5,-2 8,-2 5,0 8,1 10,3 1,2 2,4 2,6 0,3 -1,6 -3,7 -2,2 -5,3 -8,3 -4,0 -6,-1 -8,-2 -3,-2 -4,-5 -4,-8zm8 0c0,2 0,3 1,4 0,1 1,1 3,1 1,0 2,0 2,-1 1,-1 1,-2 1,-4 0,-1 0,-2 -1,-3 0,-1 -1,-1 -2,-1 -2,0 -2,0 -3,1 -1,1 -1,2 -1,3z"/>
  <path id="3" class="fil0" d="M784 171l-8 0 0 -3c-1,1 -2,2 -3,2 -1,1 -2,1 -4,1 -2,0 -4,0 -5,-2 -1,-1 -2,-3 -2,-5l0 -12 8 0 0 10c0,1 0,2 1,3 0,0 1,1 2,1 1,0 1,-1 2,-1 1,-1 1,-2 1,-4l0 -9 8 0 0 19z"/>
  <path id="4" class="fil0" d="M789 178l0 -26 7 0 0 3c1,-1 2,-2 3,-3 1,0 2,0 4,0 2,0 4,1 6,2 1,2 2,5 2,8 0,3 -1,5 -2,7 -2,1 -4,2 -6,2 -2,0 -3,0 -4,0 -1,-1 -2,-1 -2,-2l0 9 -8 0zm8 -17c0,2 0,3 1,4 0,0 1,1 2,1 1,0 2,-1 2,-1 1,-1 1,-2 1,-4 0,-1 0,-2 -1,-3 0,-1 -1,-1 -2,-1 -1,0 -2,0 -2,1 -1,1 -1,2 -1,3z"/>
  <path class="fil1" d="M605 0c39,0 71,32 71,72 0,39 -32,71 -71,71 -40,0 -72,-32 -72,-71 0,-40 32,-72 72,-72zm-15 24l-5 0 0 -4 5 0 0 4zm9 9l-5 0 -4 0 0 -9 4 0 0 5 5 0 0 4zm8 0l0 -18 -4 0 0 -4 22 0 0 13 -4 0 0 5 -5 0 0 4 -9 0zm-22 22l0 5 -4 0 0 4 -5 0 0 5 -4 0 0 4 -5 0 0 -4 -4 0 0 4 -4 0 0 9 8 0 0 4 18 0 0 5 5 0 0 4 4 0 0 5 9 0 0 17 -4 0 0 5 -5 0 0 4 -13 0 0 -9 -5 0 0 -4 0 -5 -4 0 -5 0 0 -17 -4 0 0 -5 -9 0 0 -4 0 -5 -4 0 0 -8 -5 0 0 -5 5 0 0 -18 4 0 0 -9 5 0 0 -4 4 0 0 -4 4 0 0 -5 5 0 0 5 9 0 0 4 -5 0 0 4 -4 0 0 9 4 0 0 5 5 0 0 -5 4 0 0 -4 9 0 0 9 -4 0 0 4 -5 0zm31 27l5 0 0 -9 4 0 0 -13 5 0 0 -9 8 0 0 -5 9 0 0 -4 5 0 0 -5 -9 0 0 5 -5 0 0 -9 5 0 0 -4 9 0 0 4 4 0 0 4 5 0 0 9 4 0 0 14 5 0 0 22 -5 0 0 13 -4 0 0 9 -5 0 0 4 -4 0 0 5 -5 0 0 4 -4 0 0 -13 -5 0 0 -9 -4 0 0 -4 -13 0 0 -5 -5 0 0 -4z"/>
  <polygon class="fil2" points="0,195 12,195 12,230 0,230 "/>
  <polygon id="1" class="fil2" points="21,195 32,195 46,214 46,195 58,195 58,230 46,230 32,211 32,230 21,230 "/>
  <path id="2" class="fil2" d="M64 219l11 -1c0,2 1,3 2,4 1,1 3,2 5,2 2,0 3,0 4,-1 1,-1 1,-2 1,-3 0,-1 0,-1 -1,-2 -1,-1 -3,-2 -6,-2 -5,-1 -9,-3 -11,-5 -3,-1 -4,-4 -4,-6 0,-2 1,-4 2,-5 1,-2 3,-3 5,-4 2,-1 6,-2 10,-2 5,0 8,1 11,3 3,2 4,4 5,8l-12 1c0,-2 -1,-3 -1,-4 -1,-1 -3,-1 -4,-1 -2,0 -3,0 -4,1 0,0 -1,1 -1,2 0,0 1,1 1,1 1,1 2,1 4,2 5,1 9,2 11,3 3,1 4,2 5,4 1,1 2,3 2,5 0,2 -1,4 -2,6 -2,2 -3,3 -6,4 -2,1 -5,2 -9,2 -7,0 -11,-1 -14,-4 -2,-2 -4,-5 -4,-8z"/>
  <polygon id="3" class="fil2" points="102,195 139,195 139,204 126,204 126,230 115,230 115,204 102,204 "/>
  <path id="4" class="fil2" d="M164 224l-13 0 -2 6 -12 0 14 -35 13 0 15 35 -13 0 -2 -6zm-2 -7l-4 -13 -5 13 9 0z"/>
  <polygon id="5" class="fil2" points="183,195 194,195 209,214 209,195 220,195 220,230 209,230 194,211 194,230 183,230 "/>
  <polygon id="6" class="fil2" points="225,195 262,195 262,204 249,204 249,230 237,230 237,204 225,204 "/>
  <path id="7" class="fil2" d="M285 195l18 0c4,0 6,0 9,1 2,1 4,2 5,4 1,2 2,4 3,6 1,2 1,4 1,6 0,4 0,7 -1,9 -1,2 -3,4 -4,5 -2,2 -4,3 -6,3 -2,1 -5,1 -7,1l-18 0 0 -35zm12 8l0 19 3 0c3,0 4,0 6,-1 1,0 1,-1 2,-2 1,-1 1,-3 1,-6 0,-4 -1,-7 -2,-8 -1,-1 -4,-2 -7,-2l-3 0z"/>
  <path id="8" class="fil2" d="M327 230l0 -35 20 0c4,0 7,0 9,1 2,0 3,2 5,3 1,2 1,4 1,6 0,2 0,3 -1,5 -1,1 -2,2 -4,3 -1,1 -2,1 -4,2 2,0 3,1 3,1 1,0 1,1 2,2 1,1 2,2 2,2l6 10 -14 0 -6 -11c-1,-1 -2,-2 -3,-2 0,-1 -1,-1 -2,-1l-2 0 0 14 -12 0zm12 -21l6 0c0,0 1,0 3,0 1,0 1,-1 2,-1 0,-1 0,-2 0,-2 0,-1 0,-2 -1,-3 -1,-1 -2,-1 -4,-1l-6 0 0 7z"/>
  <polygon id="9" class="fil2" points="370,195 382,195 382,230 370,230 "/>
  <polygon id="10" class="fil2" points="387,195 399,195 408,220 417,195 429,195 414,230 401,230 "/>
  <polygon id="11" class="fil2" points="433,195 465,195 465,203 445,203 445,208 463,208 463,215 445,215 445,222 465,222 465,230 433,230 "/>
  <path id="12" class="fil2" d="M472 230l0 -35 20 0c4,0 7,0 9,1 2,0 3,2 4,3 2,2 2,4 2,6 0,2 0,3 -1,5 -1,1 -2,2 -4,3 -1,1 -2,1 -4,2 1,0 2,1 3,1 0,0 1,1 2,2 1,1 1,2 1,2l6 10 -13 0 -7 -11c-1,-1 -1,-2 -2,-2 -1,-1 -2,-1 -3,-1l-1 0 0 14 -12 0zm12 -21l5 0c1,0 2,0 3,0 1,0 2,-1 2,-1 1,-1 1,-2 1,-2 0,-1 0,-2 -1,-3 -1,-1 -2,-1 -5,-1l-5 0 0 7z"/>
  <path id="13" class="fil2" d="M512 219l11 -1c1,2 1,3 2,4 1,1 3,2 5,2 2,0 3,0 4,-1 1,-1 2,-2 2,-3 0,-1 -1,-1 -2,-2 -1,-1 -3,-2 -6,-2 -5,-1 -9,-3 -11,-5 -2,-1 -3,-4 -3,-6 0,-2 0,-4 1,-5 1,-2 3,-3 5,-4 3,-1 6,-2 10,-2 5,0 9,1 11,3 3,2 5,4 5,8l-11 1c-1,-2 -1,-3 -2,-4 -1,-1 -2,-1 -4,-1 -2,0 -3,0 -3,1 -1,0 -1,1 -1,2 0,0 0,1 0,1 1,1 2,1 4,2 6,1 9,2 12,3 2,1 4,2 5,4 1,1 1,3 1,5 0,2 0,4 -2,6 -1,2 -3,3 -6,4 -2,1 -5,2 -9,2 -7,0 -11,-1 -14,-4 -2,-2 -4,-5 -4,-8z"/>
  <polygon id="14" class="fil2" points="571,195 583,195 583,222 602,222 602,230 571,230 "/>
  <polygon id="15" class="fil2" points="608,195 620,195 620,230 608,230 "/>
  <path id="16" class="fil2" d="M655 216l10 3c-1,2 -2,5 -3,6 -2,2 -4,4 -6,4 -2,1 -5,2 -9,2 -4,0 -7,-1 -10,-2 -3,-1 -5,-3 -7,-6 -2,-3 -3,-6 -3,-10 0,-6 2,-11 5,-14 4,-3 9,-5 15,-5 5,0 9,1 11,3 3,2 5,5 7,8l-11 2c0,-1 -1,-1 -1,-2 -1,-1 -2,-1 -3,-2 -1,0 -2,0 -3,0 -3,0 -5,1 -6,3 -1,1 -2,3 -2,6 0,4 1,7 2,8 2,2 3,3 6,3 2,0 4,-1 5,-2 1,-1 2,-3 3,-5z"/>
  <polygon id="17" class="fil2" points="671,195 703,195 703,203 683,203 683,208 701,208 701,215 683,215 683,222 704,222 704,230 671,230 "/>
  <polygon id="18" class="fil2" points="710,195 721,195 736,214 736,195 747,195 747,230 736,230 721,211 721,230 710,230 "/>
  <path id="19" class="fil2" d="M753 219l12 -1c0,2 0,3 1,4 1,1 3,2 5,2 2,0 3,0 4,-1 1,-1 2,-2 2,-3 0,-1 -1,-1 -2,-2 -1,-1 -3,-2 -6,-2 -5,-1 -9,-3 -11,-5 -2,-1 -3,-4 -3,-6 0,-2 0,-4 1,-5 1,-2 3,-3 6,-4 2,-1 5,-2 9,-2 5,0 9,1 11,3 3,2 5,4 5,8l-11 1c-1,-2 -1,-3 -2,-4 -1,-1 -2,-1 -4,-1 -1,0 -3,0 -3,1 -1,0 -1,1 -1,2 0,0 0,1 1,1 0,1 1,1 4,2 5,1 9,2 11,3 2,1 4,2 5,4 1,1 1,3 1,5 0,2 0,4 -2,6 -1,2 -3,3 -6,4 -2,1 -5,2 -9,2 -6,0 -11,-1 -14,-4 -2,-2 -4,-5 -4,-8z"/>
  <polygon id="20" class="fil2" points="794,195 826,195 826,203 806,203 806,208 825,208 825,215 806,215 806,222 827,222 827,230 794,230 "/>
 </g>
</svg>