<svg xmlns="http://www.w3.org/2000/svg" enable-background="new 0 0 800 600" viewBox="0 0 800 600"><path fill="#02aaaa" d="M688.98,150L119.86,51.62c-17.05-2.95-33.26,8.48-36.2,25.53l-12.02,69.52L25.46,413.8
		C22.52,430.85,33.95,447.06,51,450l569.12,98.38c17.05,2.95,33.26-8.48,36.2-25.53l46.18-267.13l12.02-69.52
		C717.46,169.15,706.03,152.94,688.98,150z"/><polygon fill="#049e9a" points="335.05 499.11 424.04 514.49 657.76 514.49 660.42 499.11"/><path fill="#eee" d="M49.88,199.73v271.09c0,17.3,14.03,31.33,31.33,31.33h577.56c17.3,0,31.33-14.03,31.33-31.33V199.73H49.88z"/><rect width="12.43" height="40.84" x="644.49" y="456.72" fill="#dbdbdb"/><rect width="12.43" height="40.84" x="621.69" y="456.72" fill="#dbdbdb"/><rect width="6.21" height="40.84" x="605.09" y="456.72" fill="#dbdbdb"/><rect width="14.92" height="40.84" x="578.95" y="456.72" fill="#dbdbdb"/><rect width="6.21" height="40.84" x="562.36" y="456.72" fill="#dbdbdb"/><rect width="12.43" height="40.84" x="533.35" y="456.72" fill="#dbdbdb"/><rect width="6.21" height="40.84" x="516.75" y="456.72" fill="#dbdbdb"/><rect width="6.21" height="40.84" x="499.92" y="456.72" fill="#dbdbdb"/><rect width="17.17" height="40.84" x="472.13" y="456.72" fill="#dbdbdb"/><rect width="12.43" height="40.84" x="449.32" y="456.72" fill="#dbdbdb"/><rect width="6.21" height="40.84" x="432.73" y="456.72" fill="#dbdbdb"/><rect width="12.43" height="40.84" x="411.1" y="456.72" fill="#dbdbdb"/><rect width="16.66" height="40.84" x="385.23" y="456.72" fill="#dbdbdb"/><rect width="6.21" height="40.84" x="368.64" y="456.72" fill="#dbdbdb"/><rect width="6.21" height="40.84" x="354.13" y="456.72" fill="#dbdbdb"/><rect width="12.43" height="40.84" x="331.32" y="456.72" fill="#dbdbdb"/><rect width="17.32" height="40.84" x="304.09" y="456.72" fill="#dbdbdb"/><rect width="4.17" height="40.84" x="290.28" y="456.72" fill="#dbdbdb"/><path fill="#00b6bf" d="M690.09,129.18c0-17.3-14.03-31.33-31.33-31.33H81.21c-17.3,0-31.33,14.03-31.33,31.33v70.55h640.21V129.18z
		"/><path fill="#02aaaa" d="M131.43,130.27h19.51c3.85,0,6.95,0.52,9.32,1.57s4.32,2.54,5.87,4.49c1.55,1.95,2.67,4.22,3.36,6.81
		s1.04,5.33,1.04,8.23c0,4.54-0.52,8.07-1.55,10.57c-1.03,2.5-2.47,4.6-4.31,6.29c-1.84,1.69-3.81,2.82-5.91,3.38
		c-2.88,0.77-5.49,1.16-7.83,1.16h-19.51V130.27z M144.56,139.89v23.22h3.22c2.74,0,4.7-0.3,5.86-0.91
		c1.16-0.61,2.07-1.67,2.73-3.19s0.99-3.98,0.99-7.38c0-4.5-0.73-7.59-2.2-9.25c-1.47-1.66-3.9-2.49-7.31-2.49H144.56z"/><path fill="#02aaaa" d="M176.77,141.98h11.05v5.04c1.06-2.18,2.16-3.69,3.29-4.51c1.13-0.82,2.53-1.23,4.19-1.23
		c1.74,0,3.64,0.54,5.71,1.62l-3.65,8.41c-1.39-0.58-2.49-0.87-3.31-0.87c-1.55,0-2.74,0.64-3.6,1.91
		c-1.22,1.8-1.83,5.16-1.83,10.09v10.32h-11.86V141.98z"/><path fill="#02aaaa" d="M203.45,130.27h11.8v8.03h-11.8V130.27z M203.45,141.98h11.8v30.79h-11.8V141.98z"/><path fill="#02aaaa" d="M219.31,141.98h12.28l5.97,19.51l6.2-19.51h11.91l-13.09,30.79h-10.47L219.31,141.98z"/><path fill="#02aaaa" d="M259.49,130.27h11.8v8.03h-11.8V130.27z M259.49,141.98h11.8v30.79h-11.8V141.98z"/><path fill="#02aaaa" d="M278.83,141.98h10.99V147c1.64-2.05,3.31-3.51,4.99-4.39c1.68-0.88,3.73-1.32,6.15-1.32
		c3.27,0,5.82,0.97,7.67,2.91c1.85,1.94,2.77,4.94,2.77,9v19.57h-11.86v-16.93c0-1.93-0.36-3.3-1.07-4.1
		c-0.72-0.8-1.72-1.2-3.02-1.2c-1.43,0-2.59,0.54-3.48,1.62c-0.89,1.08-1.33,3.03-1.33,5.83v14.79h-11.8V141.98z"/><path fill="#02aaaa" d="M339.86,141.98h11.05v29.08l0.03,1.36c0,1.93-0.41,3.77-1.23,5.52c-0.82,1.75-1.91,3.17-3.28,4.25
		c-1.36,1.08-3.09,1.87-5.19,2.35s-4.5,0.72-7.2,0.72c-6.19,0-10.43-0.93-12.74-2.78s-3.46-4.34-3.46-7.45
		c0-0.39,0.02-0.91,0.06-1.57l11.45,1.3c0.29,1.06,0.73,1.8,1.33,2.2c0.87,0.6,1.96,0.9,3.28,0.9c1.7,0,2.97-0.45,3.81-1.36
		c0.84-0.91,1.26-2.49,1.26-4.75v-4.67c-1.16,1.37-2.32,2.37-3.48,2.99c-1.82,0.97-3.78,1.45-5.89,1.45c-4.12,0-7.44-1.8-9.97-5.39
		c-1.8-2.55-2.7-5.92-2.7-10.12c0-4.79,1.16-8.45,3.48-10.96c2.32-2.51,5.35-3.77,9.1-3.77c2.4,0,4.37,0.41,5.93,1.22
		s3.01,2.16,4.36,4.03V141.98z M328.76,156.91c0,2.22,0.47,3.87,1.42,4.94s2.19,1.61,3.74,1.61c1.47,0,2.7-0.56,3.7-1.67
		c1-1.11,1.49-2.79,1.49-5.03s-0.52-3.96-1.57-5.15c-1.04-1.19-2.32-1.78-3.83-1.78c-1.51,0-2.71,0.55-3.61,1.64
		S328.76,154.38,328.76,156.91z"/><path fill="#02aaaa" d="M378.63,130.27h13.13v32.04h20.5v10.47h-33.63V130.27z"/><path fill="#02aaaa" d="M417.89,130.27h11.8v8.03h-11.8V130.27z M417.89,141.98h11.8v30.79h-11.8V141.98z"/><path fill="#02aaaa" d="M460.19,160.71l11.22,1.28c-0.62,2.34-1.63,4.36-3.04,6.07s-3.21,3.04-5.41,3.99
		c-2.19,0.95-4.98,1.42-8.36,1.42c-3.27,0-5.99-0.3-8.16-0.91s-4.04-1.59-5.61-2.95c-1.57-1.36-2.79-2.96-3.68-4.79
		c-0.89-1.84-1.33-4.27-1.33-7.3c0-3.17,0.54-5.8,1.62-7.91c0.79-1.54,1.87-2.93,3.25-4.16s2.78-2.14,4.23-2.74
		c2.3-0.95,5.25-1.42,8.84-1.42c5.03,0,8.86,0.9,11.5,2.7c2.64,1.8,4.49,4.43,5.55,7.89l-11.1,1.48c-0.35-1.31-0.98-2.31-1.9-2.97
		c-0.92-0.67-2.15-1-3.7-1c-1.95,0-3.53,0.7-4.74,2.1c-1.21,1.4-1.81,3.52-1.81,6.35c0,2.53,0.6,4.45,1.8,5.76
		c1.2,1.31,2.73,1.97,4.58,1.97c1.55,0,2.85-0.4,3.9-1.19S459.67,162.35,460.19,160.71z"/><path fill="#02aaaa" d="M511.02,160.3h-23.66c0.21,1.89,0.72,3.31,1.54,4.23c1.14,1.33,2.63,2,4.47,2c1.16,0,2.26-0.29,3.31-0.87
		c0.64-0.37,1.32-1.01,2.06-1.94l11.63,1.07c-1.78,3.09-3.92,5.31-6.44,6.65c-2.51,1.34-6.12,2.02-10.81,2.02
		c-4.08,0-7.29-0.58-9.63-1.73s-4.28-2.98-5.81-5.48c-1.54-2.5-2.3-5.45-2.3-8.83c0-4.81,1.54-8.71,4.62-11.68s7.34-4.47,12.77-4.47
		c4.41,0,7.89,0.67,10.44,2c2.55,1.33,4.49,3.27,5.83,5.8c1.33,2.53,2,5.83,2,9.89V160.3z M499.01,154.65
		c-0.23-2.28-0.85-3.91-1.84-4.9c-1-0.99-2.3-1.48-3.93-1.48c-1.87,0-3.37,0.74-4.49,2.23c-0.72,0.93-1.17,2.31-1.36,4.15H499.01z"/><path fill="#02aaaa" d="M516.44,141.98h10.99V147c1.64-2.05,3.31-3.51,4.99-4.39c1.68-0.88,3.73-1.32,6.15-1.32
		c3.27,0,5.82,0.97,7.67,2.91c1.85,1.94,2.77,4.94,2.77,9v19.57h-11.86v-16.93c0-1.93-0.36-3.3-1.07-4.1
		c-0.72-0.8-1.72-1.2-3.02-1.2c-1.43,0-2.59,0.54-3.48,1.62c-0.89,1.08-1.33,3.03-1.33,5.83v14.79h-11.8V141.98z"/><path fill="#02aaaa" d="M553.96,164.22l11.71-1.1c0.48,1.39,1.16,2.39,2.03,2.99c0.87,0.6,2.03,0.9,3.48,0.9
		c1.59,0,2.81-0.34,3.68-1.01c0.68-0.5,1.01-1.13,1.01-1.88c0-0.85-0.44-1.51-1.33-1.97c-0.64-0.33-2.33-0.73-5.07-1.22
		c-4.1-0.72-6.94-1.38-8.54-1.99c-1.59-0.6-2.94-1.63-4.03-3.08c-1.09-1.45-1.64-3.1-1.64-4.95c0-2.03,0.59-3.77,1.77-5.24
		s2.8-2.56,4.87-3.29c2.07-0.72,4.84-1.09,8.32-1.09c3.67,0,6.38,0.28,8.13,0.84c1.75,0.56,3.21,1.43,4.38,2.61
		c1.17,1.18,2.14,2.77,2.91,4.78l-11.19,1.1c-0.29-0.99-0.77-1.71-1.45-2.17c-0.93-0.62-2.05-0.93-3.36-0.93
		c-1.33,0-2.3,0.24-2.91,0.71c-0.61,0.47-0.91,1.04-0.91,1.72c0,0.75,0.39,1.32,1.16,1.71c0.77,0.39,2.45,0.73,5.04,1.04
		c3.92,0.44,6.84,1.06,8.76,1.86c1.91,0.79,3.38,1.92,4.39,3.39c1.01,1.47,1.52,3.08,1.52,4.84c0,1.78-0.54,3.51-1.61,5.19
		c-1.07,1.68-2.76,3.02-5.07,4.01c-2.31,1-5.46,1.49-9.44,1.49c-5.62,0-9.63-0.8-12.02-2.41S554.63,167.18,553.96,164.22z"/><path fill="#02aaaa" d="M626.5,160.3h-23.66c0.21,1.89,0.72,3.31,1.54,4.23c1.14,1.33,2.63,2,4.47,2c1.16,0,2.26-0.29,3.31-0.87
		c0.64-0.37,1.32-1.01,2.06-1.94l11.63,1.07c-1.78,3.09-3.92,5.31-6.44,6.65s-6.12,2.02-10.81,2.02c-4.08,0-7.29-0.58-9.63-1.73
		c-2.34-1.15-4.28-2.98-5.81-5.48c-1.54-2.5-2.3-5.45-2.3-8.83c0-4.81,1.54-8.71,4.62-11.68s7.34-4.47,12.77-4.47
		c4.41,0,7.89,0.67,10.44,2c2.55,1.33,4.49,3.27,5.83,5.8c1.33,2.53,2,5.83,2,9.89V160.3z M614.49,154.65
		c-0.23-2.28-0.85-3.91-1.84-4.9c-1-0.99-2.3-1.48-3.93-1.48c-1.87,0-3.37,0.74-4.49,2.23c-0.72,0.93-1.17,2.31-1.36,4.15H614.49z"/><path fill="#dbdbdb" d="M107.17,251.82v139.79c0,6.67,5.41,12.08,12.08,12.08h126.34c6.67,0,12.08-5.41,12.08-12.08V251.82
		c0-6.67-5.41-12.08-12.08-12.08H119.25C112.58,239.74,107.17,245.15,107.17,251.82z"/><path fill="#dbdbdb" d="M310.84,260.12h154.25c5.63,0,10.19-4.56,10.19-10.19c0-5.63-4.56-10.19-10.19-10.19H310.84
		c-5.63,0-10.19,4.56-10.19,10.19C300.65,255.56,305.21,260.12,310.84,260.12z"/><path fill="#dbdbdb" d="M607.64,288.42H301.19c-3.63,0-6.57,2.94-6.57,6.57l0,0c0,3.63,2.94,6.57,6.57,6.57h306.45
		c3.63,0,6.57-2.94,6.57-6.57l0,0C614.21,291.36,611.27,288.42,607.64,288.42z"/><path fill="#dbdbdb" d="M607.64,332.2H301.19c-3.63,0-6.57,2.94-6.57,6.57l0,0c0,3.63,2.94,6.57,6.57,6.57h306.45
		c3.63,0,6.57-2.94,6.57-6.57l0,0C614.21,335.15,611.27,332.2,607.64,332.2z"/><path fill="#dbdbdb" d="M405.14,375.99H301.19c-3.63,0-6.57,2.94-6.57,6.57v0c0,3.63,2.94,6.57,6.57,6.57h103.95
		c3.63,0,6.57-2.94,6.57-6.57v0C411.71,378.94,408.77,375.99,405.14,375.99z"/><path fill="#dbdbdb" d="M653.71,375.99H549.76c-3.63,0-6.57,2.94-6.57,6.57v0c0,3.63,2.94,6.57,6.57,6.57h103.95
		c3.63,0,6.57-2.94,6.57-6.57v0C660.28,378.94,657.34,375.99,653.71,375.99z"/><path fill="#dbdbdb" d="M405.14,419.78H301.19c-3.63,0-6.57,2.94-6.57,6.57v0c0,3.63,2.94,6.57,6.57,6.57h103.95
		c3.63,0,6.57-2.94,6.57-6.57v0C411.71,422.73,408.77,419.78,405.14,419.78z"/><path fill="#dbdbdb" d="M653.71,419.78H549.76c-3.63,0-6.57,2.94-6.57,6.57v0c0,3.63,2.94,6.57,6.57,6.57h103.95
		c3.63,0,6.57-2.94,6.57-6.57v0C660.28,422.73,657.34,419.78,653.71,419.78z"/><path fill="#5ab8ba" d="M95.95,240.6v139.79c0,6.67,5.41,12.08,12.08,12.08h126.34c6.67,0,12.08-5.41,12.08-12.08V240.6
		c0-6.67-5.41-12.08-12.08-12.08H108.03C101.36,228.53,95.95,233.93,95.95,240.6z"/><path fill="#3974af" d="M299.62,248.9h154.25c5.63,0,10.19-4.56,10.19-10.19c0-5.63-4.56-10.19-10.19-10.19H299.62
		c-5.63,0-10.19,4.56-10.19,10.19C289.43,244.34,293.99,248.9,299.62,248.9z"/><path fill="#5c637f" d="M596.42,277.2H289.97c-3.63,0-6.57,2.94-6.57,6.57l0,0c0,3.63,2.94,6.57,6.57,6.57h306.45
		c3.63,0,6.57-2.94,6.57-6.57l0,0C602.99,280.14,600.05,277.2,596.42,277.2z"/><path fill="#5c637f" d="M596.42,320.99H289.97c-3.63,0-6.57,2.94-6.57,6.57l0,0c0,3.63,2.94,6.57,6.57,6.57h306.45
		c3.63,0,6.57-2.94,6.57-6.57l0,0C602.99,323.93,600.05,320.99,596.42,320.99z"/><path fill="#5c637f" d="M393.92,364.77H289.97c-3.63,0-6.57,2.94-6.57,6.57v0c0,3.63,2.94,6.57,6.57,6.57h103.95
		c3.63,0,6.57-2.94,6.57-6.57v0C400.49,367.72,397.55,364.77,393.92,364.77z"/><path fill="#5c637f" d="M642.49,364.77H538.54c-3.63,0-6.57,2.94-6.57,6.57v0c0,3.63,2.94,6.57,6.57,6.57h103.95
		c3.63,0,6.57-2.94,6.57-6.57v0C649.06,367.72,646.12,364.77,642.49,364.77z"/><path fill="#5c637f" d="M393.92,408.56H289.97c-3.63,0-6.57,2.94-6.57,6.57v0c0,3.63,2.94,6.57,6.57,6.57h103.95
		c3.63,0,6.57-2.94,6.57-6.57v0C400.49,411.51,397.55,408.56,393.92,408.56z"/><path fill="#5c637f" d="M642.49,408.56H538.54c-3.63,0-6.57,2.94-6.57,6.57v0c0,3.63,2.94,6.57,6.57,6.57h103.95
		c3.63,0,6.57-2.94,6.57-6.57v0C649.06,411.51,646.12,408.56,642.49,408.56z"/><path fill="#dbdbdb" d="M219.57,472.07c-4.89,0-9.61-3.33-11.85-7.39c-2.62-4.74-2.77-10.26-2.54-15.52l0.06-1.28
		c0.06-1.18,0.11-2.35,0.13-3.49l-12.28,18.93c-2.16,3.33-4.98,3.5-6.73,2.63c-1.71-0.85-2.3-2.48-2.56-3.18l-4.56-12.53l-0.02,0.01
		c-4.46,2.71-9.08,5.5-14.49,6.63c-6.79,1.42-13.58-0.59-17.3-5.1c-1.14-1.38-2.02-2.95-2.87-4.46c-1.61-2.86-2.69-4.6-4.11-4.65
		c-1.9-0.03-3.48,3.55-4.16,7.15l-6.3-1.18c1.48-7.89,5.25-12.38,10.38-12.38c0.1,0,0.19,0,0.29,0c5.13,0.17,7.55,4.46,9.49,7.91
		c0.75,1.33,1.45,2.58,2.23,3.53c2.69,3.27,7.63,3.6,11.04,2.89c4.33-0.9,8.28-3.3,12.47-5.83l0.47-0.29
		c0.85-0.51,3.43-2.08,6.05-0.62c1.67,0.94,2.27,2.58,2.56,3.37l3.92,10.76l19.5-30.06l2.12,6.28c1.57,4.65,1.35,9.38,1.13,13.96
		l-0.06,1.26c-0.18,4.02-0.2,8.61,1.74,12.13c1.5,2.71,5.07,4.93,7.79,3.77l2.51,5.91C222.29,471.82,220.92,472.07,219.57,472.07z"/><rect width="12.43" height="40.84" x="636.64" y="448.86" fill="#5c637f"/><rect width="12.43" height="40.84" x="613.83" y="448.86" fill="#5c637f"/><rect width="6.21" height="40.84" x="597.24" y="448.86" fill="#5c637f"/><rect width="14.92" height="40.84" x="571.1" y="448.86" fill="#5c637f"/><rect width="6.21" height="40.84" x="554.51" y="448.86" fill="#5c637f"/><rect width="12.43" height="40.84" x="525.49" y="448.86" fill="#5c637f"/><rect width="6.21" height="40.84" x="508.9" y="448.86" fill="#5c637f"/><rect width="6.21" height="40.84" x="492.07" y="448.86" fill="#5c637f"/><rect width="17.17" height="40.84" x="464.28" y="448.86" fill="#5c637f"/><rect width="12.43" height="40.84" x="441.47" y="448.86" fill="#5c637f"/><rect width="6.21" height="40.84" x="424.88" y="448.86" fill="#5c637f"/><rect width="12.43" height="40.84" x="403.25" y="448.86" fill="#5c637f"/><rect width="16.66" height="40.84" x="377.38" y="448.86" fill="#5c637f"/><rect width="6.21" height="40.84" x="360.78" y="448.86" fill="#5c637f"/><rect width="6.21" height="40.84" x="346.28" y="448.86" fill="#5c637f"/><rect width="12.43" height="40.84" x="323.47" y="448.86" fill="#5c637f"/><rect width="17.32" height="40.84" x="296.23" y="448.86" fill="#5c637f"/><rect width="4.17" height="40.84" x="282.43" y="448.86" fill="#5c637f"/><path fill="#5c637f" d="M213.96,466.46c-4.89,0-9.61-3.33-11.85-7.39c-2.62-4.74-2.77-10.26-2.54-15.52l0.06-1.28
		c0.06-1.18,0.11-2.35,0.13-3.49l-12.28,18.93c-2.16,3.33-4.98,3.5-6.73,2.63c-1.71-0.85-2.3-2.48-2.56-3.18l-4.56-12.53l-0.02,0.01
		c-4.46,2.71-9.08,5.5-14.49,6.63c-6.79,1.42-13.58-0.59-17.3-5.1c-1.14-1.38-2.02-2.95-2.87-4.46c-1.61-2.86-2.69-4.6-4.11-4.65
		c-1.9-0.03-3.48,3.55-4.16,7.15l-6.3-1.18c1.48-7.89,5.25-12.38,10.38-12.38c0.1,0,0.19,0,0.29,0c5.13,0.17,7.55,4.46,9.49,7.91
		c0.75,1.33,1.45,2.58,2.23,3.53c2.69,3.27,7.63,3.6,11.04,2.89c4.33-0.9,8.28-3.3,12.47-5.83l0.47-0.29
		c0.85-0.51,3.43-2.08,6.05-0.62c1.67,0.94,2.27,2.58,2.56,3.37l3.92,10.76l19.5-30.06l2.12,6.28c1.57,4.65,1.35,9.38,1.13,13.96
		l-0.06,1.26c-0.18,4.02-0.2,8.61,1.74,12.13c1.5,2.71,5.07,4.93,7.79,3.77l2.51,5.91C216.68,466.21,215.31,466.46,213.96,466.46z"/><path fill="#e8e8ea" d="M122.45,121.29h19.51c3.85,0,6.95,0.52,9.32,1.57s4.32,2.54,5.87,4.49c1.55,1.95,2.67,4.22,3.36,6.81
		c0.7,2.59,1.04,5.33,1.04,8.23c0,4.54-0.52,8.07-1.55,10.57c-1.03,2.5-2.47,4.6-4.31,6.29c-1.84,1.69-3.81,2.82-5.91,3.38
		c-2.88,0.77-5.49,1.16-7.83,1.16h-19.51V121.29z M135.59,130.92v23.22h3.22c2.74,0,4.7-0.3,5.86-0.91s2.07-1.67,2.73-3.19
		c0.66-1.52,0.99-3.98,0.99-7.38c0-4.5-0.73-7.59-2.2-9.25s-3.9-2.49-7.31-2.49H135.59z"/><path fill="#e8e8ea" d="M167.8,133.01h11.05v5.04c1.06-2.18,2.16-3.69,3.29-4.51c1.13-0.82,2.53-1.23,4.19-1.23
		c1.74,0,3.64,0.54,5.71,1.62l-3.65,8.41c-1.39-0.58-2.49-0.87-3.31-0.87c-1.55,0-2.74,0.64-3.6,1.91
		c-1.22,1.8-1.83,5.16-1.83,10.09v10.32H167.8V133.01z"/><path fill="#e8e8ea" d="M194.47,121.29h11.8v8.03h-11.8V121.29z M194.47,133.01h11.8v30.79h-11.8V133.01z"/><path fill="#e8e8ea" d="M210.33,133.01h12.28l5.97,19.51l6.2-19.51h11.91l-13.09,30.79h-10.47L210.33,133.01z"/><path fill="#e8e8ea" d="M250.52,121.29h11.8v8.03h-11.8V121.29z M250.52,133.01h11.8v30.79h-11.8V133.01z"/><path fill="#e8e8ea" d="M269.86,133.01h10.99v5.02c1.64-2.05,3.31-3.51,4.99-4.39s3.73-1.32,6.15-1.32c3.27,0,5.82,0.97,7.67,2.91
		c1.85,1.94,2.77,4.94,2.77,9v19.57h-11.86v-16.93c0-1.93-0.36-3.3-1.07-4.1c-0.72-0.8-1.72-1.2-3.02-1.2
		c-1.43,0-2.59,0.54-3.48,1.62c-0.89,1.08-1.33,3.03-1.33,5.83v14.79h-11.8V133.01z"/><path fill="#e8e8ea" d="M330.89,133.01h11.05v29.08l0.03,1.36c0,1.93-0.41,3.77-1.23,5.52c-0.82,1.75-1.91,3.17-3.28,4.25
		c-1.36,1.08-3.09,1.87-5.19,2.35s-4.5,0.72-7.2,0.72c-6.19,0-10.43-0.93-12.74-2.78s-3.46-4.34-3.46-7.45
		c0-0.39,0.02-0.91,0.06-1.57l11.45,1.3c0.29,1.06,0.73,1.8,1.33,2.2c0.87,0.6,1.96,0.9,3.28,0.9c1.7,0,2.97-0.45,3.81-1.36
		s1.26-2.49,1.26-4.75v-4.67c-1.16,1.37-2.32,2.37-3.48,2.99c-1.82,0.97-3.78,1.45-5.89,1.45c-4.12,0-7.44-1.8-9.97-5.39
		c-1.8-2.55-2.7-5.92-2.7-10.12c0-4.79,1.16-8.45,3.48-10.96s5.35-3.77,9.1-3.77c2.4,0,4.37,0.41,5.93,1.22s3.01,2.16,4.36,4.03
		V133.01z M319.78,147.94c0,2.22,0.47,3.87,1.42,4.94c0.95,1.07,2.19,1.61,3.74,1.61c1.47,0,2.7-0.56,3.7-1.67s1.49-2.79,1.49-5.03
		c0-2.24-0.52-3.96-1.57-5.15c-1.04-1.19-2.32-1.78-3.83-1.78c-1.51,0-2.71,0.55-3.61,1.64
		C320.23,143.59,319.78,145.41,319.78,147.94z"/><path fill="#e8e8ea" d="M369.65,121.29h13.13v32.04h20.5v10.47h-33.63V121.29z"/><path fill="#e8e8ea" d="M408.91,121.29h11.8v8.03h-11.8V121.29z M408.91,133.01h11.8v30.79h-11.8V133.01z"/><path fill="#e8e8ea" d="M451.21,151.74l11.22,1.28c-0.62,2.34-1.63,4.36-3.04,6.07c-1.41,1.71-3.21,3.04-5.41,3.99
		c-2.19,0.95-4.98,1.42-8.36,1.42c-3.27,0-5.99-0.3-8.16-0.91s-4.04-1.59-5.61-2.95c-1.57-1.36-2.79-2.96-3.68-4.79
		c-0.89-1.84-1.33-4.27-1.33-7.3c0-3.17,0.54-5.8,1.62-7.91c0.79-1.54,1.87-2.93,3.25-4.16c1.37-1.23,2.78-2.14,4.23-2.74
		c2.3-0.95,5.25-1.42,8.84-1.42c5.03,0,8.86,0.9,11.5,2.7c2.64,1.8,4.49,4.43,5.55,7.89l-11.1,1.48c-0.35-1.31-0.98-2.31-1.9-2.97
		c-0.92-0.67-2.15-1-3.7-1c-1.95,0-3.53,0.7-4.74,2.1c-1.21,1.4-1.81,3.52-1.81,6.35c0,2.53,0.6,4.45,1.8,5.76
		c1.2,1.31,2.73,1.97,4.58,1.97c1.55,0,2.85-0.4,3.9-1.19C449.9,154.6,450.69,153.38,451.21,151.74z"/><path fill="#e8e8ea" d="M502.04,151.33h-23.66c0.21,1.89,0.72,3.31,1.54,4.23c1.14,1.33,2.63,2,4.47,2c1.16,0,2.26-0.29,3.31-0.87
		c0.64-0.37,1.32-1.01,2.06-1.94l11.63,1.07c-1.78,3.09-3.92,5.31-6.44,6.65c-2.51,1.34-6.12,2.02-10.81,2.02
		c-4.08,0-7.29-0.58-9.63-1.73c-2.34-1.15-4.28-2.98-5.81-5.48c-1.54-2.5-2.3-5.45-2.3-8.83c0-4.81,1.54-8.71,4.62-11.68
		c3.08-2.98,7.34-4.47,12.77-4.47c4.41,0,7.89,0.67,10.44,2c2.55,1.33,4.49,3.27,5.83,5.8c1.33,2.53,2,5.83,2,9.89V151.33z
		 M490.04,145.68c-0.23-2.28-0.85-3.91-1.84-4.9s-2.31-1.48-3.93-1.48c-1.87,0-3.37,0.74-4.49,2.23c-0.72,0.93-1.17,2.31-1.36,4.15
		H490.04z"/><path fill="#e8e8ea" d="M507.46,133.01h10.99v5.02c1.64-2.05,3.31-3.51,4.99-4.39c1.68-0.88,3.73-1.32,6.15-1.32
		c3.27,0,5.82,0.97,7.67,2.91c1.85,1.94,2.77,4.94,2.77,9v19.57h-11.86v-16.93c0-1.93-0.36-3.3-1.07-4.1
		c-0.72-0.8-1.72-1.2-3.02-1.2c-1.43,0-2.59,0.54-3.48,1.62c-0.89,1.08-1.33,3.03-1.33,5.83v14.79h-11.8V133.01z"/><path fill="#e8e8ea" d="M544.98,155.24l11.71-1.1c0.48,1.39,1.16,2.39,2.03,2.99s2.03,0.9,3.48,0.9c1.58,0,2.81-0.34,3.68-1.01
		c0.68-0.5,1.01-1.13,1.01-1.88c0-0.85-0.44-1.51-1.33-1.97c-0.64-0.33-2.33-0.73-5.07-1.22c-4.1-0.72-6.94-1.38-8.54-1.99
		c-1.59-0.6-2.94-1.63-4.03-3.08s-1.64-3.1-1.64-4.95c0-2.03,0.59-3.77,1.77-5.24c1.18-1.47,2.8-2.56,4.87-3.29
		c2.07-0.72,4.84-1.09,8.32-1.09c3.67,0,6.38,0.28,8.13,0.84c1.75,0.56,3.21,1.43,4.38,2.61c1.17,1.18,2.14,2.77,2.91,4.78
		l-11.19,1.1c-0.29-0.99-0.77-1.71-1.45-2.17c-0.93-0.62-2.05-0.93-3.36-0.93c-1.33,0-2.3,0.24-2.91,0.71
		c-0.61,0.47-0.91,1.04-0.91,1.72c0,0.75,0.39,1.32,1.16,1.71c0.77,0.39,2.45,0.73,5.04,1.04c3.92,0.44,6.84,1.06,8.76,1.86
		c1.91,0.79,3.38,1.92,4.39,3.39c1.01,1.47,1.52,3.08,1.52,4.84c0,1.78-0.54,3.51-1.61,5.19c-1.07,1.68-2.76,3.02-5.07,4.01
		c-2.31,1-5.46,1.49-9.44,1.49c-5.62,0-9.63-0.8-12.02-2.41S545.66,158.2,544.98,155.24z"/><path fill="#e8e8ea" d="M617.52,151.33h-23.66c0.21,1.89,0.72,3.31,1.54,4.23c1.14,1.33,2.63,2,4.47,2c1.16,0,2.26-0.29,3.31-0.87
		c0.64-0.37,1.32-1.01,2.06-1.94l11.63,1.07c-1.78,3.09-3.92,5.31-6.44,6.65c-2.51,1.34-6.12,2.02-10.81,2.02
		c-4.08,0-7.29-0.58-9.63-1.73c-2.34-1.15-4.28-2.98-5.81-5.48c-1.54-2.5-2.3-5.45-2.3-8.83c0-4.81,1.54-8.71,4.62-11.68
		c3.08-2.98,7.34-4.47,12.77-4.47c4.41,0,7.89,0.67,10.44,2c2.55,1.33,4.49,3.27,5.83,5.8c1.33,2.53,2,5.83,2,9.89V151.33z
		 M605.52,145.68c-0.23-2.28-0.85-3.91-1.84-4.9s-2.3-1.48-3.93-1.48c-1.87,0-3.37,0.74-4.49,2.23c-0.72,0.93-1.17,2.31-1.36,4.15
		H605.52z"/><path fill="#1b4b6e" d="M171.2,247.82c-18.45,0-33.41,14.96-33.41,33.41v44.86c2.51-0.54,5.11-0.83,7.77-0.83h9.92
		c-0.21-1.06-0.33-2.15-0.33-3.27v-3c4.23,3.89,9.85,6.28,16.04,6.28c6.61,0,12.59-2.71,16.89-7.07v3.8c0,1.12-0.11,2.22-0.33,3.27
		h9.07c2.67,0,5.27,0.3,7.77,0.83v-44.86C204.61,262.77,189.65,247.82,171.2,247.82z"/><path fill="#264357" d="M137.79,325.34v0.75c2.51-0.54,5.11-0.83,7.77-0.83h-6.29C138.77,325.26,138.28,325.32,137.79,325.34z"/><path fill="#264357" d="M171.2,247.82c-1.06,0-2.11,0.06-3.14,0.16c16.98,1.59,30.27,15.86,30.27,33.25v44.11
		c2.14,0.09,4.25,0.32,6.29,0.75v-44.86C204.61,262.77,189.65,247.82,171.2,247.82z"/><path fill="#264357" d="M181.8,321.98v-3.8c-3.61,3.66-8.4,6.13-13.74,6.84c1.03,0.14,2.07,0.23,3.14,0.23
		c3.79,0,7.35-0.91,10.53-2.49C181.74,322.5,181.8,322.25,181.8,321.98z"/><path fill="#f0cea7" d="M176.62,275.46c-8.63,16.64-23.46,13.98-29.15,12.2v13.85c0,13.11,10.63,23.74,23.74,23.74
		c13.11,0,23.74-10.63,23.74-23.74v-16.34C188.35,276.88,176.62,275.46,176.62,275.46z"/><path fill="#e0b894" d="M152.87,288.8c-2.18-0.25-4.05-0.72-5.41-1.14v1.21C149.13,289.02,150.96,289.04,152.87,288.8z"/><path fill="#e0b894" d="M176.62,275.46c-0.24,0.46-0.5,0.85-0.75,1.28c3.96,1.29,9.27,3.78,12.97,8.44v16.34
		c0,12.07-9.02,22.02-20.69,23.52c1,0.13,2.01,0.22,3.05,0.22c13.11,0,23.74-10.63,23.74-23.74v-16.34
		C188.35,276.88,176.62,275.46,176.62,275.46z"/><path fill="#eee" d="M196.84,325.26h-9.07c-1.52,7.53-8.17,13.19-16.14,13.19c-7.97,0-14.62-5.67-16.14-13.19h-9.92
		c-20.46,0-37.04,16.58-37.04,37.04v10.88h125.36V362.3C233.88,341.84,217.29,325.26,196.84,325.26z"/><path fill="#dbdbdb" d="M196.84,325.26h-7.43c20.46,0,37.04,16.58,37.04,37.04v10.88h7.43V362.3
		C233.88,341.84,217.29,325.26,196.84,325.26z"/><path fill="#f44040" d="M188.15,325.26h-0.38c-1.52,7.53-8.17,13.19-16.14,13.19c-7.97,0-14.62-5.67-16.14-13.19h-0.14v47.92h32.8
		V325.26z"/><path fill="#ea3939" d="M187.76,325.26c-0.71,3.54-2.6,6.64-5.19,8.97v38.95h5.57v-47.92H187.76z"/><path fill="#e0b894" d="M171.2,325.26c-6.19,0-11.82-2.39-16.04-6.28v3c0,9.09,7.37,16.47,16.47,16.47
		c9.09,0,16.47-7.37,16.47-16.47v-3.8C183.79,322.55,177.81,325.26,171.2,325.26z"/><path fill="#d6a780" d="M164.81,325.26c1.09,0,2.15-0.1,3.2-0.24c-4.92-0.67-9.37-2.83-12.85-6.04v3c0,0.42,0.09,0.82,0.12,1.24
		C158.2,324.51,161.42,325.26,164.81,325.26z"/><path fill="#d6a780" d="M181.62,322.81c-0.39,7.62-5.9,13.88-13.19,15.31c1.03,0.2,2.1,0.32,3.19,0.32
		c9.09,0,16.47-7.37,16.47-16.47v-3.8C186.23,320.07,184.03,321.63,181.62,322.81z"/><polygon fill="#dbdbdb" points="155.48 325.26 155.48 373.18 143.02 373.18 137.79 350.66 146.64 344.31 135.8 338.45"/><polygon fill="#c4c6c6" points="149.98 328.94 149.98 373.17 155.48 373.17 155.48 325.26"/><polygon fill="#dbdbdb" points="187.76 325.26 187.76 373.18 200.22 373.18 205.46 350.66 196.61 344.31 207.45 338.45"/><polygon fill="#c4c6c6" points="207.45 338.45 187.76 325.26 187.76 329.66 200.87 338.45 190.03 344.31 198.88 350.66 193.65 373.17 200.22 373.17 205.46 350.66 196.61 344.31"/><path fill="#dbdbdb" d="M654.71,314.55c-5.14-3.5-10.89,3.47-6.48,7.85l41.86,41.6v-25.31L654.71,314.55z"/><path fill="#f44040" d="M647.04,308.12l49.12,48.8c2.18,2.17,5.79,1.85,7.55-0.67l70.41-100.4c3.26-4.64-3.32-9.8-7.05-5.53
		l-66.82,76.54c-1.65,1.89-4.45,2.25-6.53,0.84l-40.2-27.42C648.39,296.76,642.63,303.73,647.04,308.12z"/></svg>